<svg width="1987" height="381" viewBox="0 0 1987 381" fill="none" xmlns="http://www.w3.org/2000/svg">
<g clip-path="url(#clip0_2145_1184)">
<path opacity="0.16" d="M47.3202 111.608L94.8343 187.074M47.3202 111.608V0M47.3202 111.608L0 187.074V75.4561L47.3202 0M94.8343 187.074V75.4561M94.8343 187.074L142.155 111.608M94.8343 75.4561L47.3202 0M94.8343 75.4561L142.155 0M47.3202 672.829L94.8343 748.294M47.3202 672.829V561.221M47.3202 672.829L0 748.294V636.677L47.3202 561.221M94.8343 748.294V636.677M94.8343 748.294L142.155 672.829M94.8343 636.677L47.3202 561.221M94.8343 636.677L142.155 561.221M47.3202 1234.24L94.8343 1309.71M47.3202 1234.24V1122.63M47.3202 1234.24L0 1309.71V1198.09L47.3202 1122.63M94.8343 1309.71V1198.09M94.8343 1309.71L142.155 1234.24M94.8343 1198.09L47.3202 1122.63M94.8343 1198.09L142.155 1122.63M47.3202 298.682L94.8343 374.147M47.3202 298.682V187.074M47.3202 298.682L0 374.147V262.53L47.3202 187.074M94.8343 374.147V262.53M94.8343 374.147L142.155 298.682M94.8343 262.53L47.3202 187.074M94.8343 262.53L142.155 187.074M47.3202 859.902L94.8343 935.368M47.3202 859.902V748.294M47.3202 859.902L0 935.368V823.75L47.3202 748.294M94.8343 935.368V823.75M94.8343 935.368L142.155 859.902M94.8343 823.75L47.3202 748.294M94.8343 823.75L142.155 748.294M47.3202 1421.31L94.8343 1496.78M47.3202 1421.31V1309.71M47.3202 1421.31L0 1496.78V1385.16L47.3202 1309.71M94.8343 1496.78V1385.16M94.8343 1496.78L142.155 1421.31M94.8343 1385.16L47.3202 1309.71M94.8343 1385.16L142.155 1309.71M47.3202 1795.46L94.8343 1870.93M47.3202 1795.46V1683.85M47.3202 1795.46L0 1870.93V1759.31L47.3202 1683.85M94.8343 1870.93V1759.31M94.8343 1870.93L142.155 1795.46M94.8343 1759.31L47.3202 1683.85M94.8343 1759.31L142.155 1683.85M47.3202 485.755L94.8343 561.221M47.3202 485.755V374.147M47.3202 485.755L0 561.221V449.603L47.3202 374.147M94.8343 561.221V449.603M94.8343 561.221L142.155 485.755M94.8343 449.603L47.3202 374.147M94.8343 449.603L142.155 374.147M47.3202 1047.09L94.8343 1122.63M47.3202 1047.09V935.368M47.3202 1047.09L0 1122.63V1010.9L47.3202 935.368M94.8343 1122.63V1010.9M94.8343 1122.63L142.155 1047.09M94.8343 1010.9L47.3202 935.368M94.8343 1010.9L142.155 935.368M47.3202 1608.39L94.8343 1683.85M47.3202 1608.39V1496.78M47.3202 1608.39L0 1683.85V1572.24L47.3202 1496.78M94.8343 1683.85V1572.24M94.8343 1683.85L142.155 1608.39M94.8343 1572.24L47.3202 1496.78M94.8343 1572.24L142.155 1496.78M47.3202 1982.53L94.8343 2058M47.3202 1982.53V1870.93M47.3202 1982.53L0 2058V1946.38L47.3202 1870.93M94.8343 2058V1946.38M94.8343 2058L142.155 1982.53M94.8343 1946.38L47.3202 1870.93M94.8343 1946.38L142.155 1870.93M804.831 111.608L852.345 187.074M804.831 111.608V0M804.831 111.608L757.511 187.074V75.4561L804.831 0M852.345 187.074V75.4561M852.345 187.074L899.86 111.608M852.345 75.4561L804.831 0M852.345 75.4561L899.86 0M804.831 672.829L852.345 748.294M804.831 672.829V561.221M804.831 672.829L757.511 748.294V636.677L804.831 561.221M852.345 748.294V636.677M852.345 748.294L899.86 672.829M852.345 636.677L804.831 561.221M852.345 636.677L899.86 561.221M804.831 1234.24L852.345 1309.71M804.831 1234.24V1122.63M804.831 1234.24L757.511 1309.71V1198.09L804.831 1122.63M852.345 1309.71V1198.09M852.345 1309.71L899.86 1234.24M852.345 1198.09L804.831 1122.63M852.345 1198.09L899.86 1122.63M804.831 298.682L852.345 374.147M804.831 298.682V187.074M804.831 298.682L757.511 374.147V262.53L804.831 187.074M852.345 374.147V262.53M852.345 374.147L899.86 298.682M852.345 262.53L804.831 187.074M852.345 262.53L899.86 187.074M804.831 859.902L852.345 935.368M804.831 859.902V748.294M804.831 859.902L757.511 935.368V823.75L804.831 748.294M852.345 935.368V823.75M852.345 935.368L899.86 859.902M852.345 823.75L804.831 748.294M852.345 823.75L899.86 748.294M804.831 1421.31L852.345 1496.78M804.831 1421.31V1309.71M804.831 1421.31L757.511 1496.78V1385.16L804.831 1309.71M852.345 1496.78V1385.16M852.345 1496.78L899.86 1421.31M852.345 1385.16L804.831 1309.71M852.345 1385.16L899.86 1309.71M804.831 1795.46L852.345 1870.93M804.831 1795.46V1683.85M804.831 1795.46L757.511 1870.93V1759.31L804.831 1683.85M852.345 1870.93V1759.31M852.345 1870.93L899.86 1795.46M852.345 1759.31L804.831 1683.85M852.345 1759.31L899.86 1683.85M804.831 485.755L852.345 561.221M804.831 485.755V374.147M804.831 485.755L757.511 561.221V449.603L804.831 374.147M852.345 561.221V449.603M852.345 561.221L899.86 485.755M852.345 449.603L804.831 374.147M852.345 449.603L899.86 374.147M804.831 1047.09L852.345 1122.63M804.831 1047.09V935.368M804.831 1047.09L757.511 1122.63V1010.9L804.831 935.368M852.345 1122.63V1010.9M852.345 1122.63L899.86 1047.09M852.345 1010.9L804.831 935.368M852.345 1010.9L899.86 935.368M804.831 1608.39L852.345 1683.85M804.831 1608.39V1496.78M804.831 1608.39L757.511 1683.85V1572.24L804.831 1496.78M852.345 1683.85V1572.24M852.345 1683.85L899.86 1608.39M852.345 1572.24L804.831 1496.78M852.345 1572.24L899.86 1496.78M804.831 1982.53L852.345 2058M804.831 1982.53V1870.93M804.831 1982.53L757.511 2058V1946.38L804.831 1870.93M852.345 2058V1946.38M852.345 2058L899.86 1982.53M852.345 1946.38L804.831 1870.93M852.345 1946.38L899.86 1870.93M426.076 111.608L473.59 187.074M426.076 111.608V0M426.076 111.608L378.756 187.074V75.4561L426.076 0M473.59 187.074V75.4561M473.59 187.074L520.91 111.608M473.59 75.4561L426.076 0M473.59 75.4561L520.91 0M426.076 672.829L473.59 748.294M426.076 672.829V561.221M426.076 672.829L378.756 748.294V636.677L426.076 561.221M473.59 748.294V636.677M473.59 748.294L520.91 672.829M473.59 636.677L426.076 561.221M473.59 636.677L520.91 561.221M426.076 1234.24L473.59 1309.71M426.076 1234.24V1122.63M426.076 1234.24L378.756 1309.71V1198.09L426.076 1122.63M473.59 1309.71V1198.09M473.59 1309.71L520.91 1234.24M473.59 1198.09L426.076 1122.63M473.59 1198.09L520.91 1122.63M426.076 298.682L473.59 374.147M426.076 298.682V187.074M426.076 298.682L378.756 374.147V262.53L426.076 187.074M473.59 374.147V262.53M473.59 374.147L520.91 298.682M473.59 262.53L426.076 187.074M473.59 262.53L520.91 187.074M426.076 859.902L473.59 935.368M426.076 859.902V748.294M426.076 859.902L378.756 935.368V823.75L426.076 748.294M473.59 935.368V823.75M473.59 935.368L520.91 859.902M473.59 823.75L426.076 748.294M473.59 823.75L520.91 748.294M426.076 1421.31L473.59 1496.78M426.076 1421.31V1309.71M426.076 1421.31L378.756 1496.78V1385.16L426.076 1309.71M473.59 1496.78V1385.16M473.59 1496.78L520.91 1421.31M473.59 1385.16L426.076 1309.71M473.59 1385.16L520.91 1309.71M426.076 1795.46L473.59 1870.93M426.076 1795.46V1683.85M426.076 1795.46L378.756 1870.93V1759.31L426.076 1683.85M473.59 1870.93V1759.31M473.59 1870.93L520.91 1795.46M473.59 1759.31L426.076 1683.85M473.59 1759.31L520.91 1683.85M426.076 485.755L473.59 561.221M426.076 485.755V374.147M426.076 485.755L378.756 561.221V449.603L426.076 374.147M473.59 561.221V449.603M473.59 561.221L520.91 485.755M473.59 449.603L426.076 374.147M473.59 449.603L520.91 374.147M426.076 1047.09L473.59 1122.63M426.076 1047.09V935.368M426.076 1047.09L378.756 1122.63V1010.9L426.076 935.368M473.59 1122.63V1010.9M473.59 1122.63L520.91 1047.09M473.59 1010.9L426.076 935.368M473.59 1010.9L520.91 935.368M426.076 1608.39L473.59 1683.85M426.076 1608.39V1496.78M426.076 1608.39L378.756 1683.85V1572.24L426.076 1496.78M473.59 1683.85V1572.24M473.59 1683.85L520.91 1608.39M473.59 1572.24L426.076 1496.78M473.59 1572.24L520.91 1496.78M426.076 1982.53L473.59 2058M426.076 1982.53V1870.93M426.076 1982.53L378.756 2058V1946.38L426.076 1870.93M473.59 2058V1946.38M473.59 2058L520.91 1982.53M473.59 1946.38L426.076 1870.93M473.59 1946.38L520.91 1870.93M1183.78 111.608L1231.29 187.074V75.4561L1183.78 0M1183.78 111.608V0M1183.78 111.608L1136.27 187.074V75.4561L1183.78 0M1183.78 672.829L1231.29 748.294V636.677L1183.78 561.221M1183.78 672.829V561.221M1183.78 672.829L1136.27 748.294V636.677L1183.78 561.221M1183.78 1234.24L1231.29 1309.71V1198.09L1183.78 1122.63M1183.78 1234.24V1122.63M1183.78 1234.24L1136.27 1309.71V1198.09L1183.78 1122.63M1183.78 298.682L1231.29 374.147V262.53L1183.78 187.074M1183.78 298.682V187.074M1183.78 298.682L1136.27 374.147V262.53L1183.78 187.074M1183.78 859.902L1231.29 935.368V823.75L1183.78 748.294M1183.78 859.902V748.294M1183.78 859.902L1136.27 935.368V823.75L1183.78 748.294M1183.78 1421.31L1231.29 1496.78V1385.16L1183.78 1309.71M1183.78 1421.31V1309.71M1183.78 1421.31L1136.27 1496.78V1385.16L1183.78 1309.71M1183.78 1795.46L1231.29 1870.93V1759.31L1183.78 1683.85M1183.78 1795.46V1683.85M1183.78 1795.46L1136.27 1870.93V1759.31L1183.78 1683.85M1183.78 485.755L1231.29 561.221V449.603L1183.78 374.147M1183.78 485.755V374.147M1183.78 485.755L1136.27 561.221V449.603L1183.78 374.147M1183.78 1047.09L1231.29 1122.63V1010.9L1183.78 935.368M1183.78 1047.09V935.368M1183.78 1047.09L1136.27 1122.63V1010.9L1183.78 935.368M1183.78 1608.39L1231.29 1683.85V1572.24L1183.78 1496.78M1183.78 1608.39V1496.78M1183.78 1608.39L1136.27 1683.85V1572.24L1183.78 1496.78M1183.78 1982.53L1231.29 2058V1946.38L1183.78 1870.93M1183.78 1982.53V1870.93M1183.78 1982.53L1136.27 2058V1946.38L1183.78 1870.93M1657.37 111.608L1704.88 187.074V75.4561L1657.37 0M1657.37 111.608V0M1657.37 111.608L1610.05 187.074V75.4561L1657.37 0M1657.37 672.829L1704.88 748.294V636.677L1657.37 561.221M1657.37 672.829V561.221M1657.37 672.829L1610.05 748.294V636.677L1657.37 561.221M1657.37 1234.24L1704.88 1309.71V1198.09L1657.37 1122.63M1657.37 1234.24V1122.63M1657.37 1234.24L1610.05 1309.71V1198.09L1657.37 1122.63M1657.37 298.682L1704.88 374.147V262.53L1657.37 187.074M1657.37 298.682V187.074M1657.37 298.682L1610.05 374.147V262.53L1657.37 187.074M1657.37 859.902L1704.88 935.368V823.75L1657.37 748.294M1657.37 859.902V748.294M1657.37 859.902L1610.05 935.368V823.75L1657.37 748.294M1657.37 1421.31L1704.88 1496.78V1385.16L1657.37 1309.71M1657.37 1421.31V1309.71M1657.37 1421.31L1610.05 1496.78V1385.16L1657.37 1309.71M1657.37 1795.46L1704.88 1870.93V1759.31L1657.37 1683.85M1657.37 1795.46V1683.85M1657.37 1795.46L1610.05 1870.93V1759.31L1657.37 1683.85M1657.37 485.755L1704.88 561.221V449.603L1657.37 374.147M1657.37 485.755V374.147M1657.37 485.755L1610.05 561.221V449.603L1657.37 374.147M1657.37 1047.09L1704.88 1122.63V1010.9L1657.37 935.368M1657.37 1047.09V935.368M1657.37 1047.09L1610.05 1122.63V1010.9L1657.37 935.368M1657.37 1608.39L1704.88 1683.85V1572.24L1657.37 1496.78M1657.37 1608.39V1496.78M1657.37 1608.39L1610.05 1683.85V1572.24L1657.37 1496.78M1657.37 1982.53L1704.88 2058V1946.38L1657.37 1870.93M1657.37 1982.53V1870.93M1657.37 1982.53L1610.05 2058V1946.38L1657.37 1870.93M236.795 111.608L284.309 187.074V75.4561L236.795 0M236.795 111.608V0M236.795 111.608L189.475 187.074V75.4561L236.795 0M236.795 672.829L284.309 748.294V636.677L236.795 561.221M236.795 672.829V561.221M236.795 672.829L189.475 748.294V636.677L236.795 561.221M236.795 1234.24L284.309 1309.71V1198.09L236.795 1122.63M236.795 1234.24V1122.63M236.795 1234.24L189.475 1309.71V1198.09L236.795 1122.63M236.795 298.682L284.309 374.147V262.53L236.795 187.074M236.795 298.682V187.074M236.795 298.682L189.475 374.147V262.53L236.795 187.074M236.795 859.902L284.309 935.368V823.75L236.795 748.294M236.795 859.902V748.294M236.795 859.902L189.475 935.368V823.75L236.795 748.294M236.795 1421.31L284.309 1496.78V1385.16L236.795 1309.71M236.795 1421.31V1309.71M236.795 1421.31L189.475 1496.78V1385.16L236.795 1309.71M236.795 1795.46L284.309 1870.93V1759.31L236.795 1683.85M236.795 1795.46V1683.85M236.795 1795.46L189.475 1870.93V1759.31L236.795 1683.85M236.795 485.755L284.309 561.221V449.603L236.795 374.147M236.795 485.755V374.147M236.795 485.755L189.475 561.221V449.603L236.795 374.147M236.795 1047.09L284.309 1122.63V1010.9L236.795 935.368M236.795 1047.09V935.368M236.795 1047.09L189.475 1122.63V1010.9L236.795 935.368M236.795 1608.39L284.309 1683.85V1572.24L236.795 1496.78M236.795 1608.39V1496.78M236.795 1608.39L189.475 1683.85V1572.24L236.795 1496.78M236.795 1982.53L284.309 2058V1946.38L236.795 1870.93M236.795 1982.53V1870.93M236.795 1982.53L189.475 2058V1946.38L236.795 1870.93M994.112 111.608L1041.82 187.074V75.4561L994.112 0M994.112 111.608V0M994.112 111.608L946.792 187.074V75.4561L994.112 0M994.112 672.829L1041.82 748.294V636.677L994.112 561.221M994.112 672.829V561.221M994.112 672.829L946.792 748.294V636.677L994.112 561.221M994.112 1234.24L1041.82 1309.71V1198.09L994.112 1122.63M994.112 1234.24V1122.63M994.112 1234.24L946.792 1309.71V1198.09L994.112 1122.63M994.112 298.682L1041.82 374.147V262.53L994.112 187.074M994.112 298.682V187.074M994.112 298.682L946.792 374.147V262.53L994.112 187.074M994.112 859.902L1041.82 935.368V823.75L994.112 748.294M994.112 859.902V748.294M994.112 859.902L946.792 935.368V823.75L994.112 748.294M994.112 1421.31L1041.82 1496.78V1385.16L994.112 1309.71M994.112 1421.31V1309.71M994.112 1421.31L946.792 1496.78V1385.16L994.112 1309.71M994.112 1795.46L1041.82 1870.93V1759.31L994.112 1683.85M994.112 1795.46V1683.85M994.112 1795.46L946.792 1870.93V1759.31L994.112 1683.85M994.112 485.755L1041.82 561.221V449.603L994.112 374.147M994.112 485.755V374.147M994.112 485.755L946.792 561.221V449.603L994.112 374.147M994.112 1047.09L1041.82 1122.63V1010.9L994.112 935.368M994.112 1047.09V935.368M994.112 1047.09L946.792 1122.63V1010.9L994.112 935.368M994.112 1608.39L1041.82 1683.85V1572.24L994.112 1496.78M994.112 1608.39V1496.78M994.112 1608.39L946.792 1683.85V1572.24L994.112 1496.78M994.112 1982.53L1041.82 2058V1946.38L994.112 1870.93M994.112 1982.53V1870.93M994.112 1982.53L946.792 2058V1946.38L994.112 1870.93M615.551 111.608L663.065 187.074V75.4561L615.551 0M615.551 111.608V0M615.551 111.608L568.036 187.074V75.4561L615.551 0M615.551 672.829L663.065 748.294V636.677L615.551 561.221M615.551 672.829V561.221M615.551 672.829L568.036 748.294V636.677L615.551 561.221M615.551 1234.24L663.065 1309.71V1198.09L615.551 1122.63M615.551 1234.24V1122.63M615.551 1234.24L568.036 1309.71V1198.09L615.551 1122.63M615.551 298.682L663.065 374.147V262.53L615.551 187.074M615.551 298.682V187.074M615.551 298.682L568.036 374.147V262.53L615.551 187.074M615.551 859.902L663.065 935.368V823.75L615.551 748.294M615.551 859.902V748.294M615.551 859.902L568.036 935.368V823.75L615.551 748.294M615.551 1421.31L663.065 1496.78V1385.16L615.551 1309.71M615.551 1421.31V1309.71M615.551 1421.31L568.036 1496.78V1385.16L615.551 1309.71M615.551 1795.46L663.065 1870.93V1759.31L615.551 1683.85M615.551 1795.46V1683.85M615.551 1795.46L568.036 1870.93V1759.31L615.551 1683.85M615.551 485.755L663.065 561.221V449.603L615.551 374.147M615.551 485.755V374.147M615.551 485.755L568.036 561.221V449.603L615.551 374.147M615.551 1047.09L663.065 1122.63V1010.9L615.551 935.368M615.551 1047.09V935.368M615.551 1047.09L568.036 1122.63V1010.9L615.551 935.368M615.551 1608.39L663.065 1683.85V1572.24L615.551 1496.78M615.551 1608.39V1496.78M615.551 1608.39L568.036 1683.85V1572.24L615.551 1496.78M615.551 1982.53L663.065 2058V1946.38L615.551 1870.93M615.551 1982.53V1870.93M615.551 1982.53L568.036 2058V1946.38L615.551 1870.93M1373.06 111.608L1420.58 187.074M1373.06 111.608V0M1373.06 111.608L1325.55 187.074V75.4561L1373.06 0M1420.58 187.074V75.4561M1420.58 187.074L1467.9 111.608M1420.58 75.4561L1373.06 0M1420.58 75.4561L1467.9 0M1373.06 672.829L1420.58 748.294M1373.06 672.829V561.221M1373.06 672.829L1325.55 748.294V636.677L1373.06 561.221M1420.58 748.294V636.677M1420.58 748.294L1467.9 672.829M1420.58 636.677L1373.06 561.221M1420.58 636.677L1467.9 561.221M1373.06 1234.24L1420.58 1309.71M1373.06 1234.24V1122.63M1373.06 1234.24L1325.55 1309.71V1198.09L1373.06 1122.63M1420.58 1309.71V1198.09M1420.58 1309.71L1467.9 1234.24M1420.58 1198.09L1373.06 1122.63M1420.58 1198.09L1467.9 1122.63M1373.06 298.682L1420.58 374.147M1373.06 298.682V187.074M1373.06 298.682L1325.55 374.147V262.53L1373.06 187.074M1420.58 374.147V262.53M1420.58 374.147L1467.9 298.682M1420.58 262.53L1373.06 187.074M1420.58 262.53L1467.9 187.074M1373.06 859.902L1420.58 935.368M1373.06 859.902V748.294M1373.06 859.902L1325.55 935.368V823.75L1373.06 748.294M1420.58 935.368V823.75M1420.58 935.368L1467.9 859.902M1420.58 823.75L1373.06 748.294M1420.58 823.75L1467.9 748.294M1373.06 1421.31L1420.58 1496.78M1373.06 1421.31V1309.71M1373.06 1421.31L1325.55 1496.78V1385.16L1373.06 1309.71M1420.58 1496.78V1385.16M1420.58 1496.78L1467.9 1421.31M1420.58 1385.16L1373.06 1309.71M1420.58 1385.16L1467.9 1309.71M1373.06 1795.46L1420.58 1870.93M1373.06 1795.46V1683.85M1373.06 1795.46L1325.55 1870.93V1759.31L1373.06 1683.85M1420.58 1870.93V1759.31M1420.58 1870.93L1467.9 1795.46M1420.58 1759.31L1373.06 1683.85M1420.58 1759.31L1467.9 1683.85M1373.06 485.755L1420.58 561.221M1373.06 485.755V374.147M1373.06 485.755L1325.55 561.221V449.603L1373.06 374.147M1420.58 561.221V449.603M1420.58 561.221L1467.9 485.755M1420.58 449.603L1373.06 374.147M1420.58 449.603L1467.9 374.147M1373.06 1047.09L1420.58 1122.63M1373.06 1047.09V935.368M1373.06 1047.09L1325.55 1122.63V1010.9L1373.06 935.368M1420.58 1122.63V1010.9M1420.58 1122.63L1467.9 1047.09M1420.58 1010.9L1373.06 935.368M1420.58 1010.9L1467.9 935.368M1373.06 1608.39L1420.58 1683.85M1373.06 1608.39V1496.78M1373.06 1608.39L1325.55 1683.85V1572.24L1373.06 1496.78M1420.58 1683.85V1572.24M1420.58 1683.85L1467.9 1608.39M1420.58 1572.24L1373.06 1496.78M1420.58 1572.24L1467.9 1496.78M1373.06 1982.53L1420.58 2058M1373.06 1982.53V1870.93M1373.06 1982.53L1325.55 2058V1946.38L1373.06 1870.93M1420.58 2058V1946.38M1420.58 2058L1467.9 1982.53M1420.58 1946.38L1373.06 1870.93M1420.58 1946.38L1467.9 1870.93M1846.65 111.608L1894.17 187.074M1846.65 111.608V0M1846.65 111.608L1799.33 187.074V75.4561L1846.65 0M1894.17 187.074V75.4561M1894.17 187.074L1941.68 111.608M1894.17 75.4561L1846.65 0M1894.17 75.4561L1941.68 0M1846.65 672.829L1894.17 748.294M1846.65 672.829V561.221M1846.65 672.829L1799.33 748.294V636.677L1846.65 561.221M1894.17 748.294V636.677M1894.17 748.294L1941.68 672.829M1894.17 636.677L1846.65 561.221M1894.17 636.677L1941.68 561.221M1846.65 1234.24L1894.17 1309.71M1846.65 1234.24V1122.63M1846.65 1234.24L1799.33 1309.71V1198.09L1846.65 1122.63M1894.17 1309.71V1198.09M1894.17 1309.71L1941.68 1234.24M1894.17 1198.09L1846.65 1122.63M1894.17 1198.09L1941.68 1122.63M1846.65 298.682L1894.17 374.147M1846.65 298.682V187.074M1846.65 298.682L1799.33 374.147V262.53L1846.65 187.074M1894.17 374.147V262.53M1894.17 374.147L1941.68 298.682M1894.17 262.53L1846.65 187.074M1894.17 262.53L1941.68 187.074M1846.65 859.902L1894.17 935.368M1846.65 859.902V748.294M1846.65 859.902L1799.33 935.368V823.75L1846.65 748.294M1894.17 935.368V823.75M1894.17 935.368L1941.68 859.902M1894.17 823.75L1846.65 748.294M1894.17 823.75L1941.68 748.294M1846.65 1421.31L1894.17 1496.78M1846.65 1421.31V1309.71M1846.65 1421.31L1799.33 1496.78V1385.16L1846.65 1309.71M1894.17 1496.78V1385.16M1894.17 1496.78L1941.68 1421.31M1894.17 1385.16L1846.65 1309.71M1894.17 1385.16L1941.68 1309.71M1846.65 1795.46L1894.17 1870.93M1846.65 1795.46V1683.85M1846.65 1795.46L1799.33 1870.93V1759.31L1846.65 1683.85M1894.17 1870.93V1759.31M1894.17 1870.93L1941.68 1795.46M1894.17 1759.31L1846.65 1683.85M1894.17 1759.31L1941.68 1683.85M1846.65 485.755L1894.17 561.221M1846.65 485.755V374.147M1846.65 485.755L1799.33 561.221V449.603L1846.65 374.147M1894.17 561.221V449.603M1894.17 561.221L1941.68 485.755M1894.17 449.603L1846.65 374.147M1894.17 449.603L1941.68 374.147M1846.65 1047.09L1894.17 1122.63M1846.65 1047.09V935.368M1846.65 1047.09L1799.33 1122.63V1010.9L1846.65 935.368M1894.17 1122.63V1010.9M1894.17 1122.63L1941.68 1047.09M1894.17 1010.9L1846.65 935.368M1894.17 1010.9L1941.68 935.368M1846.65 1608.39L1894.17 1683.85M1846.65 1608.39V1496.78M1846.65 1608.39L1799.33 1683.85V1572.24L1846.65 1496.78M1894.17 1683.85V1572.24M1894.17 1683.85L1941.68 1608.39M1894.17 1572.24L1846.65 1496.78M1894.17 1572.24L1941.68 1496.78M1846.65 1982.53L1894.17 2058M1846.65 1982.53V1870.93M1846.65 1982.53L1799.33 2058V1946.38L1846.65 1870.93M1894.17 2058V1946.38M1894.17 2058L1941.68 1982.53M1894.17 1946.38L1846.65 1870.93M1894.17 1946.38L1941.68 1870.93M142.155 111.608L189.669 187.074V75.4561L142.155 0M142.155 111.608V0M142.155 672.829L189.669 748.294V636.677L142.155 561.221M142.155 672.829V561.221M142.155 1234.24L189.669 1309.71V1198.09L142.155 1122.63M142.155 1234.24V1122.63M142.155 298.682L189.669 374.147V262.53L142.155 187.074M142.155 298.682V187.074M142.155 859.902L189.669 935.368V823.75L142.155 748.294M142.155 859.902V748.294M142.155 1421.31L189.669 1496.78V1385.16L142.155 1309.71M142.155 1421.31V1309.71M142.155 1795.46L189.669 1870.93V1759.31L142.155 1683.85M142.155 1795.46V1683.85M142.155 485.755L189.669 561.221V449.603L142.155 374.147M142.155 485.755V374.147M142.155 1047.09L189.669 1122.63V1010.9L142.155 935.368M142.155 1047.09V935.368M142.155 1608.39L189.669 1683.85V1572.24L142.155 1496.78M142.155 1608.39V1496.78M142.155 1982.53L189.669 2058V1946.38L142.155 1870.93M142.155 1982.53V1870.93M899.86 111.608L947.18 187.074V75.4561L899.86 0M899.86 111.608V0M899.86 672.829L947.18 748.294V636.677L899.86 561.221M899.86 672.829V561.221M899.86 1234.24L947.18 1309.71V1198.09L899.86 1122.63M899.86 1234.24V1122.63M899.86 298.682L947.18 374.147V262.53L899.86 187.074M899.86 298.682V187.074M899.86 859.902L947.18 935.368V823.75L899.86 748.294M899.86 859.902V748.294M899.86 1421.31L947.18 1496.78V1385.16L899.86 1309.71M899.86 1421.31V1309.71M899.86 1795.46L947.18 1870.93V1759.31L899.86 1683.85M899.86 1795.46V1683.85M899.86 485.755L947.18 561.221V449.603L899.86 374.147M899.86 485.755V374.147M899.86 1047.09L947.18 1122.63V1010.9L899.86 935.368M899.86 1047.09V935.368M899.86 1608.39L947.18 1683.85V1572.24L899.86 1496.78M899.86 1608.39V1496.78M899.86 1982.53L947.18 2058V1946.38L899.86 1870.93M899.86 1982.53V1870.93M520.91 111.608L568.424 187.074V75.4561L520.91 0M520.91 111.608V0M520.91 672.829L568.424 748.294V636.677L520.91 561.221M520.91 672.829V561.221M520.91 1234.24L568.424 1309.71V1198.09L520.91 1122.63M520.91 1234.24V1122.63M520.91 298.682L568.424 374.147V262.53L520.91 187.074M520.91 298.682V187.074M520.91 859.902L568.424 935.368V823.75L520.91 748.294M520.91 859.902V748.294M520.91 1421.31L568.424 1496.78V1385.16L520.91 1309.71M520.91 1421.31V1309.71M520.91 1795.46L568.424 1870.93V1759.31L520.91 1683.85M520.91 1795.46V1683.85M520.91 485.755L568.424 561.221V449.603L520.91 374.147M520.91 485.755V374.147M520.91 1047.09L568.424 1122.63V1010.9L520.91 935.368M520.91 1047.09V935.368M520.91 1608.39L568.424 1683.85V1572.24L520.91 1496.78M520.91 1608.39V1496.78M520.91 1982.53L568.424 2058V1946.38L520.91 1870.93M520.91 1982.53V1870.93M1278.42 111.608L1325.94 187.074V75.4561L1278.42 0M1278.42 111.608V0M1278.42 111.608L1231.1 187.074V75.4561L1278.42 0M1278.42 672.829L1325.94 748.294V636.677L1278.42 561.221M1278.42 672.829V561.221M1278.42 672.829L1231.1 748.294V636.677L1278.42 561.221M1278.42 1234.24L1325.94 1309.71V1198.09L1278.42 1122.63M1278.42 1234.24V1122.63M1278.42 1234.24L1231.1 1309.71V1198.09L1278.42 1122.63M1278.42 298.682L1325.94 374.147V262.53L1278.42 187.074M1278.42 298.682V187.074M1278.42 298.682L1231.1 374.147V262.53L1278.42 187.074M1278.42 859.902L1325.94 935.368V823.75L1278.42 748.294M1278.42 859.902V748.294M1278.42 859.902L1231.1 935.368V823.75L1278.42 748.294M1278.42 1421.31L1325.94 1496.78V1385.16L1278.42 1309.71M1278.42 1421.31V1309.71M1278.42 1421.31L1231.1 1496.78V1385.16L1278.42 1309.71M1278.42 1795.46L1325.94 1870.93V1759.31L1278.42 1683.85M1278.42 1795.46V1683.85M1278.42 1795.46L1231.1 1870.93V1759.31L1278.42 1683.85M1278.42 485.755L1325.94 561.221V449.603L1278.42 374.147M1278.42 485.755V374.147M1278.42 485.755L1231.1 561.221V449.603L1278.42 374.147M1278.42 1047.09L1325.94 1122.63V1010.9L1278.42 935.368M1278.42 1047.09V935.368M1278.42 1047.09L1231.1 1122.63V1010.9L1278.42 935.368M1278.42 1608.39L1325.94 1683.85V1572.24L1278.42 1496.78M1278.42 1608.39V1496.78M1278.42 1608.39L1231.1 1683.85V1572.24L1278.42 1496.78M1278.42 1982.53L1325.94 2058V1946.38L1278.42 1870.93M1278.42 1982.53V1870.93M1278.42 1982.53L1231.1 2058V1946.38L1278.42 1870.93M1752.21 111.608L1799.72 187.074V75.4561L1752.21 0M1752.21 111.608V0M1752.21 111.608L1704.69 187.074V75.4561L1752.21 0M1752.21 672.829L1799.72 748.294V636.677L1752.21 561.221M1752.21 672.829V561.221M1752.21 672.829L1704.69 748.294V636.677L1752.21 561.221M1752.21 1234.24L1799.72 1309.71V1198.09L1752.21 1122.63M1752.21 1234.24V1122.63M1752.21 1234.24L1704.69 1309.71V1198.09L1752.21 1122.63M1752.21 298.682L1799.72 374.147V262.53L1752.21 187.074M1752.21 298.682V187.074M1752.21 298.682L1704.69 374.147V262.53L1752.21 187.074M1752.21 859.902L1799.72 935.368V823.75L1752.21 748.294M1752.21 859.902V748.294M1752.21 859.902L1704.69 935.368V823.75L1752.21 748.294M1752.21 1421.31L1799.72 1496.78V1385.16L1752.21 1309.71M1752.21 1421.31V1309.71M1752.21 1421.31L1704.69 1496.78V1385.16L1752.21 1309.71M1752.21 1795.46L1799.72 1870.93V1759.31L1752.21 1683.85M1752.21 1795.46V1683.85M1752.21 1795.46L1704.69 1870.93V1759.31L1752.21 1683.85M1752.21 485.755L1799.72 561.221V449.603L1752.21 374.147M1752.21 485.755V374.147M1752.21 485.755L1704.69 561.221V449.603L1752.21 374.147M1752.21 1047.09L1799.72 1122.63V1010.9L1752.21 935.368M1752.21 1047.09V935.368M1752.21 1047.09L1704.69 1122.63V1010.9L1752.21 935.368M1752.21 1608.39L1799.72 1683.85V1572.24L1752.21 1496.78M1752.21 1608.39V1496.78M1752.21 1608.39L1704.69 1683.85V1572.24L1752.21 1496.78M1752.21 1982.53L1799.72 2058V1946.38L1752.21 1870.93M1752.21 1982.53V1870.93M1752.21 1982.53L1704.69 2058V1946.38L1752.21 1870.93M331.435 111.608L379.143 187.074V75.4561L331.435 0M331.435 111.608V0M331.435 111.608L284.115 187.074V75.4561L331.435 0M331.435 672.829L379.143 748.294V636.677L331.435 561.221M331.435 672.829V561.221M331.435 672.829L284.115 748.294V636.677L331.435 561.221M331.435 1234.24L379.143 1309.71V1198.09L331.435 1122.63M331.435 1234.24V1122.63M331.435 1234.24L284.115 1309.71V1198.09L331.435 1122.63M331.435 298.682L379.143 374.147V262.53L331.435 187.074M331.435 298.682V187.074M331.435 298.682L284.115 374.147V262.53L331.435 187.074M331.435 859.902L379.143 935.368V823.75L331.435 748.294M331.435 859.902V748.294M331.435 859.902L284.115 935.368V823.75L331.435 748.294M331.435 1421.31L379.143 1496.78V1385.16L331.435 1309.71M331.435 1421.31V1309.71M331.435 1421.31L284.115 1496.78V1385.16L331.435 1309.71M331.435 1795.46L379.143 1870.93V1759.31L331.435 1683.85M331.435 1795.46V1683.85M331.435 1795.46L284.115 1870.93V1759.31L331.435 1683.85M331.435 485.755L379.143 561.221V449.603L331.435 374.147M331.435 485.755V374.147M331.435 485.755L284.115 561.221V449.603L331.435 374.147M331.435 1047.09L379.143 1122.63V1010.9L331.435 935.368M331.435 1047.09V935.368M331.435 1047.09L284.115 1122.63V1010.9L331.435 935.368M331.435 1608.39L379.143 1683.85V1572.24L331.435 1496.78M331.435 1608.39V1496.78M331.435 1608.39L284.115 1683.85V1572.24L331.435 1496.78M331.435 1982.53L379.143 2058V1946.38L331.435 1870.93M331.435 1982.53V1870.93M331.435 1982.53L284.115 2058V1946.38L331.435 1870.93M1089.14 111.608L1136.46 187.074V75.4561L1089.14 0M1089.14 111.608V0M1089.14 111.608L1041.63 187.074V75.4561L1089.14 0M1089.14 672.829L1136.46 748.294V636.677L1089.14 561.221M1089.14 672.829V561.221M1089.14 672.829L1041.63 748.294V636.677L1089.14 561.221M1089.14 1234.24L1136.46 1309.71V1198.09L1089.14 1122.63M1089.14 1234.24V1122.63M1089.14 1234.24L1041.63 1309.71V1198.09L1089.14 1122.63M1089.14 298.682L1136.46 374.147V262.53L1089.14 187.074M1089.14 298.682V187.074M1089.14 298.682L1041.63 374.147V262.53L1089.14 187.074M1089.14 859.902L1136.46 935.368V823.75L1089.14 748.294M1089.14 859.902V748.294M1089.14 859.902L1041.63 935.368V823.75L1089.14 748.294M1089.14 1421.31L1136.46 1496.78V1385.16L1089.14 1309.71M1089.14 1421.31V1309.71M1089.14 1421.31L1041.63 1496.78V1385.16L1089.14 1309.71M1089.14 1795.46L1136.46 1870.93V1759.31L1089.14 1683.85M1089.14 1795.46V1683.85M1089.14 1795.46L1041.63 1870.93V1759.31L1089.14 1683.85M1089.14 485.755L1136.46 561.221V449.603L1089.14 374.147M1089.14 485.755V374.147M1089.14 485.755L1041.63 561.221V449.603L1089.14 374.147M1089.14 1047.09L1136.46 1122.63V1010.9L1089.14 935.368M1089.14 1047.09V935.368M1089.14 1047.09L1041.63 1122.63V1010.9L1089.14 935.368M1089.14 1608.39L1136.46 1683.85V1572.24L1089.14 1496.78M1089.14 1608.39V1496.78M1089.14 1608.39L1041.63 1683.85V1572.24L1089.14 1496.78M1089.14 1982.53L1136.46 2058V1946.38L1089.14 1870.93M1089.14 1982.53V1870.93M1089.14 1982.53L1041.63 2058V1946.38L1089.14 1870.93M1562.92 111.608L1610.24 187.074V75.4561L1562.92 0M1562.92 111.608V0M1562.92 111.608L1515.22 187.074M1562.92 0L1515.22 75.4561M1562.92 672.829L1610.24 748.294V636.677L1562.92 561.221M1562.92 672.829V561.221M1562.92 672.829L1515.22 748.294M1562.92 561.221L1515.22 636.677M1562.92 1234.24L1610.24 1309.71V1198.09L1562.92 1122.63M1562.92 1234.24V1122.63M1562.92 1234.24L1515.22 1309.71M1562.92 1122.63L1515.22 1198.09M1562.92 298.682L1610.24 374.147V262.53L1562.92 187.074M1562.92 298.682V187.074M1562.92 298.682L1515.22 374.147M1562.92 187.074L1515.22 262.53M1562.92 859.902L1610.24 935.368V823.75L1562.92 748.294M1562.92 859.902V748.294M1562.92 859.902L1515.22 935.368M1562.92 748.294L1515.22 823.75M1562.92 1421.31L1610.24 1496.78V1385.16L1562.92 1309.71M1562.92 1421.31V1309.71M1562.92 1421.31L1515.22 1496.78M1562.92 1309.71L1515.22 1385.16M1562.92 1795.46L1610.24 1870.93V1759.31L1562.92 1683.85M1562.92 1795.46V1683.85M1562.92 1795.46L1515.22 1870.93M1562.92 1683.85L1515.22 1759.31M1562.92 485.755L1610.24 561.221V449.603L1562.92 374.147M1562.92 485.755V374.147M1562.92 485.755L1515.22 561.221M1562.92 374.147L1515.22 449.603M1562.92 1047.09L1610.24 1122.63V1010.9L1562.92 935.368M1562.92 1047.09V935.368M1562.92 1047.09L1515.22 1122.63M1562.92 935.368L1515.22 1010.9M1562.92 1608.39L1610.24 1683.85V1572.24L1562.92 1496.78M1562.92 1608.39V1496.78M1562.92 1608.39L1515.22 1683.85M1562.92 1496.78L1515.22 1572.24M1562.92 1982.53L1610.24 2058V1946.38L1562.92 1870.93M1562.92 1982.53V1870.93M1562.92 1982.53L1515.22 2058M1562.92 1870.93L1515.22 1946.38M1515.22 75.4561V187.074M1515.22 75.4561L1467.9 0M1515.22 187.074L1467.9 111.608M1515.22 636.677V748.294M1515.22 636.677L1467.9 561.221M1515.22 748.294L1467.9 672.829M1515.22 1198.09V1309.71M1515.22 1198.09L1467.9 1122.63M1515.22 1309.71L1467.9 1234.24M1515.22 262.53V374.147M1515.22 262.53L1467.9 187.074M1515.22 374.147L1467.9 298.682M1515.22 823.75V935.368M1515.22 823.75L1467.9 748.294M1515.22 935.368L1467.9 859.902M1515.22 1385.16V1496.78M1515.22 1385.16L1467.9 1309.71M1515.22 1496.78L1467.9 1421.31M1515.22 1759.31V1870.93M1515.22 1759.31L1467.9 1683.85M1515.22 1870.93L1467.9 1795.46M1515.22 449.603V561.221M1515.22 449.603L1467.9 374.147M1515.22 561.221L1467.9 485.755M1515.22 1010.9V1122.63M1515.22 1010.9L1467.9 935.368M1515.22 1122.63L1467.9 1047.09M1515.22 1572.24V1683.85M1515.22 1572.24L1467.9 1496.78M1515.22 1683.85L1467.9 1608.39M1515.22 1946.38V2058M1515.22 1946.38L1467.9 1870.93M1515.22 2058L1467.9 1982.53M710.385 111.608L757.705 187.074V75.4561L710.385 0M710.385 111.608V0M710.385 111.608L662.871 187.074V75.4561L710.385 0M710.385 672.829L757.705 748.294V636.677L710.385 561.221M710.385 672.829V561.221M710.385 672.829L662.871 748.294V636.677L710.385 561.221M710.385 1234.24L757.705 1309.71V1198.09L710.385 1122.63M710.385 1234.24V1122.63M710.385 1234.24L662.871 1309.71V1198.09L710.385 1122.63M710.385 298.682L757.705 374.147V262.53L710.385 187.074M710.385 298.682V187.074M710.385 298.682L662.871 374.147V262.53L710.385 187.074M710.385 859.902L757.705 935.368V823.75L710.385 748.294M710.385 859.902V748.294M710.385 859.902L662.871 935.368V823.75L710.385 748.294M710.385 1421.31L757.705 1496.78V1385.16L710.385 1309.71M710.385 1421.31V1309.71M710.385 1421.31L662.871 1496.78V1385.16L710.385 1309.71M710.385 1795.46L757.705 1870.93V1759.31L710.385 1683.85M710.385 1795.46V1683.85M710.385 1795.46L662.871 1870.93V1759.31L710.385 1683.85M710.385 485.755L757.705 561.221V449.603L710.385 374.147M710.385 485.755V374.147M710.385 485.755L662.871 561.221V449.603L710.385 374.147M710.385 1047.09L757.705 1122.63V1010.9L710.385 935.368M710.385 1047.09V935.368M710.385 1047.09L662.871 1122.63V1010.9L710.385 935.368M710.385 1608.39L757.705 1683.85V1572.24L710.385 1496.78M710.385 1608.39V1496.78M710.385 1608.39L662.871 1683.85V1572.24L710.385 1496.78M710.385 1982.53L757.705 2058V1946.38L710.385 1870.93M710.385 1982.53V1870.93M710.385 1982.53L662.871 2058V1946.38L710.385 1870.93M1467.9 111.608V0M1467.9 672.829V561.221M1467.9 1234.24V1122.63M1467.9 298.682V187.074M1467.9 859.902V748.294M1467.9 1421.31V1309.71M1467.9 1795.46V1683.85M1467.9 485.755V374.147M1467.9 1047.09V935.368M1467.9 1608.39V1496.78M1467.9 1982.53V1870.93M1941.68 111.608L1989 187.074V75.4561L1941.68 0M1941.68 111.608V0M1941.68 672.829L1989 748.294V636.677L1941.68 561.221M1941.68 672.829V561.221M1941.68 1234.24L1989 1309.71V1198.09L1941.68 1122.63M1941.68 1234.24V1122.63M1941.68 298.682L1989 374.147V262.53L1941.68 187.074M1941.68 298.682V187.074M1941.68 859.902L1989 935.368V823.75L1941.68 748.294M1941.68 859.902V748.294M1941.68 1421.31L1989 1496.78V1385.16L1941.68 1309.71M1941.68 1421.31V1309.71M1941.68 1795.46L1989 1870.93V1759.31L1941.68 1683.85M1941.68 1795.46V1683.85M1941.68 485.755L1989 561.221V449.603L1941.68 374.147M1941.68 485.755V374.147M1941.68 1047.09L1989 1122.63V1010.9L1941.68 935.368M1941.68 1047.09V935.368M1941.68 1608.39L1989 1683.85V1572.24L1941.68 1496.78M1941.68 1608.39V1496.78M1941.68 1982.53L1989 2058V1946.38L1941.68 1870.93M1941.68 1982.53V1870.93" stroke="white" stroke-width="1.93884" stroke-miterlimit="10"/>
</g>
<defs>
<clipPath id="clip0_2145_1184">
<rect width="1987" height="381" fill="white"/>
</clipPath>
</defs>
</svg>
