<svg width="980" height="951" viewBox="0 0 980 951" fill="none" xmlns="http://www.w3.org/2000/svg">
<path opacity="0.02" d="M47.3077 113.127L94.8094 189.619M47.3077 113.127V0.000244141M47.3077 113.127L0 189.619V76.483L47.3077 0.000244141M94.8094 189.619V76.483M94.8094 189.619L142.117 113.127M94.8094 76.483L47.3077 0.000244141M94.8094 76.483L142.117 0.000244141M47.3077 681.983L94.8094 758.475M47.3077 681.983V568.856M47.3077 681.983L0 758.475V645.339L47.3077 568.856M94.8094 758.475V645.339M94.8094 758.475L142.117 681.983M94.8094 645.339L47.3077 568.856M94.8094 645.339L142.117 568.856M47.3077 1251.03L94.8094 1327.53M47.3077 1251.03V1137.91M47.3077 1251.03L0 1327.53V1214.39L47.3077 1137.91M94.8094 1327.53V1214.39M94.8094 1327.53L142.117 1251.03M94.8094 1214.39L47.3077 1137.91M94.8094 1214.39L142.117 1137.91M47.3077 302.746L94.8094 379.238M47.3077 302.746V189.619M47.3077 302.746L0 379.238V266.102L47.3077 189.619M94.8094 379.238V266.102M94.8094 379.238L142.117 302.746M94.8094 266.102L47.3077 189.619M94.8094 266.102L142.117 189.619M47.3077 871.602L94.8094 948.094M47.3077 871.602V758.475M47.3077 871.602L0 948.094V834.958L47.3077 758.475M94.8094 948.094V834.958M94.8094 948.094L142.117 871.602M94.8094 834.958L47.3077 758.475M94.8094 834.958L142.117 758.475M47.3077 1440.65L94.8094 1517.14M47.3077 1440.65V1327.53M47.3077 1440.65L0 1517.14V1404.01L47.3077 1327.53M94.8094 1517.14V1404.01M94.8094 1517.14L142.117 1440.65M94.8094 1404.01L47.3077 1327.53M94.8094 1404.01L142.117 1327.53M47.3077 1819.89L94.8094 1896.38M47.3077 1819.89V1706.76M47.3077 1819.89L0 1896.38V1783.25L47.3077 1706.76M94.8094 1896.38V1783.25M94.8094 1896.38L142.117 1819.89M94.8094 1783.25L47.3077 1706.76M94.8094 1783.25L142.117 1706.76M47.3077 492.364L94.8094 568.856M47.3077 492.364V379.238M47.3077 492.364L0 568.856V455.72L47.3077 379.238M94.8094 568.856V455.72M94.8094 568.856L142.117 492.364M94.8094 455.72L47.3077 379.238M94.8094 455.72L142.117 379.238M47.3077 1061.34L94.8094 1137.91M47.3077 1061.34V948.094M47.3077 1061.34L0 1137.91V1024.65L47.3077 948.094M94.8094 1137.91V1024.65M94.8094 1137.91L142.117 1061.34M94.8094 1024.65L47.3077 948.094M94.8094 1024.65L142.117 948.094M47.3077 1630.27L94.8094 1706.76M47.3077 1630.27V1517.14M47.3077 1630.27L0 1706.76V1593.63L47.3077 1517.14M94.8094 1706.76V1593.63M94.8094 1706.76L142.117 1630.27M94.8094 1593.63L47.3077 1517.14M94.8094 1593.63L142.117 1517.14M47.3077 2009.51L94.8094 2086M47.3077 2009.51V1896.38M47.3077 2009.51L0 2086V1972.86L47.3077 1896.38M94.8094 2086V1972.86M94.8094 2086L142.117 2009.51M94.8094 1972.86L47.3077 1896.38M94.8094 1972.86L142.117 1896.38M804.619 113.127L852.121 189.619M804.619 113.127V0.000244141M804.619 113.127L757.312 189.619V76.483L804.619 0.000244141M852.121 189.619V76.483M852.121 189.619L899.623 113.127M852.121 76.483L804.619 0.000244141M852.121 76.483L899.623 0.000244141M804.619 681.983L852.121 758.475M804.619 681.983V568.856M804.619 681.983L757.312 758.475V645.339L804.619 568.856M852.121 758.475V645.339M852.121 758.475L899.623 681.983M852.121 645.339L804.619 568.856M852.121 645.339L899.623 568.856M804.619 1251.03L852.121 1327.53M804.619 1251.03V1137.91M804.619 1251.03L757.312 1327.53V1214.39L804.619 1137.91M852.121 1327.53V1214.39M852.121 1327.53L899.623 1251.03M852.121 1214.39L804.619 1137.91M852.121 1214.39L899.623 1137.91M804.619 302.746L852.121 379.238M804.619 302.746V189.619M804.619 302.746L757.312 379.238V266.102L804.619 189.619M852.121 379.238V266.102M852.121 379.238L899.623 302.746M852.121 266.102L804.619 189.619M852.121 266.102L899.623 189.619M804.619 871.602L852.121 948.094M804.619 871.602V758.475M804.619 871.602L757.312 948.094V834.958L804.619 758.475M852.121 948.094V834.958M852.121 948.094L899.623 871.602M852.121 834.958L804.619 758.475M852.121 834.958L899.623 758.475M804.619 1440.65L852.121 1517.14M804.619 1440.65V1327.53M804.619 1440.65L757.312 1517.14V1404.01L804.619 1327.53M852.121 1517.14V1404.01M852.121 1517.14L899.623 1440.65M852.121 1404.01L804.619 1327.53M852.121 1404.01L899.623 1327.53M804.619 1819.89L852.121 1896.38M804.619 1819.89V1706.76M804.619 1819.89L757.312 1896.38V1783.25L804.619 1706.76M852.121 1896.38V1783.25M852.121 1896.38L899.623 1819.89M852.121 1783.25L804.619 1706.76M852.121 1783.25L899.623 1706.76M804.619 492.364L852.121 568.856M804.619 492.364V379.238M804.619 492.364L757.312 568.856V455.72L804.619 379.238M852.121 568.856V455.72M852.121 568.856L899.623 492.364M852.121 455.72L804.619 379.238M852.121 455.72L899.623 379.238M804.619 1061.34L852.121 1137.91M804.619 1061.34V948.094M804.619 1061.34L757.312 1137.91V1024.65L804.619 948.094M852.121 1137.91V1024.65M852.121 1137.91L899.623 1061.34M852.121 1024.65L804.619 948.094M852.121 1024.65L899.623 948.094M804.619 1630.27L852.121 1706.76M804.619 1630.27V1517.14M804.619 1630.27L757.312 1706.76V1593.63L804.619 1517.14M852.121 1706.76V1593.63M852.121 1706.76L899.623 1630.27M852.121 1593.63L804.619 1517.14M852.121 1593.63L899.623 1517.14M804.619 2009.51L852.121 2086M804.619 2009.51V1896.38M804.619 2009.51L757.312 2086V1972.86L804.619 1896.38M852.121 2086V1972.86M852.121 2086L899.623 2009.51M852.121 1972.86L804.619 1896.38M852.121 1972.86L899.623 1896.38M425.964 113.127L473.465 189.619M425.964 113.127V0.000244141M425.964 113.127L378.656 189.619V76.483L425.964 0.000244141M473.465 189.619V76.483M473.465 189.619L520.773 113.127M473.465 76.483L425.964 0.000244141M473.465 76.483L520.773 0.000244141M425.964 681.983L473.465 758.475M425.964 681.983V568.856M425.964 681.983L378.656 758.475V645.339L425.964 568.856M473.465 758.475V645.339M473.465 758.475L520.773 681.983M473.465 645.339L425.964 568.856M473.465 645.339L520.773 568.856M425.964 1251.03L473.465 1327.53M425.964 1251.03V1137.91M425.964 1251.03L378.656 1327.53V1214.39L425.964 1137.91M473.465 1327.53V1214.39M473.465 1327.53L520.773 1251.03M473.465 1214.39L425.964 1137.91M473.465 1214.39L520.773 1137.91M425.964 302.746L473.465 379.238M425.964 302.746V189.619M425.964 302.746L378.656 379.238V266.102L425.964 189.619M473.465 379.238V266.102M473.465 379.238L520.773 302.746M473.465 266.102L425.964 189.619M473.465 266.102L520.773 189.619M425.964 871.602L473.465 948.094M425.964 871.602V758.475M425.964 871.602L378.656 948.094V834.958L425.964 758.475M473.465 948.094V834.958M473.465 948.094L520.773 871.602M473.465 834.958L425.964 758.475M473.465 834.958L520.773 758.475M425.964 1440.65L473.465 1517.14M425.964 1440.65V1327.53M425.964 1440.65L378.656 1517.14V1404.01L425.964 1327.53M473.465 1517.14V1404.01M473.465 1517.14L520.773 1440.65M473.465 1404.01L425.964 1327.53M473.465 1404.01L520.773 1327.53M425.964 1819.89L473.465 1896.38M425.964 1819.89V1706.76M425.964 1819.89L378.656 1896.38V1783.25L425.964 1706.76M473.465 1896.38V1783.25M473.465 1896.38L520.773 1819.89M473.465 1783.25L425.964 1706.76M473.465 1783.25L520.773 1706.76M425.964 492.364L473.465 568.856M425.964 492.364V379.238M425.964 492.364L378.656 568.856V455.72L425.964 379.238M473.465 568.856V455.72M473.465 568.856L520.773 492.364M473.465 455.72L425.964 379.238M473.465 455.72L520.773 379.238M425.964 1061.34L473.465 1137.91M425.964 1061.34V948.094M425.964 1061.34L378.656 1137.91V1024.65L425.964 948.094M473.465 1137.91V1024.65M473.465 1137.91L520.773 1061.34M473.465 1024.65L425.964 948.094M473.465 1024.65L520.773 948.094M425.964 1630.27L473.465 1706.76M425.964 1630.27V1517.14M425.964 1630.27L378.656 1706.76V1593.63L425.964 1517.14M473.465 1706.76V1593.63M473.465 1706.76L520.773 1630.27M473.465 1593.63L425.964 1517.14M473.465 1593.63L520.773 1517.14M425.964 2009.51L473.465 2086M425.964 2009.51V1896.38M425.964 2009.51L378.656 2086V1972.86L425.964 1896.38M473.465 2086V1972.86M473.465 2086L520.773 2009.51M473.465 1972.86L425.964 1896.38M473.465 1972.86L520.773 1896.38M1183.47 113.127L1230.97 189.619V76.483L1183.47 0.000244141M1183.47 113.127V0.000244141M1183.47 113.127L1135.97 189.619V76.483L1183.47 0.000244141M1183.47 681.983L1230.97 758.475V645.339L1183.47 568.856M1183.47 681.983V568.856M1183.47 681.983L1135.97 758.475V645.339L1183.47 568.856M1183.47 1251.03L1230.97 1327.53V1214.39L1183.47 1137.91M1183.47 1251.03V1137.91M1183.47 1251.03L1135.97 1327.53V1214.39L1183.47 1137.91M1183.47 302.746L1230.97 379.238V266.102L1183.47 189.619M1183.47 302.746V189.619M1183.47 302.746L1135.97 379.238V266.102L1183.47 189.619M1183.47 871.602L1230.97 948.094V834.958L1183.47 758.475M1183.47 871.602V758.475M1183.47 871.602L1135.97 948.094V834.958L1183.47 758.475M1183.47 1440.65L1230.97 1517.14V1404.01L1183.47 1327.53M1183.47 1440.65V1327.53M1183.47 1440.65L1135.97 1517.14V1404.01L1183.47 1327.53M1183.47 1819.89L1230.97 1896.38V1783.25L1183.47 1706.76M1183.47 1819.89V1706.76M1183.47 1819.89L1135.97 1896.38V1783.25L1183.47 1706.76M1183.47 492.364L1230.97 568.856V455.72L1183.47 379.238M1183.47 492.364V379.238M1183.47 492.364L1135.97 568.856V455.72L1183.47 379.238M1183.47 1061.34L1230.97 1137.91V1024.65L1183.47 948.094M1183.47 1061.34V948.094M1183.47 1061.34L1135.97 1137.91V1024.65L1183.47 948.094M1183.47 1630.27L1230.97 1706.76V1593.63L1183.47 1517.14M1183.47 1630.27V1517.14M1183.47 1630.27L1135.97 1706.76V1593.63L1183.47 1517.14M1183.47 2009.51L1230.97 2086V1972.86L1183.47 1896.38M1183.47 2009.51V1896.38M1183.47 2009.51L1135.97 2086V1972.86L1183.47 1896.38M1656.93 113.127L1704.44 189.619V76.483L1656.93 0.000244141M1656.93 113.127V0.000244141M1656.93 113.127L1609.63 189.619V76.483L1656.93 0.000244141M1656.93 681.983L1704.44 758.475V645.339L1656.93 568.856M1656.93 681.983V568.856M1656.93 681.983L1609.63 758.475V645.339L1656.93 568.856M1656.93 1251.03L1704.44 1327.53V1214.39L1656.93 1137.91M1656.93 1251.03V1137.91M1656.93 1251.03L1609.63 1327.53V1214.39L1656.93 1137.91M1656.93 302.746L1704.44 379.238V266.102L1656.93 189.619M1656.93 302.746V189.619M1656.93 302.746L1609.63 379.238V266.102L1656.93 189.619M1656.93 871.602L1704.44 948.094V834.958L1656.93 758.475M1656.93 871.602V758.475M1656.93 871.602L1609.63 948.094V834.958L1656.93 758.475M1656.93 1440.65L1704.44 1517.14V1404.01L1656.93 1327.53M1656.93 1440.65V1327.53M1656.93 1440.65L1609.63 1517.14V1404.01L1656.93 1327.53M1656.93 1819.89L1704.44 1896.38V1783.25L1656.93 1706.76M1656.93 1819.89V1706.76M1656.93 1819.89L1609.63 1896.38V1783.25L1656.93 1706.76M1656.93 492.364L1704.44 568.856V455.72L1656.93 379.238M1656.93 492.364V379.238M1656.93 492.364L1609.63 568.856V455.72L1656.93 379.238M1656.93 1061.34L1704.44 1137.91V1024.65L1656.93 948.094M1656.93 1061.34V948.094M1656.93 1061.34L1609.63 1137.91V1024.65L1656.93 948.094M1656.93 1630.27L1704.44 1706.76V1593.63L1656.93 1517.14M1656.93 1630.27V1517.14M1656.93 1630.27L1609.63 1706.76V1593.63L1656.93 1517.14M1656.93 2009.51L1704.44 2086V1972.86L1656.93 1896.38M1656.93 2009.51V1896.38M1656.93 2009.51L1609.63 2086V1972.86L1656.93 1896.38M236.733 113.127L284.234 189.619V76.483L236.733 0.000244141M236.733 113.127V0.000244141M236.733 113.127L189.425 189.619V76.483L236.733 0.000244141M236.733 681.983L284.234 758.475V645.339L236.733 568.856M236.733 681.983V568.856M236.733 681.983L189.425 758.475V645.339L236.733 568.856M236.733 1251.03L284.234 1327.53V1214.39L236.733 1137.91M236.733 1251.03V1137.91M236.733 1251.03L189.425 1327.53V1214.39L236.733 1137.91M236.733 302.746L284.234 379.238V266.102L236.733 189.619M236.733 302.746V189.619M236.733 302.746L189.425 379.238V266.102L236.733 189.619M236.733 871.602L284.234 948.094V834.958L236.733 758.475M236.733 871.602V758.475M236.733 871.602L189.425 948.094V834.958L236.733 758.475M236.733 1440.65L284.234 1517.14V1404.01L236.733 1327.53M236.733 1440.65V1327.53M236.733 1440.65L189.425 1517.14V1404.01L236.733 1327.53M236.733 1819.89L284.234 1896.38V1783.25L236.733 1706.76M236.733 1819.89V1706.76M236.733 1819.89L189.425 1896.38V1783.25L236.733 1706.76M236.733 492.364L284.234 568.856V455.72L236.733 379.238M236.733 492.364V379.238M236.733 492.364L189.425 568.856V455.72L236.733 379.238M236.733 1061.34L284.234 1137.91V1024.65L236.733 948.094M236.733 1061.34V948.094M236.733 1061.34L189.425 1137.91V1024.65L236.733 948.094M236.733 1630.27L284.234 1706.76V1593.63L236.733 1517.14M236.733 1630.27V1517.14M236.733 1630.27L189.425 1706.76V1593.63L236.733 1517.14M236.733 2009.51L284.234 2086V1972.86L236.733 1896.38M236.733 2009.51V1896.38M236.733 2009.51L189.425 2086V1972.86L236.733 1896.38M993.85 113.127L1041.55 189.619V76.483L993.85 0.000244141M993.85 113.127V0.000244141M993.85 113.127L946.543 189.619V76.483L993.85 0.000244141M993.85 681.983L1041.55 758.475V645.339L993.85 568.856M993.85 681.983V568.856M993.85 681.983L946.543 758.475V645.339L993.85 568.856M993.85 1251.03L1041.55 1327.53V1214.39L993.85 1137.91M993.85 1251.03V1137.91M993.85 1251.03L946.543 1327.53V1214.39L993.85 1137.91M993.85 302.746L1041.55 379.238V266.102L993.85 189.619M993.85 302.746V189.619M993.85 302.746L946.543 379.238V266.102L993.85 189.619M993.85 871.602L1041.55 948.094V834.958L993.85 758.475M993.85 871.602V758.475M993.85 871.602L946.543 948.094V834.958L993.85 758.475M993.85 1440.65L1041.55 1517.14V1404.01L993.85 1327.53M993.85 1440.65V1327.53M993.85 1440.65L946.543 1517.14V1404.01L993.85 1327.53M993.85 1819.89L1041.55 1896.38V1783.25L993.85 1706.76M993.85 1819.89V1706.76M993.85 1819.89L946.543 1896.38V1783.25L993.85 1706.76M993.85 492.364L1041.55 568.856V455.72L993.85 379.238M993.85 492.364V379.238M993.85 492.364L946.543 568.856V455.72L993.85 379.238M993.85 1061.34L1041.55 1137.91V1024.65L993.85 948.094M993.85 1061.34V948.094M993.85 1061.34L946.543 1137.91V1024.65L993.85 948.094M993.85 1630.27L1041.55 1706.76V1593.63L993.85 1517.14M993.85 1630.27V1517.14M993.85 1630.27L946.543 1706.76V1593.63L993.85 1517.14M993.85 2009.51L1041.55 2086V1972.86L993.85 1896.38M993.85 2009.51V1896.38M993.85 2009.51L946.543 2086V1972.86L993.85 1896.38M615.388 113.127L662.89 189.619V76.483L615.388 0.000244141M615.388 113.127V0.000244141M615.388 113.127L567.887 189.619V76.483L615.388 0.000244141M615.388 681.983L662.89 758.475V645.339L615.388 568.856M615.388 681.983V568.856M615.388 681.983L567.887 758.475V645.339L615.388 568.856M615.388 1251.03L662.89 1327.53V1214.39L615.388 1137.91M615.388 1251.03V1137.91M615.388 1251.03L567.887 1327.53V1214.39L615.388 1137.91M615.388 302.746L662.89 379.238V266.102L615.388 189.619M615.388 302.746V189.619M615.388 302.746L567.887 379.238V266.102L615.388 189.619M615.388 871.602L662.89 948.094V834.958L615.388 758.475M615.388 871.602V758.475M615.388 871.602L567.887 948.094V834.958L615.388 758.475M615.388 1440.65L662.89 1517.14V1404.01L615.388 1327.53M615.388 1440.65V1327.53M615.388 1440.65L567.887 1517.14V1404.01L615.388 1327.53M615.388 1819.89L662.89 1896.38V1783.25L615.388 1706.76M615.388 1819.89V1706.76M615.388 1819.89L567.887 1896.38V1783.25L615.388 1706.76M615.388 492.364L662.89 568.856V455.72L615.388 379.238M615.388 492.364V379.238M615.388 492.364L567.887 568.856V455.72L615.388 379.238M615.388 1061.34L662.89 1137.91V1024.65L615.388 948.094M615.388 1061.34V948.094M615.388 1061.34L567.887 1137.91V1024.65L615.388 948.094M615.388 1630.27L662.89 1706.76V1593.63L615.388 1517.14M615.388 1630.27V1517.14M615.388 1630.27L567.887 1706.76V1593.63L615.388 1517.14M615.388 2009.51L662.89 2086V1972.86L615.388 1896.38M615.388 2009.51V1896.38M615.388 2009.51L567.887 2086V1972.86L615.388 1896.38M1372.7 113.127L1420.2 189.619M1372.7 113.127V0.000244141M1372.7 113.127L1325.2 189.619V76.483L1372.7 0.000244141M1420.2 189.619V76.483M1420.2 189.619L1467.51 113.127M1420.2 76.483L1372.7 0.000244141M1420.2 76.483L1467.51 0.000244141M1372.7 681.983L1420.2 758.475M1372.7 681.983V568.856M1372.7 681.983L1325.2 758.475V645.339L1372.7 568.856M1420.2 758.475V645.339M1420.2 758.475L1467.51 681.983M1420.2 645.339L1372.7 568.856M1420.2 645.339L1467.51 568.856M1372.7 1251.03L1420.2 1327.53M1372.7 1251.03V1137.91M1372.7 1251.03L1325.2 1327.53V1214.39L1372.7 1137.91M1420.2 1327.53V1214.39M1420.2 1327.53L1467.51 1251.03M1420.2 1214.39L1372.7 1137.91M1420.2 1214.39L1467.51 1137.91M1372.7 302.746L1420.2 379.238M1372.7 302.746V189.619M1372.7 302.746L1325.2 379.238V266.102L1372.7 189.619M1420.2 379.238V266.102M1420.2 379.238L1467.51 302.746M1420.2 266.102L1372.7 189.619M1420.2 266.102L1467.51 189.619M1372.7 871.602L1420.2 948.094M1372.7 871.602V758.475M1372.7 871.602L1325.2 948.094V834.958L1372.7 758.475M1420.2 948.094V834.958M1420.2 948.094L1467.51 871.602M1420.2 834.958L1372.7 758.475M1420.2 834.958L1467.51 758.475M1372.7 1440.65L1420.2 1517.14M1372.7 1440.65V1327.53M1372.7 1440.65L1325.2 1517.14V1404.01L1372.7 1327.53M1420.2 1517.14V1404.01M1420.2 1517.14L1467.51 1440.65M1420.2 1404.01L1372.7 1327.53M1420.2 1404.01L1467.51 1327.53M1372.7 1819.89L1420.2 1896.38M1372.7 1819.89V1706.76M1372.7 1819.89L1325.2 1896.38V1783.25L1372.7 1706.76M1420.2 1896.38V1783.25M1420.2 1896.38L1467.51 1819.89M1420.2 1783.25L1372.7 1706.76M1420.2 1783.25L1467.51 1706.76M1372.7 492.364L1420.2 568.856M1372.7 492.364V379.238M1372.7 492.364L1325.2 568.856V455.72L1372.7 379.238M1420.2 568.856V455.72M1420.2 568.856L1467.51 492.364M1420.2 455.72L1372.7 379.238M1420.2 455.72L1467.51 379.238M1372.7 1061.34L1420.2 1137.91M1372.7 1061.34V948.094M1372.7 1061.34L1325.2 1137.91V1024.65L1372.7 948.094M1420.2 1137.91V1024.65M1420.2 1137.91L1467.51 1061.34M1420.2 1024.65L1372.7 948.094M1420.2 1024.65L1467.51 948.094M1372.7 1630.27L1420.2 1706.76M1372.7 1630.27V1517.14M1372.7 1630.27L1325.2 1706.76V1593.63L1372.7 1517.14M1420.2 1706.76V1593.63M1420.2 1706.76L1467.51 1630.27M1420.2 1593.63L1372.7 1517.14M1420.2 1593.63L1467.51 1517.14M1372.7 2009.51L1420.2 2086M1372.7 2009.51V1896.38M1372.7 2009.51L1325.2 2086V1972.86L1372.7 1896.38M1420.2 2086V1972.86M1420.2 2086L1467.51 2009.51M1420.2 1972.86L1372.7 1896.38M1420.2 1972.86L1467.51 1896.38M1846.17 113.127L1893.67 189.619M1846.17 113.127V0.000244141M1846.17 113.127L1798.86 189.619V76.483L1846.17 0.000244141M1893.67 189.619V76.483M1893.67 189.619L1941.17 113.127M1893.67 76.483L1846.17 0.000244141M1893.67 76.483L1941.17 0.000244141M1846.17 681.983L1893.67 758.475M1846.17 681.983V568.856M1846.17 681.983L1798.86 758.475V645.339L1846.17 568.856M1893.67 758.475V645.339M1893.67 758.475L1941.17 681.983M1893.67 645.339L1846.17 568.856M1893.67 645.339L1941.17 568.856M1846.17 1251.03L1893.67 1327.53M1846.17 1251.03V1137.91M1846.17 1251.03L1798.86 1327.53V1214.39L1846.17 1137.91M1893.67 1327.53V1214.39M1893.67 1327.53L1941.17 1251.03M1893.67 1214.39L1846.17 1137.91M1893.67 1214.39L1941.17 1137.91M1846.17 302.746L1893.67 379.238M1846.17 302.746V189.619M1846.17 302.746L1798.86 379.238V266.102L1846.17 189.619M1893.67 379.238V266.102M1893.67 379.238L1941.17 302.746M1893.67 266.102L1846.17 189.619M1893.67 266.102L1941.17 189.619M1846.17 871.602L1893.67 948.094M1846.17 871.602V758.475M1846.17 871.602L1798.86 948.094V834.958L1846.17 758.475M1893.67 948.094V834.958M1893.67 948.094L1941.17 871.602M1893.67 834.958L1846.17 758.475M1893.67 834.958L1941.17 758.475M1846.17 1440.65L1893.67 1517.14M1846.17 1440.65V1327.53M1846.17 1440.65L1798.86 1517.14V1404.01L1846.17 1327.53M1893.67 1517.14V1404.01M1893.67 1517.14L1941.17 1440.65M1893.67 1404.01L1846.17 1327.53M1893.67 1404.01L1941.17 1327.53M1846.17 1819.89L1893.67 1896.38M1846.17 1819.89V1706.76M1846.17 1819.89L1798.86 1896.38V1783.25L1846.17 1706.76M1893.67 1896.38V1783.25M1893.67 1896.38L1941.17 1819.89M1893.67 1783.25L1846.17 1706.76M1893.67 1783.25L1941.17 1706.76M1846.17 492.364L1893.67 568.856M1846.17 492.364V379.238M1846.17 492.364L1798.86 568.856V455.72L1846.17 379.238M1893.67 568.856V455.72M1893.67 568.856L1941.17 492.364M1893.67 455.72L1846.17 379.238M1893.67 455.72L1941.17 379.238M1846.17 1061.34L1893.67 1137.91M1846.17 1061.34V948.094M1846.17 1061.34L1798.86 1137.91V1024.65L1846.17 948.094M1893.67 1137.91V1024.65M1893.67 1137.91L1941.17 1061.34M1893.67 1024.65L1846.17 948.094M1893.67 1024.65L1941.17 948.094M1846.17 1630.27L1893.67 1706.76M1846.17 1630.27V1517.14M1846.17 1630.27L1798.86 1706.76V1593.63L1846.17 1517.14M1893.67 1706.76V1593.63M1893.67 1706.76L1941.17 1630.27M1893.67 1593.63L1846.17 1517.14M1893.67 1593.63L1941.17 1517.14M1846.17 2009.51L1893.67 2086M1846.17 2009.51V1896.38M1846.17 2009.51L1798.86 2086V1972.86L1846.17 1896.38M1893.67 2086V1972.86M1893.67 2086L1941.17 2009.51M1893.67 1972.86L1846.17 1896.38M1893.67 1972.86L1941.17 1896.38M142.117 113.127L189.619 189.619V76.483L142.117 0.000244141M142.117 113.127V0.000244141M142.117 681.983L189.619 758.475V645.339L142.117 568.856M142.117 681.983V568.856M142.117 1251.03L189.619 1327.53V1214.39L142.117 1137.91M142.117 1251.03V1137.91M142.117 302.746L189.619 379.238V266.102L142.117 189.619M142.117 302.746V189.619M142.117 871.602L189.619 948.094V834.958L142.117 758.475M142.117 871.602V758.475M142.117 1440.65L189.619 1517.14V1404.01L142.117 1327.53M142.117 1440.65V1327.53M142.117 1819.89L189.619 1896.38V1783.25L142.117 1706.76M142.117 1819.89V1706.76M142.117 492.364L189.619 568.856V455.72L142.117 379.238M142.117 492.364V379.238M142.117 1061.34L189.619 1137.91V1024.65L142.117 948.094M142.117 1061.34V948.094M142.117 1630.27L189.619 1706.76V1593.63L142.117 1517.14M142.117 1630.27V1517.14M142.117 2009.51L189.619 2086V1972.86L142.117 1896.38M142.117 2009.51V1896.38M899.623 113.127L946.93 189.619V76.483L899.623 0.000244141M899.623 113.127V0.000244141M899.623 681.983L946.93 758.475V645.339L899.623 568.856M899.623 681.983V568.856M899.623 1251.03L946.93 1327.53V1214.39L899.623 1137.91M899.623 1251.03V1137.91M899.623 302.746L946.93 379.238V266.102L899.623 189.619M899.623 302.746V189.619M899.623 871.602L946.93 948.094V834.958L899.623 758.475M899.623 871.602V758.475M899.623 1440.65L946.93 1517.14V1404.01L899.623 1327.53M899.623 1440.65V1327.53M899.623 1819.89L946.93 1896.38V1783.25L899.623 1706.76M899.623 1819.89V1706.76M899.623 492.364L946.93 568.856V455.72L899.623 379.238M899.623 492.364V379.238M899.623 1061.34L946.93 1137.91V1024.65L899.623 948.094M899.623 1061.34V948.094M899.623 1630.27L946.93 1706.76V1593.63L899.623 1517.14M899.623 1630.27V1517.14M899.623 2009.51L946.93 2086V1972.86L899.623 1896.38M899.623 2009.51V1896.38M520.773 113.127L568.275 189.619V76.483L520.773 0.000244141M520.773 113.127V0.000244141M520.773 681.983L568.275 758.475V645.339L520.773 568.856M520.773 681.983V568.856M520.773 1251.03L568.275 1327.53V1214.39L520.773 1137.91M520.773 1251.03V1137.91M520.773 302.746L568.275 379.238V266.102L520.773 189.619M520.773 302.746V189.619M520.773 871.602L568.275 948.094V834.958L520.773 758.475M520.773 871.602V758.475M520.773 1440.65L568.275 1517.14V1404.01L520.773 1327.53M520.773 1440.65V1327.53M520.773 1819.89L568.275 1896.38V1783.25L520.773 1706.76M520.773 1819.89V1706.76M520.773 492.364L568.275 568.856V455.72L520.773 379.238M520.773 492.364V379.238M520.773 1061.34L568.275 1137.91V1024.65L520.773 948.094M520.773 1061.34V948.094M520.773 1630.27L568.275 1706.76V1593.63L520.773 1517.14M520.773 1630.27V1517.14M520.773 2009.51L568.275 2086V1972.86L520.773 1896.38M520.773 2009.51V1896.38M1278.08 113.127L1325.59 189.619V76.483L1278.08 0.000244141M1278.08 113.127V0.000244141M1278.08 113.127L1230.78 189.619V76.483L1278.08 0.000244141M1278.08 681.983L1325.59 758.475V645.339L1278.08 568.856M1278.08 681.983V568.856M1278.08 681.983L1230.78 758.475V645.339L1278.08 568.856M1278.08 1251.03L1325.59 1327.53V1214.39L1278.08 1137.91M1278.08 1251.03V1137.91M1278.08 1251.03L1230.78 1327.53V1214.39L1278.08 1137.91M1278.08 302.746L1325.59 379.238V266.102L1278.08 189.619M1278.08 302.746V189.619M1278.08 302.746L1230.78 379.238V266.102L1278.08 189.619M1278.08 871.602L1325.59 948.094V834.958L1278.08 758.475M1278.08 871.602V758.475M1278.08 871.602L1230.78 948.094V834.958L1278.08 758.475M1278.08 1440.65L1325.59 1517.14V1404.01L1278.08 1327.53M1278.08 1440.65V1327.53M1278.08 1440.65L1230.78 1517.14V1404.01L1278.08 1327.53M1278.08 1819.89L1325.59 1896.38V1783.25L1278.08 1706.76M1278.08 1819.89V1706.76M1278.08 1819.89L1230.78 1896.38V1783.25L1278.08 1706.76M1278.08 492.364L1325.59 568.856V455.72L1278.08 379.238M1278.08 492.364V379.238M1278.08 492.364L1230.78 568.856V455.72L1278.08 379.238M1278.08 1061.34L1325.59 1137.91V1024.65L1278.08 948.094M1278.08 1061.34V948.094M1278.08 1061.34L1230.78 1137.91V1024.65L1278.08 948.094M1278.08 1630.27L1325.59 1706.76V1593.63L1278.08 1517.14M1278.08 1630.27V1517.14M1278.08 1630.27L1230.78 1706.76V1593.63L1278.08 1517.14M1278.08 2009.51L1325.59 2086V1972.86L1278.08 1896.38M1278.08 2009.51V1896.38M1278.08 2009.51L1230.78 2086V1972.86L1278.08 1896.38M1751.74 113.127L1799.25 189.619V76.483L1751.74 0.000244141M1751.74 113.127V0.000244141M1751.74 113.127L1704.24 189.619V76.483L1751.74 0.000244141M1751.74 681.983L1799.25 758.475V645.339L1751.74 568.856M1751.74 681.983V568.856M1751.74 681.983L1704.24 758.475V645.339L1751.74 568.856M1751.74 1251.03L1799.25 1327.53V1214.39L1751.74 1137.91M1751.74 1251.03V1137.91M1751.74 1251.03L1704.24 1327.53V1214.39L1751.74 1137.91M1751.74 302.746L1799.25 379.238V266.102L1751.74 189.619M1751.74 302.746V189.619M1751.74 302.746L1704.24 379.238V266.102L1751.74 189.619M1751.74 871.602L1799.25 948.094V834.958L1751.74 758.475M1751.74 871.602V758.475M1751.74 871.602L1704.24 948.094V834.958L1751.74 758.475M1751.74 1440.65L1799.25 1517.14V1404.01L1751.74 1327.53M1751.74 1440.65V1327.53M1751.74 1440.65L1704.24 1517.14V1404.01L1751.74 1327.53M1751.74 1819.89L1799.25 1896.38V1783.25L1751.74 1706.76M1751.74 1819.89V1706.76M1751.74 1819.89L1704.24 1896.38V1783.25L1751.74 1706.76M1751.74 492.364L1799.25 568.856V455.72L1751.74 379.238M1751.74 492.364V379.238M1751.74 492.364L1704.24 568.856V455.72L1751.74 379.238M1751.74 1061.34L1799.25 1137.91V1024.65L1751.74 948.094M1751.74 1061.34V948.094M1751.74 1061.34L1704.24 1137.91V1024.65L1751.74 948.094M1751.74 1630.27L1799.25 1706.76V1593.63L1751.74 1517.14M1751.74 1630.27V1517.14M1751.74 1630.27L1704.24 1706.76V1593.63L1751.74 1517.14M1751.74 2009.51L1799.25 2086V1972.86L1751.74 1896.38M1751.74 2009.51V1896.38M1751.74 2009.51L1704.24 2086V1972.86L1751.74 1896.38M331.348 113.127L379.044 189.619V76.483L331.348 0.000244141M331.348 113.127V0.000244141M331.348 113.127L284.04 189.619V76.483L331.348 0.000244141M331.348 681.983L379.044 758.475V645.339L331.348 568.856M331.348 681.983V568.856M331.348 681.983L284.04 758.475V645.339L331.348 568.856M331.348 1251.03L379.044 1327.53V1214.39L331.348 1137.91M331.348 1251.03V1137.91M331.348 1251.03L284.04 1327.53V1214.39L331.348 1137.91M331.348 302.746L379.044 379.238V266.102L331.348 189.619M331.348 302.746V189.619M331.348 302.746L284.04 379.238V266.102L331.348 189.619M331.348 871.602L379.044 948.094V834.958L331.348 758.475M331.348 871.602V758.475M331.348 871.602L284.04 948.094V834.958L331.348 758.475M331.348 1440.65L379.044 1517.14V1404.01L331.348 1327.53M331.348 1440.65V1327.53M331.348 1440.65L284.04 1517.14V1404.01L331.348 1327.53M331.348 1819.89L379.044 1896.38V1783.25L331.348 1706.76M331.348 1819.89V1706.76M331.348 1819.89L284.04 1896.38V1783.25L331.348 1706.76M331.348 492.364L379.044 568.856V455.72L331.348 379.238M331.348 492.364V379.238M331.348 492.364L284.04 568.856V455.72L331.348 379.238M331.348 1061.34L379.044 1137.91V1024.65L331.348 948.094M331.348 1061.34V948.094M331.348 1061.34L284.04 1137.91V1024.65L331.348 948.094M331.348 1630.27L379.044 1706.76V1593.63L331.348 1517.14M331.348 1630.27V1517.14M331.348 1630.27L284.04 1706.76V1593.63L331.348 1517.14M331.348 2009.51L379.044 2086V1972.86L331.348 1896.38M331.348 2009.51V1896.38M331.348 2009.51L284.04 2086V1972.86L331.348 1896.38M1088.85 113.127L1136.16 189.619V76.483L1088.85 0.000244141M1088.85 113.127V0.000244141M1088.85 113.127L1041.35 189.619V76.483L1088.85 0.000244141M1088.85 681.983L1136.16 758.475V645.339L1088.85 568.856M1088.85 681.983V568.856M1088.85 681.983L1041.35 758.475V645.339L1088.85 568.856M1088.85 1251.03L1136.16 1327.53V1214.39L1088.85 1137.91M1088.85 1251.03V1137.91M1088.85 1251.03L1041.35 1327.53V1214.39L1088.85 1137.91M1088.85 302.746L1136.16 379.238V266.102L1088.85 189.619M1088.85 302.746V189.619M1088.85 302.746L1041.35 379.238V266.102L1088.85 189.619M1088.85 871.602L1136.16 948.094V834.958L1088.85 758.475M1088.85 871.602V758.475M1088.85 871.602L1041.35 948.094V834.958L1088.85 758.475M1088.85 1440.65L1136.16 1517.14V1404.01L1088.85 1327.53M1088.85 1440.65V1327.53M1088.85 1440.65L1041.35 1517.14V1404.01L1088.85 1327.53M1088.85 1819.89L1136.16 1896.38V1783.25L1088.85 1706.76M1088.85 1819.89V1706.76M1088.85 1819.89L1041.35 1896.38V1783.25L1088.85 1706.76M1088.85 492.364L1136.16 568.856V455.72L1088.85 379.238M1088.85 492.364V379.238M1088.85 492.364L1041.35 568.856V455.72L1088.85 379.238M1088.85 1061.34L1136.16 1137.91V1024.65L1088.85 948.094M1088.85 1061.34V948.094M1088.85 1061.34L1041.35 1137.91V1024.65L1088.85 948.094M1088.85 1630.27L1136.16 1706.76V1593.63L1088.85 1517.14M1088.85 1630.27V1517.14M1088.85 1630.27L1041.35 1706.76V1593.63L1088.85 1517.14M1088.85 2009.51L1136.16 2086V1972.86L1088.85 1896.38M1088.85 2009.51V1896.38M1088.85 2009.51L1041.35 2086V1972.86L1088.85 1896.38M1562.51 113.127L1609.82 189.619V76.483L1562.51 0.000244141M1562.51 113.127V0.000244141M1562.51 113.127L1514.82 189.619M1562.51 0.000244141L1514.82 76.483M1562.51 681.983L1609.82 758.475V645.339L1562.51 568.856M1562.51 681.983V568.856M1562.51 681.983L1514.82 758.475M1562.51 568.856L1514.82 645.339M1562.51 1251.03L1609.82 1327.53V1214.39L1562.51 1137.91M1562.51 1251.03V1137.91M1562.51 1251.03L1514.82 1327.53M1562.51 1137.91L1514.82 1214.39M1562.51 302.746L1609.82 379.238V266.102L1562.51 189.619M1562.51 302.746V189.619M1562.51 302.746L1514.82 379.238M1562.51 189.619L1514.82 266.102M1562.51 871.602L1609.82 948.094V834.958L1562.51 758.475M1562.51 871.602V758.475M1562.51 871.602L1514.82 948.094M1562.51 758.475L1514.82 834.958M1562.51 1440.65L1609.82 1517.14V1404.01L1562.51 1327.53M1562.51 1440.65V1327.53M1562.51 1440.65L1514.82 1517.14M1562.51 1327.53L1514.82 1404.01M1562.51 1819.89L1609.82 1896.38V1783.25L1562.51 1706.76M1562.51 1819.89V1706.76M1562.51 1819.89L1514.82 1896.38M1562.51 1706.76L1514.82 1783.25M1562.51 492.364L1609.82 568.856V455.72L1562.51 379.238M1562.51 492.364V379.238M1562.51 492.364L1514.82 568.856M1562.51 379.238L1514.82 455.72M1562.51 1061.34L1609.82 1137.91V1024.65L1562.51 948.094M1562.51 1061.34V948.094M1562.51 1061.34L1514.82 1137.91M1562.51 948.094L1514.82 1024.65M1562.51 1630.27L1609.82 1706.76V1593.63L1562.51 1517.14M1562.51 1630.27V1517.14M1562.51 1630.27L1514.82 1706.76M1562.51 1517.14L1514.82 1593.63M1562.51 2009.51L1609.82 2086V1972.86L1562.51 1896.38M1562.51 2009.51V1896.38M1562.51 2009.51L1514.82 2086M1562.51 1896.38L1514.82 1972.86M1514.82 76.483V189.619M1514.82 76.483L1467.51 0.000244141M1514.82 189.619L1467.51 113.127M1514.82 645.339V758.475M1514.82 645.339L1467.51 568.856M1514.82 758.475L1467.51 681.983M1514.82 1214.39V1327.53M1514.82 1214.39L1467.51 1137.91M1514.82 1327.53L1467.51 1251.03M1514.82 266.102V379.238M1514.82 266.102L1467.51 189.619M1514.82 379.238L1467.51 302.746M1514.82 834.958V948.094M1514.82 834.958L1467.51 758.475M1514.82 948.094L1467.51 871.602M1514.82 1404.01V1517.14M1514.82 1404.01L1467.51 1327.53M1514.82 1517.14L1467.51 1440.65M1514.82 1783.25V1896.38M1514.82 1783.25L1467.51 1706.76M1514.82 1896.38L1467.51 1819.89M1514.82 455.72V568.856M1514.82 455.72L1467.51 379.238M1514.82 568.856L1467.51 492.364M1514.82 1024.65V1137.91M1514.82 1024.65L1467.51 948.094M1514.82 1137.91L1467.51 1061.34M1514.82 1593.63V1706.76M1514.82 1593.63L1467.51 1517.14M1514.82 1706.76L1467.51 1630.27M1514.82 1972.86V2086M1514.82 1972.86L1467.51 1896.38M1514.82 2086L1467.51 2009.51M710.198 113.127L757.505 189.619V76.483L710.198 0.000244141M710.198 113.127V0.000244141M710.198 113.127L662.696 189.619V76.483L710.198 0.000244141M710.198 681.983L757.505 758.475V645.339L710.198 568.856M710.198 681.983V568.856M710.198 681.983L662.696 758.475V645.339L710.198 568.856M710.198 1251.03L757.505 1327.53V1214.39L710.198 1137.91M710.198 1251.03V1137.91M710.198 1251.03L662.696 1327.53V1214.39L710.198 1137.91M710.198 302.746L757.505 379.238V266.102L710.198 189.619M710.198 302.746V189.619M710.198 302.746L662.696 379.238V266.102L710.198 189.619M710.198 871.602L757.505 948.094V834.958L710.198 758.475M710.198 871.602V758.475M710.198 871.602L662.696 948.094V834.958L710.198 758.475M710.198 1440.65L757.505 1517.14V1404.01L710.198 1327.53M710.198 1440.65V1327.53M710.198 1440.65L662.696 1517.14V1404.01L710.198 1327.53M710.198 1819.89L757.505 1896.38V1783.25L710.198 1706.76M710.198 1819.89V1706.76M710.198 1819.89L662.696 1896.38V1783.25L710.198 1706.76M710.198 492.364L757.505 568.856V455.72L710.198 379.238M710.198 492.364V379.238M710.198 492.364L662.696 568.856V455.72L710.198 379.238M710.198 1061.34L757.505 1137.91V1024.65L710.198 948.094M710.198 1061.34V948.094M710.198 1061.34L662.696 1137.91V1024.65L710.198 948.094M710.198 1630.27L757.505 1706.76V1593.63L710.198 1517.14M710.198 1630.27V1517.14M710.198 1630.27L662.696 1706.76V1593.63L710.198 1517.14M710.198 2009.51L757.505 2086V1972.86L710.198 1896.38M710.198 2009.51V1896.38M710.198 2009.51L662.696 2086V1972.86L710.198 1896.38M1467.51 113.127V0.000244141M1467.51 681.983V568.856M1467.51 1251.03V1137.91M1467.51 302.746V189.619M1467.51 871.602V758.475M1467.51 1440.65V1327.53M1467.51 1819.89V1706.76M1467.51 492.364V379.238M1467.51 1061.34V948.094M1467.51 1630.27V1517.14M1467.51 2009.51V1896.38M1941.17 113.127L1988.48 189.619V76.483L1941.17 0.000244141M1941.17 113.127V0.000244141M1941.17 681.983L1988.48 758.475V645.339L1941.17 568.856M1941.17 681.983V568.856M1941.17 1251.03L1988.48 1327.53V1214.39L1941.17 1137.91M1941.17 1251.03V1137.91M1941.17 302.746L1988.48 379.238V266.102L1941.17 189.619M1941.17 302.746V189.619M1941.17 871.602L1988.48 948.094V834.958L1941.17 758.475M1941.17 871.602V758.475M1941.17 1440.65L1988.48 1517.14V1404.01L1941.17 1327.53M1941.17 1440.65V1327.53M1941.17 1819.89L1988.48 1896.38V1783.25L1941.17 1706.76M1941.17 1819.89V1706.76M1941.17 492.364L1988.48 568.856V455.72L1941.17 379.238M1941.17 492.364V379.238M1941.17 1061.34L1988.48 1137.91V1024.65L1941.17 948.094M1941.17 1061.34V948.094M1941.17 1630.27L1988.48 1706.76V1593.63L1941.17 1517.14M1941.17 1630.27V1517.14M1941.17 2009.51L1988.48 2086V1972.86L1941.17 1896.38M1941.17 2009.51V1896.38" stroke="white" stroke-width="1.93884" stroke-miterlimit="10"/>
</svg>
