<svg width="1920" height="2092" viewBox="0 0 1920 2092" fill="none" xmlns="http://www.w3.org/2000/svg">
<path opacity="0.16" d="M47.3077 115.127L94.8094 191.619M47.3077 115.127V2.00024M47.3077 115.127L0 191.619V78.483L47.3077 2.00024M94.8094 191.619V78.483M94.8094 191.619L142.117 115.127M94.8094 78.483L47.3077 2.00024M94.8094 78.483L142.117 2.00024M47.3077 683.983L94.8094 760.475M47.3077 683.983V570.856M47.3077 683.983L0 760.475V647.339L47.3077 570.856M94.8094 760.475V647.339M94.8094 760.475L142.117 683.983M94.8094 647.339L47.3077 570.856M94.8094 647.339L142.117 570.856M47.3077 1253.03L94.8094 1329.53M47.3077 1253.03V1139.91M47.3077 1253.03L0 1329.53V1216.39L47.3077 1139.91M94.8094 1329.53V1216.39M94.8094 1329.53L142.117 1253.03M94.8094 1216.39L47.3077 1139.91M94.8094 1216.39L142.117 1139.91M47.3077 304.746L94.8094 381.238M47.3077 304.746V191.619M47.3077 304.746L0 381.238V268.102L47.3077 191.619M94.8094 381.238V268.102M94.8094 381.238L142.117 304.746M94.8094 268.102L47.3077 191.619M94.8094 268.102L142.117 191.619M47.3077 873.602L94.8094 950.094M47.3077 873.602V760.475M47.3077 873.602L0 950.094V836.958L47.3077 760.475M94.8094 950.094V836.958M94.8094 950.094L142.117 873.602M94.8094 836.958L47.3077 760.475M94.8094 836.958L142.117 760.475M47.3077 1442.65L94.8094 1519.14M47.3077 1442.65V1329.53M47.3077 1442.65L0 1519.14V1406.01L47.3077 1329.53M94.8094 1519.14V1406.01M94.8094 1519.14L142.117 1442.65M94.8094 1406.01L47.3077 1329.53M94.8094 1406.01L142.117 1329.53M47.3077 1821.89L94.8094 1898.38M47.3077 1821.89V1708.76M47.3077 1821.89L0 1898.38V1785.25L47.3077 1708.76M94.8094 1898.38V1785.25M94.8094 1898.38L142.117 1821.89M94.8094 1785.25L47.3077 1708.76M94.8094 1785.25L142.117 1708.76M47.3077 494.364L94.8094 570.856M47.3077 494.364V381.238M47.3077 494.364L0 570.856V457.72L47.3077 381.238M94.8094 570.856V457.72M94.8094 570.856L142.117 494.364M94.8094 457.72L47.3077 381.238M94.8094 457.72L142.117 381.238M47.3077 1063.34L94.8094 1139.91M47.3077 1063.34V950.094M47.3077 1063.34L0 1139.91V1026.65L47.3077 950.094M94.8094 1139.91V1026.65M94.8094 1139.91L142.117 1063.34M94.8094 1026.65L47.3077 950.094M94.8094 1026.65L142.117 950.094M47.3077 1632.27L94.8094 1708.76M47.3077 1632.27V1519.14M47.3077 1632.27L0 1708.76V1595.63L47.3077 1519.14M94.8094 1708.76V1595.63M94.8094 1708.76L142.117 1632.27M94.8094 1595.63L47.3077 1519.14M94.8094 1595.63L142.117 1519.14M47.3077 2011.51L94.8094 2088M47.3077 2011.51V1898.38M47.3077 2011.51L0 2088V1974.86L47.3077 1898.38M94.8094 2088V1974.86M94.8094 2088L142.117 2011.51M94.8094 1974.86L47.3077 1898.38M94.8094 1974.86L142.117 1898.38M804.619 115.127L852.121 191.619M804.619 115.127V2.00024M804.619 115.127L757.312 191.619V78.483L804.619 2.00024M852.121 191.619V78.483M852.121 191.619L899.623 115.127M852.121 78.483L804.619 2.00024M852.121 78.483L899.623 2.00024M804.619 683.983L852.121 760.475M804.619 683.983V570.856M804.619 683.983L757.312 760.475V647.339L804.619 570.856M852.121 760.475V647.339M852.121 760.475L899.623 683.983M852.121 647.339L804.619 570.856M852.121 647.339L899.623 570.856M804.619 1253.03L852.121 1329.53M804.619 1253.03V1139.91M804.619 1253.03L757.312 1329.53V1216.39L804.619 1139.91M852.121 1329.53V1216.39M852.121 1329.53L899.623 1253.03M852.121 1216.39L804.619 1139.91M852.121 1216.39L899.623 1139.91M804.619 304.746L852.121 381.238M804.619 304.746V191.619M804.619 304.746L757.312 381.238V268.102L804.619 191.619M852.121 381.238V268.102M852.121 381.238L899.623 304.746M852.121 268.102L804.619 191.619M852.121 268.102L899.623 191.619M804.619 873.602L852.121 950.094M804.619 873.602V760.475M804.619 873.602L757.312 950.094V836.958L804.619 760.475M852.121 950.094V836.958M852.121 950.094L899.623 873.602M852.121 836.958L804.619 760.475M852.121 836.958L899.623 760.475M804.619 1442.65L852.121 1519.14M804.619 1442.65V1329.53M804.619 1442.65L757.312 1519.14V1406.01L804.619 1329.53M852.121 1519.14V1406.01M852.121 1519.14L899.623 1442.65M852.121 1406.01L804.619 1329.53M852.121 1406.01L899.623 1329.53M804.619 1821.89L852.121 1898.38M804.619 1821.89V1708.76M804.619 1821.89L757.312 1898.38V1785.25L804.619 1708.76M852.121 1898.38V1785.25M852.121 1898.38L899.623 1821.89M852.121 1785.25L804.619 1708.76M852.121 1785.25L899.623 1708.76M804.619 494.364L852.121 570.856M804.619 494.364V381.238M804.619 494.364L757.312 570.856V457.72L804.619 381.238M852.121 570.856V457.72M852.121 570.856L899.623 494.364M852.121 457.72L804.619 381.238M852.121 457.72L899.623 381.238M804.619 1063.34L852.121 1139.91M804.619 1063.34V950.094M804.619 1063.34L757.312 1139.91V1026.65L804.619 950.094M852.121 1139.91V1026.65M852.121 1139.91L899.623 1063.34M852.121 1026.65L804.619 950.094M852.121 1026.65L899.623 950.094M804.619 1632.27L852.121 1708.76M804.619 1632.27V1519.14M804.619 1632.27L757.312 1708.76V1595.63L804.619 1519.14M852.121 1708.76V1595.63M852.121 1708.76L899.623 1632.27M852.121 1595.63L804.619 1519.14M852.121 1595.63L899.623 1519.14M804.619 2011.51L852.121 2088M804.619 2011.51V1898.38M804.619 2011.51L757.312 2088V1974.86L804.619 1898.38M852.121 2088V1974.86M852.121 2088L899.623 2011.51M852.121 1974.86L804.619 1898.38M852.121 1974.86L899.623 1898.38M425.964 115.127L473.465 191.619M425.964 115.127V2.00024M425.964 115.127L378.656 191.619V78.483L425.964 2.00024M473.465 191.619V78.483M473.465 191.619L520.773 115.127M473.465 78.483L425.964 2.00024M473.465 78.483L520.773 2.00024M425.964 683.983L473.465 760.475M425.964 683.983V570.856M425.964 683.983L378.656 760.475V647.339L425.964 570.856M473.465 760.475V647.339M473.465 760.475L520.773 683.983M473.465 647.339L425.964 570.856M473.465 647.339L520.773 570.856M425.964 1253.03L473.465 1329.53M425.964 1253.03V1139.91M425.964 1253.03L378.656 1329.53V1216.39L425.964 1139.91M473.465 1329.53V1216.39M473.465 1329.53L520.773 1253.03M473.465 1216.39L425.964 1139.91M473.465 1216.39L520.773 1139.91M425.964 304.746L473.465 381.238M425.964 304.746V191.619M425.964 304.746L378.656 381.238V268.102L425.964 191.619M473.465 381.238V268.102M473.465 381.238L520.773 304.746M473.465 268.102L425.964 191.619M473.465 268.102L520.773 191.619M425.964 873.602L473.465 950.094M425.964 873.602V760.475M425.964 873.602L378.656 950.094V836.958L425.964 760.475M473.465 950.094V836.958M473.465 950.094L520.773 873.602M473.465 836.958L425.964 760.475M473.465 836.958L520.773 760.475M425.964 1442.65L473.465 1519.14M425.964 1442.65V1329.53M425.964 1442.65L378.656 1519.14V1406.01L425.964 1329.53M473.465 1519.14V1406.01M473.465 1519.14L520.773 1442.65M473.465 1406.01L425.964 1329.53M473.465 1406.01L520.773 1329.53M425.964 1821.89L473.465 1898.38M425.964 1821.89V1708.76M425.964 1821.89L378.656 1898.38V1785.25L425.964 1708.76M473.465 1898.38V1785.25M473.465 1898.38L520.773 1821.89M473.465 1785.25L425.964 1708.76M473.465 1785.25L520.773 1708.76M425.964 494.364L473.465 570.856M425.964 494.364V381.238M425.964 494.364L378.656 570.856V457.72L425.964 381.238M473.465 570.856V457.72M473.465 570.856L520.773 494.364M473.465 457.72L425.964 381.238M473.465 457.72L520.773 381.238M425.964 1063.34L473.465 1139.91M425.964 1063.34V950.094M425.964 1063.34L378.656 1139.91V1026.65L425.964 950.094M473.465 1139.91V1026.65M473.465 1139.91L520.773 1063.34M473.465 1026.65L425.964 950.094M473.465 1026.65L520.773 950.094M425.964 1632.27L473.465 1708.76M425.964 1632.27V1519.14M425.964 1632.27L378.656 1708.76V1595.63L425.964 1519.14M473.465 1708.76V1595.63M473.465 1708.76L520.773 1632.27M473.465 1595.63L425.964 1519.14M473.465 1595.63L520.773 1519.14M425.964 2011.51L473.465 2088M425.964 2011.51V1898.38M425.964 2011.51L378.656 2088V1974.86L425.964 1898.38M473.465 2088V1974.86M473.465 2088L520.773 2011.51M473.465 1974.86L425.964 1898.38M473.465 1974.86L520.773 1898.38M1183.47 115.127L1230.97 191.619V78.483L1183.47 2.00024M1183.47 115.127V2.00024M1183.47 115.127L1135.97 191.619V78.483L1183.47 2.00024M1183.47 683.983L1230.97 760.475V647.339L1183.47 570.856M1183.47 683.983V570.856M1183.47 683.983L1135.97 760.475V647.339L1183.47 570.856M1183.47 1253.03L1230.97 1329.53V1216.39L1183.47 1139.91M1183.47 1253.03V1139.91M1183.47 1253.03L1135.97 1329.53V1216.39L1183.47 1139.91M1183.47 304.746L1230.97 381.238V268.102L1183.47 191.619M1183.47 304.746V191.619M1183.47 304.746L1135.97 381.238V268.102L1183.47 191.619M1183.47 873.602L1230.97 950.094V836.958L1183.47 760.475M1183.47 873.602V760.475M1183.47 873.602L1135.97 950.094V836.958L1183.47 760.475M1183.47 1442.65L1230.97 1519.14V1406.01L1183.47 1329.53M1183.47 1442.65V1329.53M1183.47 1442.65L1135.97 1519.14V1406.01L1183.47 1329.53M1183.47 1821.89L1230.97 1898.38V1785.25L1183.47 1708.76M1183.47 1821.89V1708.76M1183.47 1821.89L1135.97 1898.38V1785.25L1183.47 1708.76M1183.47 494.364L1230.97 570.856V457.72L1183.47 381.238M1183.47 494.364V381.238M1183.47 494.364L1135.97 570.856V457.72L1183.47 381.238M1183.47 1063.34L1230.97 1139.91V1026.65L1183.47 950.094M1183.47 1063.34V950.094M1183.47 1063.34L1135.97 1139.91V1026.65L1183.47 950.094M1183.47 1632.27L1230.97 1708.76V1595.63L1183.47 1519.14M1183.47 1632.27V1519.14M1183.47 1632.27L1135.97 1708.76V1595.63L1183.47 1519.14M1183.47 2011.51L1230.97 2088V1974.86L1183.47 1898.38M1183.47 2011.51V1898.38M1183.47 2011.51L1135.97 2088V1974.86L1183.47 1898.38M1656.93 115.127L1704.44 191.619V78.483L1656.93 2.00024M1656.93 115.127V2.00024M1656.93 115.127L1609.63 191.619V78.483L1656.93 2.00024M1656.93 683.983L1704.44 760.475V647.339L1656.93 570.856M1656.93 683.983V570.856M1656.93 683.983L1609.63 760.475V647.339L1656.93 570.856M1656.93 1253.03L1704.44 1329.53V1216.39L1656.93 1139.91M1656.93 1253.03V1139.91M1656.93 1253.03L1609.63 1329.53V1216.39L1656.93 1139.91M1656.93 304.746L1704.44 381.238V268.102L1656.93 191.619M1656.93 304.746V191.619M1656.93 304.746L1609.63 381.238V268.102L1656.93 191.619M1656.93 873.602L1704.44 950.094V836.958L1656.93 760.475M1656.93 873.602V760.475M1656.93 873.602L1609.63 950.094V836.958L1656.93 760.475M1656.93 1442.65L1704.44 1519.14V1406.01L1656.93 1329.53M1656.93 1442.65V1329.53M1656.93 1442.65L1609.63 1519.14V1406.01L1656.93 1329.53M1656.93 1821.89L1704.44 1898.38V1785.25L1656.93 1708.76M1656.93 1821.89V1708.76M1656.93 1821.89L1609.63 1898.38V1785.25L1656.93 1708.76M1656.93 494.364L1704.44 570.856V457.72L1656.93 381.238M1656.93 494.364V381.238M1656.93 494.364L1609.63 570.856V457.72L1656.93 381.238M1656.93 1063.34L1704.44 1139.91V1026.65L1656.93 950.094M1656.93 1063.34V950.094M1656.93 1063.34L1609.63 1139.91V1026.65L1656.93 950.094M1656.93 1632.27L1704.44 1708.76V1595.63L1656.93 1519.14M1656.93 1632.27V1519.14M1656.93 1632.27L1609.63 1708.76V1595.63L1656.93 1519.14M1656.93 2011.51L1704.44 2088V1974.86L1656.93 1898.38M1656.93 2011.51V1898.38M1656.93 2011.51L1609.63 2088V1974.86L1656.93 1898.38M236.733 115.127L284.234 191.619V78.483L236.733 2.00024M236.733 115.127V2.00024M236.733 115.127L189.425 191.619V78.483L236.733 2.00024M236.733 683.983L284.234 760.475V647.339L236.733 570.856M236.733 683.983V570.856M236.733 683.983L189.425 760.475V647.339L236.733 570.856M236.733 1253.03L284.234 1329.53V1216.39L236.733 1139.91M236.733 1253.03V1139.91M236.733 1253.03L189.425 1329.53V1216.39L236.733 1139.91M236.733 304.746L284.234 381.238V268.102L236.733 191.619M236.733 304.746V191.619M236.733 304.746L189.425 381.238V268.102L236.733 191.619M236.733 873.602L284.234 950.094V836.958L236.733 760.475M236.733 873.602V760.475M236.733 873.602L189.425 950.094V836.958L236.733 760.475M236.733 1442.65L284.234 1519.14V1406.01L236.733 1329.53M236.733 1442.65V1329.53M236.733 1442.65L189.425 1519.14V1406.01L236.733 1329.53M236.733 1821.89L284.234 1898.38V1785.25L236.733 1708.76M236.733 1821.89V1708.76M236.733 1821.89L189.425 1898.38V1785.25L236.733 1708.76M236.733 494.364L284.234 570.856V457.72L236.733 381.238M236.733 494.364V381.238M236.733 494.364L189.425 570.856V457.72L236.733 381.238M236.733 1063.34L284.234 1139.91V1026.65L236.733 950.094M236.733 1063.34V950.094M236.733 1063.34L189.425 1139.91V1026.65L236.733 950.094M236.733 1632.27L284.234 1708.76V1595.63L236.733 1519.14M236.733 1632.27V1519.14M236.733 1632.27L189.425 1708.76V1595.63L236.733 1519.14M236.733 2011.51L284.234 2088V1974.86L236.733 1898.38M236.733 2011.51V1898.38M236.733 2011.51L189.425 2088V1974.86L236.733 1898.38M993.85 115.127L1041.55 191.619V78.483L993.85 2.00024M993.85 115.127V2.00024M993.85 115.127L946.543 191.619V78.483L993.85 2.00024M993.85 683.983L1041.55 760.475V647.339L993.85 570.856M993.85 683.983V570.856M993.85 683.983L946.543 760.475V647.339L993.85 570.856M993.85 1253.03L1041.55 1329.53V1216.39L993.85 1139.91M993.85 1253.03V1139.91M993.85 1253.03L946.543 1329.53V1216.39L993.85 1139.91M993.85 304.746L1041.55 381.238V268.102L993.85 191.619M993.85 304.746V191.619M993.85 304.746L946.543 381.238V268.102L993.85 191.619M993.85 873.602L1041.55 950.094V836.958L993.85 760.475M993.85 873.602V760.475M993.85 873.602L946.543 950.094V836.958L993.85 760.475M993.85 1442.65L1041.55 1519.14V1406.01L993.85 1329.53M993.85 1442.65V1329.53M993.85 1442.65L946.543 1519.14V1406.01L993.85 1329.53M993.85 1821.89L1041.55 1898.38V1785.25L993.85 1708.76M993.85 1821.89V1708.76M993.85 1821.89L946.543 1898.38V1785.25L993.85 1708.76M993.85 494.364L1041.55 570.856V457.72L993.85 381.238M993.85 494.364V381.238M993.85 494.364L946.543 570.856V457.72L993.85 381.238M993.85 1063.34L1041.55 1139.91V1026.65L993.85 950.094M993.85 1063.34V950.094M993.85 1063.34L946.543 1139.91V1026.65L993.85 950.094M993.85 1632.27L1041.55 1708.76V1595.63L993.85 1519.14M993.85 1632.27V1519.14M993.85 1632.27L946.543 1708.76V1595.63L993.85 1519.14M993.85 2011.51L1041.55 2088V1974.86L993.85 1898.38M993.85 2011.51V1898.38M993.85 2011.51L946.543 2088V1974.86L993.85 1898.38M615.388 115.127L662.89 191.619V78.483L615.388 2.00024M615.388 115.127V2.00024M615.388 115.127L567.887 191.619V78.483L615.388 2.00024M615.388 683.983L662.89 760.475V647.339L615.388 570.856M615.388 683.983V570.856M615.388 683.983L567.887 760.475V647.339L615.388 570.856M615.388 1253.03L662.89 1329.53V1216.39L615.388 1139.91M615.388 1253.03V1139.91M615.388 1253.03L567.887 1329.53V1216.39L615.388 1139.91M615.388 304.746L662.89 381.238V268.102L615.388 191.619M615.388 304.746V191.619M615.388 304.746L567.887 381.238V268.102L615.388 191.619M615.388 873.602L662.89 950.094V836.958L615.388 760.475M615.388 873.602V760.475M615.388 873.602L567.887 950.094V836.958L615.388 760.475M615.388 1442.65L662.89 1519.14V1406.01L615.388 1329.53M615.388 1442.65V1329.53M615.388 1442.65L567.887 1519.14V1406.01L615.388 1329.53M615.388 1821.89L662.89 1898.38V1785.25L615.388 1708.76M615.388 1821.89V1708.76M615.388 1821.89L567.887 1898.38V1785.25L615.388 1708.76M615.388 494.364L662.89 570.856V457.72L615.388 381.238M615.388 494.364V381.238M615.388 494.364L567.887 570.856V457.72L615.388 381.238M615.388 1063.34L662.89 1139.91V1026.65L615.388 950.094M615.388 1063.34V950.094M615.388 1063.34L567.887 1139.91V1026.65L615.388 950.094M615.388 1632.27L662.89 1708.76V1595.63L615.388 1519.14M615.388 1632.27V1519.14M615.388 1632.27L567.887 1708.76V1595.63L615.388 1519.14M615.388 2011.51L662.89 2088V1974.86L615.388 1898.38M615.388 2011.51V1898.38M615.388 2011.51L567.887 2088V1974.86L615.388 1898.38M1372.7 115.127L1420.2 191.619M1372.7 115.127V2.00024M1372.7 115.127L1325.2 191.619V78.483L1372.7 2.00024M1420.2 191.619V78.483M1420.2 191.619L1467.51 115.127M1420.2 78.483L1372.7 2.00024M1420.2 78.483L1467.51 2.00024M1372.7 683.983L1420.2 760.475M1372.7 683.983V570.856M1372.7 683.983L1325.2 760.475V647.339L1372.7 570.856M1420.2 760.475V647.339M1420.2 760.475L1467.51 683.983M1420.2 647.339L1372.7 570.856M1420.2 647.339L1467.51 570.856M1372.7 1253.03L1420.2 1329.53M1372.7 1253.03V1139.91M1372.7 1253.03L1325.2 1329.53V1216.39L1372.7 1139.91M1420.2 1329.53V1216.39M1420.2 1329.53L1467.51 1253.03M1420.2 1216.39L1372.7 1139.91M1420.2 1216.39L1467.51 1139.91M1372.7 304.746L1420.2 381.238M1372.7 304.746V191.619M1372.7 304.746L1325.2 381.238V268.102L1372.7 191.619M1420.2 381.238V268.102M1420.2 381.238L1467.51 304.746M1420.2 268.102L1372.7 191.619M1420.2 268.102L1467.51 191.619M1372.7 873.602L1420.2 950.094M1372.7 873.602V760.475M1372.7 873.602L1325.2 950.094V836.958L1372.7 760.475M1420.2 950.094V836.958M1420.2 950.094L1467.51 873.602M1420.2 836.958L1372.7 760.475M1420.2 836.958L1467.51 760.475M1372.7 1442.65L1420.2 1519.14M1372.7 1442.65V1329.53M1372.7 1442.65L1325.2 1519.14V1406.01L1372.7 1329.53M1420.2 1519.14V1406.01M1420.2 1519.14L1467.51 1442.65M1420.2 1406.01L1372.7 1329.53M1420.2 1406.01L1467.51 1329.53M1372.7 1821.89L1420.2 1898.38M1372.7 1821.89V1708.76M1372.7 1821.89L1325.2 1898.38V1785.25L1372.7 1708.76M1420.2 1898.38V1785.25M1420.2 1898.38L1467.51 1821.89M1420.2 1785.25L1372.7 1708.76M1420.2 1785.25L1467.51 1708.76M1372.7 494.364L1420.2 570.856M1372.7 494.364V381.238M1372.7 494.364L1325.2 570.856V457.72L1372.7 381.238M1420.2 570.856V457.72M1420.2 570.856L1467.51 494.364M1420.2 457.72L1372.7 381.238M1420.2 457.72L1467.51 381.238M1372.7 1063.34L1420.2 1139.91M1372.7 1063.34V950.094M1372.7 1063.34L1325.2 1139.91V1026.65L1372.7 950.094M1420.2 1139.91V1026.65M1420.2 1139.91L1467.51 1063.34M1420.2 1026.65L1372.7 950.094M1420.2 1026.65L1467.51 950.094M1372.7 1632.27L1420.2 1708.76M1372.7 1632.27V1519.14M1372.7 1632.27L1325.2 1708.76V1595.63L1372.7 1519.14M1420.2 1708.76V1595.63M1420.2 1708.76L1467.51 1632.27M1420.2 1595.63L1372.7 1519.14M1420.2 1595.63L1467.51 1519.14M1372.7 2011.51L1420.2 2088M1372.7 2011.51V1898.38M1372.7 2011.51L1325.2 2088V1974.86L1372.7 1898.38M1420.2 2088V1974.86M1420.2 2088L1467.51 2011.51M1420.2 1974.86L1372.7 1898.38M1420.2 1974.86L1467.51 1898.38M1846.17 115.127L1893.67 191.619M1846.17 115.127V2.00024M1846.17 115.127L1798.86 191.619V78.483L1846.17 2.00024M1893.67 191.619V78.483M1893.67 191.619L1941.17 115.127M1893.67 78.483L1846.17 2.00024M1893.67 78.483L1941.17 2.00024M1846.17 683.983L1893.67 760.475M1846.17 683.983V570.856M1846.17 683.983L1798.86 760.475V647.339L1846.17 570.856M1893.67 760.475V647.339M1893.67 760.475L1941.17 683.983M1893.67 647.339L1846.17 570.856M1893.67 647.339L1941.17 570.856M1846.17 1253.03L1893.67 1329.53M1846.17 1253.03V1139.91M1846.17 1253.03L1798.86 1329.53V1216.39L1846.17 1139.91M1893.67 1329.53V1216.39M1893.67 1329.53L1941.17 1253.03M1893.67 1216.39L1846.17 1139.91M1893.67 1216.39L1941.17 1139.91M1846.17 304.746L1893.67 381.238M1846.17 304.746V191.619M1846.17 304.746L1798.86 381.238V268.102L1846.17 191.619M1893.67 381.238V268.102M1893.67 381.238L1941.17 304.746M1893.67 268.102L1846.17 191.619M1893.67 268.102L1941.17 191.619M1846.17 873.602L1893.67 950.094M1846.17 873.602V760.475M1846.17 873.602L1798.86 950.094V836.958L1846.17 760.475M1893.67 950.094V836.958M1893.67 950.094L1941.17 873.602M1893.67 836.958L1846.17 760.475M1893.67 836.958L1941.17 760.475M1846.17 1442.65L1893.67 1519.14M1846.17 1442.65V1329.53M1846.17 1442.65L1798.86 1519.14V1406.01L1846.17 1329.53M1893.67 1519.14V1406.01M1893.67 1519.14L1941.17 1442.65M1893.67 1406.01L1846.17 1329.53M1893.67 1406.01L1941.17 1329.53M1846.17 1821.89L1893.67 1898.38M1846.17 1821.89V1708.76M1846.17 1821.89L1798.86 1898.38V1785.25L1846.17 1708.76M1893.67 1898.38V1785.25M1893.67 1898.38L1941.17 1821.89M1893.67 1785.25L1846.17 1708.76M1893.67 1785.25L1941.17 1708.76M1846.17 494.364L1893.67 570.856M1846.17 494.364V381.238M1846.17 494.364L1798.86 570.856V457.72L1846.17 381.238M1893.67 570.856V457.72M1893.67 570.856L1941.17 494.364M1893.67 457.72L1846.17 381.238M1893.67 457.72L1941.17 381.238M1846.17 1063.34L1893.67 1139.91M1846.17 1063.34V950.094M1846.17 1063.34L1798.86 1139.91V1026.65L1846.17 950.094M1893.67 1139.91V1026.65M1893.67 1139.91L1941.17 1063.34M1893.67 1026.65L1846.17 950.094M1893.67 1026.65L1941.17 950.094M1846.17 1632.27L1893.67 1708.76M1846.17 1632.27V1519.14M1846.17 1632.27L1798.86 1708.76V1595.63L1846.17 1519.14M1893.67 1708.76V1595.63M1893.67 1708.76L1941.17 1632.27M1893.67 1595.63L1846.17 1519.14M1893.67 1595.63L1941.17 1519.14M1846.17 2011.51L1893.67 2088M1846.17 2011.51V1898.38M1846.17 2011.51L1798.86 2088V1974.86L1846.17 1898.38M1893.67 2088V1974.86M1893.67 2088L1941.17 2011.51M1893.67 1974.86L1846.17 1898.38M1893.67 1974.86L1941.17 1898.38M142.117 115.127L189.619 191.619V78.483L142.117 2.00024M142.117 115.127V2.00024M142.117 683.983L189.619 760.475V647.339L142.117 570.856M142.117 683.983V570.856M142.117 1253.03L189.619 1329.53V1216.39L142.117 1139.91M142.117 1253.03V1139.91M142.117 304.746L189.619 381.238V268.102L142.117 191.619M142.117 304.746V191.619M142.117 873.602L189.619 950.094V836.958L142.117 760.475M142.117 873.602V760.475M142.117 1442.65L189.619 1519.14V1406.01L142.117 1329.53M142.117 1442.65V1329.53M142.117 1821.89L189.619 1898.38V1785.25L142.117 1708.76M142.117 1821.89V1708.76M142.117 494.364L189.619 570.856V457.72L142.117 381.238M142.117 494.364V381.238M142.117 1063.34L189.619 1139.91V1026.65L142.117 950.094M142.117 1063.34V950.094M142.117 1632.27L189.619 1708.76V1595.63L142.117 1519.14M142.117 1632.27V1519.14M142.117 2011.51L189.619 2088V1974.86L142.117 1898.38M142.117 2011.51V1898.38M899.623 115.127L946.93 191.619V78.483L899.623 2.00024M899.623 115.127V2.00024M899.623 683.983L946.93 760.475V647.339L899.623 570.856M899.623 683.983V570.856M899.623 1253.03L946.93 1329.53V1216.39L899.623 1139.91M899.623 1253.03V1139.91M899.623 304.746L946.93 381.238V268.102L899.623 191.619M899.623 304.746V191.619M899.623 873.602L946.93 950.094V836.958L899.623 760.475M899.623 873.602V760.475M899.623 1442.65L946.93 1519.14V1406.01L899.623 1329.53M899.623 1442.65V1329.53M899.623 1821.89L946.93 1898.38V1785.25L899.623 1708.76M899.623 1821.89V1708.76M899.623 494.364L946.93 570.856V457.72L899.623 381.238M899.623 494.364V381.238M899.623 1063.34L946.93 1139.91V1026.65L899.623 950.094M899.623 1063.34V950.094M899.623 1632.27L946.93 1708.76V1595.63L899.623 1519.14M899.623 1632.27V1519.14M899.623 2011.51L946.93 2088V1974.86L899.623 1898.38M899.623 2011.51V1898.38M520.773 115.127L568.275 191.619V78.483L520.773 2.00024M520.773 115.127V2.00024M520.773 683.983L568.275 760.475V647.339L520.773 570.856M520.773 683.983V570.856M520.773 1253.03L568.275 1329.53V1216.39L520.773 1139.91M520.773 1253.03V1139.91M520.773 304.746L568.275 381.238V268.102L520.773 191.619M520.773 304.746V191.619M520.773 873.602L568.275 950.094V836.958L520.773 760.475M520.773 873.602V760.475M520.773 1442.65L568.275 1519.14V1406.01L520.773 1329.53M520.773 1442.65V1329.53M520.773 1821.89L568.275 1898.38V1785.25L520.773 1708.76M520.773 1821.89V1708.76M520.773 494.364L568.275 570.856V457.72L520.773 381.238M520.773 494.364V381.238M520.773 1063.34L568.275 1139.91V1026.65L520.773 950.094M520.773 1063.34V950.094M520.773 1632.27L568.275 1708.76V1595.63L520.773 1519.14M520.773 1632.27V1519.14M520.773 2011.51L568.275 2088V1974.86L520.773 1898.38M520.773 2011.51V1898.38M1278.08 115.127L1325.59 191.619V78.483L1278.08 2.00024M1278.08 115.127V2.00024M1278.08 115.127L1230.78 191.619V78.483L1278.08 2.00024M1278.08 683.983L1325.59 760.475V647.339L1278.08 570.856M1278.08 683.983V570.856M1278.08 683.983L1230.78 760.475V647.339L1278.08 570.856M1278.08 1253.03L1325.59 1329.53V1216.39L1278.08 1139.91M1278.08 1253.03V1139.91M1278.08 1253.03L1230.78 1329.53V1216.39L1278.08 1139.91M1278.08 304.746L1325.59 381.238V268.102L1278.08 191.619M1278.08 304.746V191.619M1278.08 304.746L1230.78 381.238V268.102L1278.08 191.619M1278.08 873.602L1325.59 950.094V836.958L1278.08 760.475M1278.08 873.602V760.475M1278.08 873.602L1230.78 950.094V836.958L1278.08 760.475M1278.08 1442.65L1325.59 1519.14V1406.01L1278.08 1329.53M1278.08 1442.65V1329.53M1278.08 1442.65L1230.78 1519.14V1406.01L1278.08 1329.53M1278.08 1821.89L1325.59 1898.38V1785.25L1278.08 1708.76M1278.08 1821.89V1708.76M1278.08 1821.89L1230.78 1898.38V1785.25L1278.08 1708.76M1278.08 494.364L1325.59 570.856V457.72L1278.08 381.238M1278.08 494.364V381.238M1278.08 494.364L1230.78 570.856V457.72L1278.08 381.238M1278.08 1063.34L1325.59 1139.91V1026.65L1278.08 950.094M1278.08 1063.34V950.094M1278.08 1063.34L1230.78 1139.91V1026.65L1278.08 950.094M1278.08 1632.27L1325.59 1708.76V1595.63L1278.08 1519.14M1278.08 1632.27V1519.14M1278.08 1632.27L1230.78 1708.76V1595.63L1278.08 1519.14M1278.08 2011.51L1325.59 2088V1974.86L1278.08 1898.38M1278.08 2011.51V1898.38M1278.08 2011.51L1230.78 2088V1974.86L1278.08 1898.38M1751.74 115.127L1799.25 191.619V78.483L1751.74 2.00024M1751.74 115.127V2.00024M1751.74 115.127L1704.24 191.619V78.483L1751.74 2.00024M1751.74 683.983L1799.25 760.475V647.339L1751.74 570.856M1751.74 683.983V570.856M1751.74 683.983L1704.24 760.475V647.339L1751.74 570.856M1751.74 1253.03L1799.25 1329.53V1216.39L1751.74 1139.91M1751.74 1253.03V1139.91M1751.74 1253.03L1704.24 1329.53V1216.39L1751.74 1139.91M1751.74 304.746L1799.25 381.238V268.102L1751.74 191.619M1751.74 304.746V191.619M1751.74 304.746L1704.24 381.238V268.102L1751.74 191.619M1751.74 873.602L1799.25 950.094V836.958L1751.74 760.475M1751.74 873.602V760.475M1751.74 873.602L1704.24 950.094V836.958L1751.74 760.475M1751.74 1442.65L1799.25 1519.14V1406.01L1751.74 1329.53M1751.74 1442.65V1329.53M1751.74 1442.65L1704.24 1519.14V1406.01L1751.74 1329.53M1751.74 1821.89L1799.25 1898.38V1785.25L1751.74 1708.76M1751.74 1821.89V1708.76M1751.74 1821.89L1704.24 1898.38V1785.25L1751.74 1708.76M1751.74 494.364L1799.25 570.856V457.72L1751.74 381.238M1751.74 494.364V381.238M1751.74 494.364L1704.24 570.856V457.72L1751.74 381.238M1751.74 1063.34L1799.25 1139.91V1026.65L1751.74 950.094M1751.74 1063.34V950.094M1751.74 1063.34L1704.24 1139.91V1026.65L1751.74 950.094M1751.74 1632.27L1799.25 1708.76V1595.63L1751.74 1519.14M1751.74 1632.27V1519.14M1751.74 1632.27L1704.24 1708.76V1595.63L1751.74 1519.14M1751.74 2011.51L1799.25 2088V1974.86L1751.74 1898.38M1751.74 2011.51V1898.38M1751.74 2011.51L1704.24 2088V1974.86L1751.74 1898.38M331.348 115.127L379.044 191.619V78.483L331.348 2.00024M331.348 115.127V2.00024M331.348 115.127L284.04 191.619V78.483L331.348 2.00024M331.348 683.983L379.044 760.475V647.339L331.348 570.856M331.348 683.983V570.856M331.348 683.983L284.04 760.475V647.339L331.348 570.856M331.348 1253.03L379.044 1329.53V1216.39L331.348 1139.91M331.348 1253.03V1139.91M331.348 1253.03L284.04 1329.53V1216.39L331.348 1139.91M331.348 304.746L379.044 381.238V268.102L331.348 191.619M331.348 304.746V191.619M331.348 304.746L284.04 381.238V268.102L331.348 191.619M331.348 873.602L379.044 950.094V836.958L331.348 760.475M331.348 873.602V760.475M331.348 873.602L284.04 950.094V836.958L331.348 760.475M331.348 1442.65L379.044 1519.14V1406.01L331.348 1329.53M331.348 1442.65V1329.53M331.348 1442.65L284.04 1519.14V1406.01L331.348 1329.53M331.348 1821.89L379.044 1898.38V1785.25L331.348 1708.76M331.348 1821.89V1708.76M331.348 1821.89L284.04 1898.38V1785.25L331.348 1708.76M331.348 494.364L379.044 570.856V457.72L331.348 381.238M331.348 494.364V381.238M331.348 494.364L284.04 570.856V457.72L331.348 381.238M331.348 1063.34L379.044 1139.91V1026.65L331.348 950.094M331.348 1063.34V950.094M331.348 1063.34L284.04 1139.91V1026.65L331.348 950.094M331.348 1632.27L379.044 1708.76V1595.63L331.348 1519.14M331.348 1632.27V1519.14M331.348 1632.27L284.04 1708.76V1595.63L331.348 1519.14M331.348 2011.51L379.044 2088V1974.86L331.348 1898.38M331.348 2011.51V1898.38M331.348 2011.51L284.04 2088V1974.86L331.348 1898.38M1088.85 115.127L1136.16 191.619V78.483L1088.85 2.00024M1088.85 115.127V2.00024M1088.85 115.127L1041.35 191.619V78.483L1088.85 2.00024M1088.85 683.983L1136.16 760.475V647.339L1088.85 570.856M1088.85 683.983V570.856M1088.85 683.983L1041.35 760.475V647.339L1088.85 570.856M1088.85 1253.03L1136.16 1329.53V1216.39L1088.85 1139.91M1088.85 1253.03V1139.91M1088.85 1253.03L1041.35 1329.53V1216.39L1088.85 1139.91M1088.85 304.746L1136.16 381.238V268.102L1088.85 191.619M1088.85 304.746V191.619M1088.85 304.746L1041.35 381.238V268.102L1088.85 191.619M1088.85 873.602L1136.16 950.094V836.958L1088.85 760.475M1088.85 873.602V760.475M1088.85 873.602L1041.35 950.094V836.958L1088.85 760.475M1088.85 1442.65L1136.16 1519.14V1406.01L1088.85 1329.53M1088.85 1442.65V1329.53M1088.85 1442.65L1041.35 1519.14V1406.01L1088.85 1329.53M1088.85 1821.89L1136.16 1898.38V1785.25L1088.85 1708.76M1088.85 1821.89V1708.76M1088.85 1821.89L1041.35 1898.38V1785.25L1088.85 1708.76M1088.85 494.364L1136.16 570.856V457.72L1088.85 381.238M1088.85 494.364V381.238M1088.85 494.364L1041.35 570.856V457.72L1088.85 381.238M1088.85 1063.34L1136.16 1139.91V1026.65L1088.85 950.094M1088.85 1063.34V950.094M1088.85 1063.34L1041.35 1139.91V1026.65L1088.85 950.094M1088.85 1632.27L1136.16 1708.76V1595.63L1088.85 1519.14M1088.85 1632.27V1519.14M1088.85 1632.27L1041.35 1708.76V1595.63L1088.85 1519.14M1088.85 2011.51L1136.16 2088V1974.86L1088.85 1898.38M1088.85 2011.51V1898.38M1088.85 2011.51L1041.35 2088V1974.86L1088.85 1898.38M1562.51 115.127L1609.82 191.619V78.483L1562.51 2.00024M1562.51 115.127V2.00024M1562.51 115.127L1514.82 191.619M1562.51 2.00024L1514.82 78.483M1562.51 683.983L1609.82 760.475V647.339L1562.51 570.856M1562.51 683.983V570.856M1562.51 683.983L1514.82 760.475M1562.51 570.856L1514.82 647.339M1562.51 1253.03L1609.82 1329.53V1216.39L1562.51 1139.91M1562.51 1253.03V1139.91M1562.51 1253.03L1514.82 1329.53M1562.51 1139.91L1514.82 1216.39M1562.51 304.746L1609.82 381.238V268.102L1562.51 191.619M1562.51 304.746V191.619M1562.51 304.746L1514.82 381.238M1562.51 191.619L1514.82 268.102M1562.51 873.602L1609.82 950.094V836.958L1562.51 760.475M1562.51 873.602V760.475M1562.51 873.602L1514.82 950.094M1562.51 760.475L1514.82 836.958M1562.51 1442.65L1609.82 1519.14V1406.01L1562.51 1329.53M1562.51 1442.65V1329.53M1562.51 1442.65L1514.82 1519.14M1562.51 1329.53L1514.82 1406.01M1562.51 1821.89L1609.82 1898.38V1785.25L1562.51 1708.76M1562.51 1821.89V1708.76M1562.51 1821.89L1514.82 1898.38M1562.51 1708.76L1514.82 1785.25M1562.51 494.364L1609.82 570.856V457.72L1562.51 381.238M1562.51 494.364V381.238M1562.51 494.364L1514.82 570.856M1562.51 381.238L1514.82 457.72M1562.51 1063.34L1609.82 1139.91V1026.65L1562.51 950.094M1562.51 1063.34V950.094M1562.51 1063.34L1514.82 1139.91M1562.51 950.094L1514.82 1026.65M1562.51 1632.27L1609.82 1708.76V1595.63L1562.51 1519.14M1562.51 1632.27V1519.14M1562.51 1632.27L1514.82 1708.76M1562.51 1519.14L1514.82 1595.63M1562.51 2011.51L1609.82 2088V1974.86L1562.51 1898.38M1562.51 2011.51V1898.38M1562.51 2011.51L1514.82 2088M1562.51 1898.38L1514.82 1974.86M1514.82 78.483V191.619M1514.82 78.483L1467.51 2.00024M1514.82 191.619L1467.51 115.127M1514.82 647.339V760.475M1514.82 647.339L1467.51 570.856M1514.82 760.475L1467.51 683.983M1514.82 1216.39V1329.53M1514.82 1216.39L1467.51 1139.91M1514.82 1329.53L1467.51 1253.03M1514.82 268.102V381.238M1514.82 268.102L1467.51 191.619M1514.82 381.238L1467.51 304.746M1514.82 836.958V950.094M1514.82 836.958L1467.51 760.475M1514.82 950.094L1467.51 873.602M1514.82 1406.01V1519.14M1514.82 1406.01L1467.51 1329.53M1514.82 1519.14L1467.51 1442.65M1514.82 1785.25V1898.38M1514.82 1785.25L1467.51 1708.76M1514.82 1898.38L1467.51 1821.89M1514.82 457.72V570.856M1514.82 457.72L1467.51 381.238M1514.82 570.856L1467.51 494.364M1514.82 1026.65V1139.91M1514.82 1026.65L1467.51 950.094M1514.82 1139.91L1467.51 1063.34M1514.82 1595.63V1708.76M1514.82 1595.63L1467.51 1519.14M1514.82 1708.76L1467.51 1632.27M1514.82 1974.86V2088M1514.82 1974.86L1467.51 1898.38M1514.82 2088L1467.51 2011.51M710.198 115.127L757.505 191.619V78.483L710.198 2.00024M710.198 115.127V2.00024M710.198 115.127L662.696 191.619V78.483L710.198 2.00024M710.198 683.983L757.505 760.475V647.339L710.198 570.856M710.198 683.983V570.856M710.198 683.983L662.696 760.475V647.339L710.198 570.856M710.198 1253.03L757.505 1329.53V1216.39L710.198 1139.91M710.198 1253.03V1139.91M710.198 1253.03L662.696 1329.53V1216.39L710.198 1139.91M710.198 304.746L757.505 381.238V268.102L710.198 191.619M710.198 304.746V191.619M710.198 304.746L662.696 381.238V268.102L710.198 191.619M710.198 873.602L757.505 950.094V836.958L710.198 760.475M710.198 873.602V760.475M710.198 873.602L662.696 950.094V836.958L710.198 760.475M710.198 1442.65L757.505 1519.14V1406.01L710.198 1329.53M710.198 1442.65V1329.53M710.198 1442.65L662.696 1519.14V1406.01L710.198 1329.53M710.198 1821.89L757.505 1898.38V1785.25L710.198 1708.76M710.198 1821.89V1708.76M710.198 1821.89L662.696 1898.38V1785.25L710.198 1708.76M710.198 494.364L757.505 570.856V457.72L710.198 381.238M710.198 494.364V381.238M710.198 494.364L662.696 570.856V457.72L710.198 381.238M710.198 1063.34L757.505 1139.91V1026.65L710.198 950.094M710.198 1063.34V950.094M710.198 1063.34L662.696 1139.91V1026.65L710.198 950.094M710.198 1632.27L757.505 1708.76V1595.63L710.198 1519.14M710.198 1632.27V1519.14M710.198 1632.27L662.696 1708.76V1595.63L710.198 1519.14M710.198 2011.51L757.505 2088V1974.86L710.198 1898.38M710.198 2011.51V1898.38M710.198 2011.51L662.696 2088V1974.86L710.198 1898.38M1467.51 115.127V2.00024M1467.51 683.983V570.856M1467.51 1253.03V1139.91M1467.51 304.746V191.619M1467.51 873.602V760.475M1467.51 1442.65V1329.53M1467.51 1821.89V1708.76M1467.51 494.364V381.238M1467.51 1063.34V950.094M1467.51 1632.27V1519.14M1467.51 2011.51V1898.38M1941.17 115.127L1988.48 191.619V78.483L1941.17 2.00024M1941.17 115.127V2.00024M1941.17 683.983L1988.48 760.475V647.339L1941.17 570.856M1941.17 683.983V570.856M1941.17 1253.03L1988.48 1329.53V1216.39L1941.17 1139.91M1941.17 1253.03V1139.91M1941.17 304.746L1988.48 381.238V268.102L1941.17 191.619M1941.17 304.746V191.619M1941.17 873.602L1988.48 950.094V836.958L1941.17 760.475M1941.17 873.602V760.475M1941.17 1442.65L1988.48 1519.14V1406.01L1941.17 1329.53M1941.17 1442.65V1329.53M1941.17 1821.89L1988.48 1898.38V1785.25L1941.17 1708.76M1941.17 1821.89V1708.76M1941.17 494.364L1988.48 570.856V457.72L1941.17 381.238M1941.17 494.364V381.238M1941.17 1063.34L1988.48 1139.91V1026.65L1941.17 950.094M1941.17 1063.34V950.094M1941.17 1632.27L1988.48 1708.76V1595.63L1941.17 1519.14M1941.17 1632.27V1519.14M1941.17 2011.51L1988.48 2088V1974.86L1941.17 1898.38M1941.17 2011.51V1898.38" stroke="white" stroke-width="1.93884" stroke-miterlimit="10"/>
</svg>
