<svg width="292" height="121" viewBox="0 0 292 121" fill="none" xmlns="http://www.w3.org/2000/svg">
<g clip-path="url(#clip0_573_486)">
<path d="M0.672873 35.9787C0.584328 35.5057 0.5 35.2396 0.5 34.9777C0.5 34.7117 0.588545 34.4456 0.677089 33.9514C1.38545 33.9514 2.06851 33.9514 2.75156 33.9514C7.59622 33.9514 12.4409 33.8881 17.2813 33.9852C19.3685 34.0275 21.4977 34.2133 23.5216 34.6905C26.7134 35.4423 30.3691 38.5339 30.1498 43.3359C30.0065 46.4654 28.4211 48.6278 25.8533 50.1229C23.5005 51.4955 20.8821 51.9981 18.1752 52.0192C16.2947 52.0361 14.4142 52.0192 12.4282 52.0192C12.3439 52.7541 12.2301 53.2905 12.2258 53.8269C12.2005 56.4285 12.1837 59.0301 12.2048 61.6317C12.2258 64.1911 12.6348 64.5839 15.131 64.6008C15.8941 64.605 16.6615 64.6008 17.5427 64.6008C17.6144 65.1836 17.6692 65.6271 17.7114 65.9692C17.1928 66.5309 5.36153 66.7041 0.681306 66.3197C0.643358 65.8552 0.601194 65.3568 0.537948 64.5966C1.46978 64.5966 2.2203 64.6219 2.97082 64.5924C4.74593 64.5248 5.15492 64.1151 5.28985 62.3159C5.31936 61.8978 5.31093 61.4712 5.31093 61.0489C5.31093 54.0169 5.31093 46.9849 5.30671 39.9529C5.30671 39.6024 5.30671 39.2476 5.29828 38.8971C5.24347 36.325 4.92723 36.0083 2.34679 35.9702C1.85769 35.9618 1.3728 35.9702 0.677089 35.9702L0.672873 35.9787ZM12.3734 50.0173C14.6376 50.3256 16.7922 50.3383 18.8836 49.6415C21.2827 48.839 22.8554 47.2763 22.9355 44.586C22.9735 43.3274 23.0241 42.052 22.8596 40.8145C22.5055 38.1791 21.211 36.8318 18.6053 36.2997C17.5849 36.0927 16.5224 36.0209 15.4767 35.9998C14.4479 35.9787 13.339 35.8055 12.3776 36.9247V50.0216L12.3734 50.0173Z" fill="white"/>
<path d="M290.484 119.539V0.962544C240.878 6.56702 191.419 12.1546 141.767 17.7675V31.2614C141.273 30.7123 140.987 30.5434 140.987 30.3702C140.961 26.0877 140.966 21.8051 140.966 17.5352C142.349 16.5174 143.896 16.7328 145.304 16.5596C152.683 15.6558 160.074 14.8576 167.466 14.0382C174.301 13.278 181.135 12.5601 187.966 11.7914C193.54 11.1621 199.11 10.4695 204.684 9.83595C210.262 9.20243 215.845 8.62805 221.423 7.99454C226.997 7.36102 232.563 6.67261 238.137 6.04332C242.531 5.54495 246.928 5.10994 251.322 4.6327C255.155 4.21458 258.992 3.78801 262.82 3.34033C267.138 2.83774 271.451 2.27603 275.773 1.79456C280.305 1.28775 284.842 0.827395 289.379 0.367042C289.982 0.307914 290.594 0.358595 291.357 0.358595C291.411 1.15682 291.492 1.76922 291.492 2.38161C291.496 40.8823 291.496 79.383 291.496 117.888C291.496 118.238 291.521 118.597 291.479 118.944C291.352 120.004 290.847 120.447 289.801 120.316C286.529 119.911 283.261 119.472 279.989 119.045C276.093 118.538 272.202 118.019 268.306 117.525C263.157 116.874 258.001 116.258 252.852 115.607C247.911 114.982 242.969 114.34 238.032 113.702C232.883 113.035 227.739 112.355 222.591 111.701C216.676 110.949 210.756 110.222 204.84 109.475C199.692 108.82 194.544 108.14 189.395 107.49C184.386 106.861 179.369 106.265 174.355 105.636C168.507 104.901 162.663 104.145 156.815 103.402C152.78 102.886 148.741 102.379 144.71 101.86C143.538 101.708 142.374 101.514 140.949 101.298C140.902 96.944 140.928 92.6994 140.936 88.4591C141.105 88.4338 141.273 88.4042 141.446 88.3789C141.569 88.7632 141.788 89.1475 141.792 89.5361C141.822 92.4925 141.809 95.4489 141.809 98.4053C141.809 99.1021 141.809 99.799 141.809 100.699C191.398 106.987 240.852 113.255 290.488 119.548L290.484 119.539Z" fill="white"/>
<path d="M167.976 35.8688V34.3315C169.431 33.8753 181.093 33.7824 183.56 34.2217V35.7885C182.093 36.232 180.452 35.5774 179.111 36.9838C179.221 37.5328 179.246 38.2423 179.495 38.8547C182.13 45.2912 184.795 51.7151 187.464 58.1389C187.511 58.2529 187.662 58.3205 187.915 58.5443C188.818 56.327 189.707 54.1731 190.572 52.0065C191.82 48.8727 193.072 45.7431 194.278 42.5925C194.628 41.6802 194.919 40.7215 195.087 39.7628C195.48 37.5159 194.506 36.2785 192.233 36.0208C191.748 35.9659 191.259 35.9617 190.542 35.9195C190.508 35.3282 190.479 34.7623 190.441 34.1076H202.787C202.846 34.5342 202.913 34.8045 202.913 35.079C202.913 35.2775 202.837 35.4802 202.825 35.5351C201.728 36.0546 200.501 36.2996 199.81 37.0429C198.882 38.0354 198.229 39.3573 197.706 40.637C194.375 48.7629 191.116 56.9225 187.831 65.0653C187.57 65.7115 187.287 66.3492 186.967 67.0967H184.336C183.804 65.872 183.231 64.6007 182.704 63.3168C179.432 55.3937 176.173 47.4705 172.909 39.5474C172.774 39.2222 172.618 38.9054 172.504 38.5718C171.935 36.9204 170.793 36.0631 169.043 36.0082C168.764 35.9997 168.49 35.9364 167.976 35.8688Z" fill="white"/>
<path d="M247.481 47.6815C247.548 47.0058 247.59 46.6088 247.632 46.1611C248.012 46.1062 248.278 46.0344 248.547 46.0302C251.562 46.0217 254.577 46.026 257.705 46.026C257.794 46.5792 257.866 47.0227 257.946 47.5126C257.162 47.8251 256.474 48.0954 255.833 48.3488C255.8 49.865 258.296 55.8919 260.185 58.8694C260.522 58.1218 260.805 57.5263 261.062 56.9224C261.8 55.1781 262.542 53.4296 263.258 51.6769C264.081 49.6581 263.554 48.5853 261.424 47.8843C261.23 47.8209 261.041 47.7576 260.754 47.6646V46.1611H271.847C271.923 46.5623 272.008 47.0058 272.1 47.4999C271.249 47.8082 270.49 48.0828 269.794 48.3319C269.714 50.1776 271.877 55.4611 274.082 58.9496C275.233 56.141 276.414 53.4423 277.438 50.6844C278.05 49.0457 277.527 48.3742 275.284 47.5084C275.313 47.0945 275.343 46.6426 275.381 46.1147H283.147C283.232 46.6172 283.308 47.0649 283.371 47.445C282.346 48.1334 281.241 48.5853 280.567 49.3962C279.829 50.2832 279.437 51.4784 278.986 52.5807C277.257 56.8041 275.566 61.0487 273.854 65.2805C273.618 65.8634 273.353 66.4335 273.07 67.0839C272.581 67.1219 272.117 67.1599 271.75 67.1937C271.59 67.067 271.51 67.0332 271.485 66.9783C269.398 62.4677 267.315 57.9529 265.063 53.0706C263.069 57.9318 261.192 62.4973 259.295 67.1135H257.659C257.381 66.5307 257.065 65.9183 256.782 65.289C254.581 60.3476 252.38 55.4104 250.204 50.4605C249.656 49.2146 249.104 48.0152 247.468 47.6815H247.481Z" fill="white"/>
<path d="M92.7256 46.0516H97.6082C97.6419 46.7781 97.6714 47.3693 97.7136 48.1802H92.8479C92.2871 50.2793 92.3672 62.6792 92.9701 64.47C94.3152 64.5418 95.7572 64.6178 97.3299 64.7023C97.4184 65.1584 97.5028 65.6018 97.5787 65.982C96.9462 66.5479 86.6329 66.7084 82.9435 66.2734C82.8971 65.8553 82.8423 65.4076 82.7791 64.8332C84.0145 64.66 85.1529 64.4995 86.207 64.3517C86.7172 62.5441 86.7973 50.5749 86.3419 48.3365C85.4143 48.2774 84.453 48.214 83.3061 48.1422C83.2429 47.5594 83.1838 46.9723 83.0953 46.1446C84.2548 46.077 85.271 46.0136 86.5064 45.9418C86.6413 44.6621 86.7088 43.412 86.9196 42.1914C87.122 41.0216 87.3328 39.8263 87.7755 38.7367C89.7066 33.9642 94.1549 32.41 99.105 33.6559C101.782 34.3274 103.056 36.6165 102.562 39.1337C102.191 41.0131 100.513 42.1745 98.7002 41.8831C96.9251 41.6002 95.5 39.159 96.9884 37.495C97.4058 37.0304 97.8359 36.5785 98.2575 36.1182C97.1106 35.0243 96.124 34.8723 94.9139 35.5902C93.8218 36.2406 93.2526 37.2585 92.9364 38.4622C92.422 40.4472 92.3081 43.2853 92.7256 46.0516Z" fill="white"/>
<path d="M241.616 60.2507C242.096 60.4998 242.509 60.7152 242.94 60.9391C242.859 61.2263 242.838 61.4332 242.746 61.6064C238.533 69.4577 227.52 67.9626 223.94 62.9917C221.229 59.2286 221.044 53.4129 223.73 49.5358C226.677 45.2829 231.99 43.9483 236.421 45.5152C239.984 46.7737 241.885 49.5316 242.552 53.1722C242.724 54.114 242.708 55.0939 242.792 56.2595H228.815C228.035 59.3342 229.413 63.1268 231.876 64.2418C236.349 66.2648 239.115 63.5534 241.616 60.2549V60.2507ZM228.642 54.4561C231.037 54.4561 233.259 54.4899 235.481 54.4392C236.459 54.4181 237.079 53.7973 237.037 52.8217C236.982 51.6476 236.906 50.4354 236.547 49.3331C236.063 47.8338 234.941 46.9258 233.267 46.8329C231.513 46.7357 230.316 47.5635 229.561 49.067C228.764 50.6593 228.444 52.3571 228.637 54.4604L228.642 54.4561Z" fill="white"/>
<path d="M41.1293 56.3269C40.3619 60.4997 42.4996 64.2205 45.9487 64.8118C48.4279 65.2341 50.4687 64.2121 52.1468 62.434C52.7666 61.7752 53.2979 61.0361 53.9683 60.2167C54.4574 60.487 54.9043 60.7362 55.3428 60.9769C52.7961 66.4294 47.5298 67.8991 42.3394 66.7292C37.4062 65.6142 34.2903 61.6822 34.1722 56.5846C34.0457 51.1617 36.9213 46.8158 41.6985 45.4432C45.4047 44.3789 48.9592 44.645 51.9191 47.424C54.3731 49.73 55.2374 52.6864 55.0688 56.2763C50.4265 56.3354 45.8306 56.2932 41.1251 56.3269H41.1293ZM40.889 54.4686C42.7611 54.4686 44.4265 54.4011 46.0878 54.4813C49.5031 54.646 49.638 53.8647 49.3682 50.6169C49.3387 50.2748 49.2206 49.9327 49.0941 49.6117C48.4574 48.0026 47.4455 46.8918 45.5692 46.8158C43.6971 46.7398 42.5629 47.7196 41.8166 49.2907C41.0871 50.8323 40.8805 52.4752 40.889 54.4644V54.4686Z" fill="white"/>
<path d="M120.583 60.2336C121.047 60.4659 121.46 60.6771 121.819 60.8587C121.831 61.1121 121.895 61.2726 121.84 61.3739C117.763 69.4787 106.475 68.0216 102.815 62.8394C98.3756 56.5466 101.39 46.1232 110.236 45.0251C117.539 44.117 121.937 49.5821 121.667 55.4991C121.659 55.6934 121.549 55.8793 121.427 56.2425H107.888C106.977 59.0384 108.314 62.7423 110.633 64.1318C112.479 65.2383 114.339 65.0779 116.27 64.2754C118.197 63.4772 119.234 61.7667 120.579 60.2336H120.583ZM107.631 54.456C110.017 54.456 112.239 54.4855 114.465 54.4433C115.444 54.4264 116.047 53.8436 116.042 52.8426C116.038 51.8712 116.038 50.8618 115.794 49.9327C115.275 47.9603 114.002 46.9214 112.286 46.8285C110.489 46.7271 109.216 47.5464 108.385 49.4301C107.728 50.921 107.432 52.4921 107.631 54.456Z" fill="white"/>
<path d="M142.614 47.9731C139.865 45.7263 136.007 46.3809 134.666 49.3288C132.874 53.2693 132.824 57.3998 134.236 61.4416C135.379 64.7063 138.992 65.9184 142.269 64.3938C143.706 63.7222 144.824 62.6791 145.642 61.3191C146 60.7236 146.35 60.1239 146.759 59.4355C147.244 59.596 147.674 59.7396 148.1 59.8789C148.117 60.1957 148.197 60.428 148.125 60.5969C146.514 64.3262 143.618 66.4886 139.675 67.0756C136.332 67.574 133.094 67.1136 130.302 64.9386C128.818 63.7814 127.802 62.3285 127.245 60.5167C125.133 53.6832 128.831 46.0515 137.078 45.0885C138.992 44.8647 140.856 44.8182 142.707 45.2701C144.849 45.7896 146.595 46.9088 147.446 49.0543C148.462 51.6264 146.835 54.1435 144.217 54.1309C142.205 54.1224 140.949 52.5217 141.518 50.5874C141.771 49.7216 142.214 48.9107 142.618 47.9731H142.614Z" fill="white"/>
<path d="M166.555 45.9374C166.597 46.8286 166.618 47.3607 166.656 48.1801H160.053C160.003 49.0628 159.935 49.6752 159.935 50.2918C159.923 53.6663 159.927 57.045 159.927 60.4196C159.927 60.7701 159.918 61.1249 159.935 61.4754C160.032 63.1648 160.69 64.0264 162.005 64.208C163.287 64.3853 164.333 63.7265 164.915 62.2863C165.147 61.7077 165.261 61.0742 165.395 60.4618C165.526 59.8536 165.619 59.2412 165.741 58.5401H167.183C167.293 58.7091 167.436 58.8231 167.432 58.9371C167.386 62.3285 166.336 65.1709 162.992 66.6364C158.927 68.4145 155.082 66.4084 154.214 62.0625C154.049 61.2431 154.024 60.39 154.02 59.5495C153.994 56.0314 153.998 52.5175 153.99 48.9994C153.99 48.8643 153.927 48.7291 153.842 48.3701C152.898 48.3026 151.882 48.2265 150.634 48.1378C150.587 47.5973 150.537 47.0355 150.478 46.4062C152.645 45.8656 154.58 45.2364 155.871 43.4921C157.11 41.8154 157.663 39.8684 157.962 37.6807H159.927C159.927 39.0997 159.927 40.4217 159.927 41.7478C159.927 43.074 159.927 44.4001 159.927 45.9459H166.551L166.555 45.9374Z" fill="white"/>
<path d="M68.3252 45.5194V51.1196C68.4264 51.1408 68.5276 51.1619 68.6288 51.183C68.945 50.5368 69.2402 49.878 69.5733 49.2402C70.5979 47.2806 72.0905 45.8742 74.2999 45.38C76.543 44.8774 78.7777 45.9882 79.5198 47.8887C79.9035 48.877 79.836 49.8146 79.4017 50.748C78.862 51.9052 77.5634 52.5978 76.4882 52.3275C75.2654 52.0192 74.3969 50.7987 74.5191 49.4472C74.5866 48.7081 74.7848 47.9859 74.9323 47.2045C73.6801 46.7864 72.9591 47.4664 72.4657 48.1632C71.6983 49.236 71.0026 50.3974 70.5177 51.618C68.945 55.5753 69.1095 59.7143 69.354 64.0686C70.0413 64.2545 70.6653 64.4994 71.3146 64.5797C72.0019 64.6641 72.7061 64.6008 73.5873 64.6008C73.6295 65.2005 73.6632 65.6989 73.7054 66.3282H59.631V64.7402C60.2761 64.6853 60.8875 64.6515 61.4946 64.5797C62.7722 64.4276 63.3035 63.9842 63.3161 62.7256C63.3583 58.65 63.3709 54.5744 63.2992 50.503C63.2697 48.8221 62.5782 48.1844 60.8832 47.8592C60.5459 47.7958 60.2002 47.762 59.7364 47.6944C59.6942 47.2172 59.6563 46.7695 59.593 46.0811C62.477 45.8953 65.2388 45.7179 68.3252 45.5194Z" fill="white"/>
<path d="M205.139 66.2946V64.7826C205.531 64.715 205.856 64.6474 206.189 64.6094C208.036 64.3982 208.382 64.0815 208.399 62.2654C208.428 58.6797 208.411 55.094 208.411 51.5084C208.411 48.5731 208.259 48.3957 205.219 47.7073C205.169 47.2934 205.118 46.833 205.034 46.1446C206.573 46.0306 208.015 45.9081 209.457 45.8236C210.92 45.7392 212.387 45.6885 214.036 45.6167C214.091 46.3642 214.171 46.9724 214.171 47.5806C214.179 52.1503 214.167 56.7201 214.184 61.2898C214.184 62.1894 214.289 63.089 214.356 64.1364C215.318 64.3856 216.165 64.6052 217.169 64.867C217.203 65.2345 217.249 65.6822 217.308 66.2988H205.144L205.139 66.2946Z" fill="white"/>
<path d="M68.0469 74.3314H69.4805C68.5445 78.2929 67.2795 82.0349 66.1369 85.9035H64.5009C63.586 82.8373 62.671 79.7796 61.756 76.7176C61.6338 76.7092 61.5115 76.7049 61.3892 76.6965C60.4953 79.7162 59.6015 82.736 58.6738 85.8655H56.9578C55.8404 82.0391 54.7484 78.3056 53.6057 74.3989H55.17C56.0049 77.4609 56.8439 80.544 57.8221 84.1255C58.8551 80.6412 59.7575 77.5834 60.6851 74.4538C61.2206 74.3863 61.6801 74.3314 62.3969 74.2427C63.333 77.4187 64.2606 80.5525 65.3105 84.1086C66.2971 80.5989 67.1741 77.4736 68.0554 74.3314H68.0469Z" fill="white"/>
<path d="M124.985 86.0219C124.441 85.9417 123.986 85.8741 123.48 85.7981C122.544 82.639 121.629 79.5601 120.571 75.9998C119.529 79.5981 118.627 82.7108 117.704 85.8868H116.004C114.887 82.1153 113.778 78.3649 112.619 74.4413C113.209 74.4033 113.647 74.3738 114.183 74.3357C115.022 77.4146 115.832 80.3837 116.759 83.7962C117.687 82.1026 117.851 80.5273 118.34 79.0829C118.855 77.5624 119.26 76.004 119.732 74.3991C120.293 74.3611 120.761 74.3315 121.431 74.2851C122.35 77.3935 123.257 80.4639 124.298 83.9905C124.703 82.6854 124.99 81.8365 125.234 80.975C125.744 79.1504 126.221 77.3133 126.739 75.4887C126.929 74.8299 127.068 74.0359 128.101 74.3526C128.27 75.7421 126.588 82.1026 124.981 86.0135L124.985 86.0219Z" fill="white"/>
<path d="M83.9344 82.918V74.4078C84.394 74.374 84.7102 74.3487 85.1698 74.3149V85.7012C84.2295 86.3896 83.6266 85.8617 83.0995 85.1057C81.8599 83.3192 80.633 81.5285 79.3891 79.742C78.7988 78.8888 78.1874 78.0526 77.2261 77.2755C77.1797 80.1432 77.1333 83.0151 77.0869 85.8533C75.8052 86.208 75.666 85.5618 75.666 84.7721C75.666 82.3858 75.666 79.9996 75.6702 77.6134C75.6702 76.5744 75.6702 75.5355 75.6702 74.6147C77.0279 73.8503 77.5845 74.657 78.1073 75.4003C79.5957 77.5247 81.0462 79.6744 82.5219 81.8114C82.8255 82.2507 83.167 82.6604 83.4917 83.0827C83.6393 83.0278 83.7868 82.9687 83.9344 82.9138V82.918Z" fill="white"/>
<path d="M195.551 74.4961C196.82 73.909 197.36 74.7072 197.887 75.459C199.414 77.6467 200.915 79.8556 202.428 82.0518C202.66 82.3854 202.909 82.7106 203.457 83.4539C203.874 80.1512 203.495 77.2286 203.748 74.3483H204.92V85.705C203.95 86.3597 203.36 85.8191 202.837 85.0631C201.399 82.9851 199.97 80.8988 198.528 78.8251C198.14 78.2634 197.718 77.727 197.086 76.8739C196.694 80.1132 197.132 83.0316 196.749 86.0345C196.222 85.95 195.91 85.8993 195.551 85.8402V74.4919V74.4961Z" fill="white"/>
<path d="M88.467 85.7009V74.1963C90.4783 74.2892 92.3672 74.1963 94.1887 74.5088C96.3855 74.8805 97.8233 76.6839 98.0172 78.9307C98.1015 79.9021 98.11 80.9031 97.9582 81.8576C97.6588 83.7412 96.5246 85.004 94.7284 85.646C93.3834 86.1274 90.2 86.1528 88.467 85.7009ZM89.9765 75.5478C89.9217 78.804 89.9301 81.7647 89.9596 84.8773C92.3124 84.7928 94.5598 85.249 95.8711 83.0612C96.9842 81.2029 97.0137 79.1123 95.8795 77.2709C94.5555 75.1212 92.304 75.552 89.9765 75.5478Z" fill="white"/>
<path d="M181.498 81.0761V85.7641C180.929 85.8317 180.503 85.8824 179.946 85.9457V74.3482C181.806 74.3482 183.543 74.2553 185.267 74.3778C186.515 74.4665 187.523 75.1084 187.856 76.4726C188.223 77.9635 187.856 78.9264 186.515 79.8936C186.296 80.0498 186.081 80.2103 185.811 80.4088C187.987 81.6083 187.953 83.7664 188.582 85.8739H187.068C186.836 84.9828 186.646 84.1634 186.41 83.361C185.837 81.3929 185.352 81.0297 183.265 80.979C182.78 80.9663 182.291 81.0297 181.498 81.0761ZM181.536 79.8598C182.826 79.7669 183.876 79.8049 184.867 79.5852C185.946 79.3445 186.494 78.4491 186.461 77.4271C186.427 76.4008 185.824 75.7293 184.576 75.5941C183.585 75.4885 182.573 75.573 181.532 75.573V79.8598H181.536Z" fill="white"/>
<path d="M217.848 77.609C217.025 77.9173 216.701 77.609 216.304 77.0979C214.972 75.3621 213.745 74.9651 211.945 75.5268C210.246 76.059 209.326 77.2838 209.179 79.3279C209.128 80.0248 209.149 80.7385 209.242 81.4269C209.613 84.1426 212.101 85.6673 214.677 84.7592C216.005 84.2904 216.612 83.2472 216.773 81.9591C215.942 80.7174 214.04 82.3054 213.366 80.4809C215.023 79.8643 216.566 80.2655 218.088 80.2233C218.425 83.5344 217.127 85.587 214.508 86.1361C211.54 86.7569 208.82 85.3083 207.931 82.6095C207.336 80.8103 207.349 79.0069 208.074 77.2542C209.381 74.0993 213.977 73.0223 216.612 75.2185C217.304 75.7971 217.489 76.1435 217.848 77.609Z" fill="white"/>
<path d="M145.566 81.0806C145.566 75.814 148.496 73.3855 152.687 74.2936C155.192 74.8384 156.693 76.8741 156.811 79.9023C157.001 84.6747 152.919 87.5931 148.665 85.6968C146.308 84.6452 145.604 82.601 145.566 81.0848V81.0806ZM147.189 80.2866C147.193 80.4133 147.197 80.692 147.223 80.9708C147.421 83.395 148.652 84.7761 150.739 84.9239C153.197 85.0971 154.69 83.9863 155.061 81.41C155.225 80.2739 155.103 79.028 154.804 77.913C154.289 75.9956 152.548 75.0369 150.583 75.3452C148.353 75.6957 147.202 77.3175 147.189 80.2866Z" fill="white"/>
<path d="M100.501 80.1513C100.366 76.0545 103.359 73.2333 107.892 74.3694C109.098 74.6693 110.059 75.3661 110.688 76.4558C112.062 78.8505 112.011 81.3254 110.776 83.7074C109.739 85.7093 107.154 86.6342 104.73 86.1105C102.432 85.6121 100.846 83.8679 100.509 81.4183C100.45 81.0044 100.501 80.5778 100.501 80.1555V80.1513ZM110.232 80.1766C110.038 79.315 109.937 78.4703 109.654 77.6932C109.06 76.0799 107.812 75.2943 106.075 75.3112C104.295 75.3281 102.853 76.2615 102.377 77.8748C101.93 79.3742 101.892 80.9284 102.385 82.4277C102.921 84.0664 104.123 84.8942 105.855 84.9448C107.833 84.9997 109.005 84.3198 109.638 82.6093C109.924 81.8322 110.038 80.9917 110.232 80.1808V80.1766Z" fill="white"/>
<path d="M228.258 77.0386C227.28 77.5623 226.972 77.064 226.555 76.5191C225.644 75.3324 224.535 75.0283 223.228 75.4548C222.524 75.6829 221.95 76.0334 221.878 76.8739C221.803 77.7693 222.182 78.3521 223.034 78.6393C224.231 79.0363 225.45 79.3784 226.609 79.8599C228.292 80.5609 228.92 81.7013 228.667 83.3357C228.625 83.6103 228.545 83.8848 228.435 84.1382C227.76 85.6924 225.64 86.5286 223.333 86.1654C221.225 85.8318 220.318 84.8815 220.112 82.736C220.689 82.3094 221.09 82.4953 221.465 83.0654C222.625 84.8139 223.696 85.2827 225.454 84.8562C226.352 84.6365 226.985 84.0959 227.145 83.1837C227.313 82.225 226.795 81.5577 225.943 81.1987C225.172 80.8735 224.354 80.6539 223.569 80.354C222.852 80.0837 222.094 79.8599 221.453 79.4544C219.943 78.4957 219.791 76.3037 221.098 75.0789C222.836 73.4487 227.187 73.8204 228.072 76.1686C228.165 76.422 228.186 76.7007 228.258 77.0344V77.0386Z" fill="white"/>
<path d="M171.446 84.911H177.134C177.176 85.0419 177.223 85.1729 177.265 85.3038C177.012 85.5361 176.763 85.9626 176.506 85.9669C174.351 86.0218 172.192 85.9964 169.835 85.9964C169.599 82.0264 169.76 78.2211 169.717 74.4581C172.644 74.0357 175.806 74.1455 177.176 74.6692C177.214 75.5435 176.535 75.4421 176.017 75.4717C175.249 75.5181 174.473 75.4928 173.706 75.4928C173.015 75.4928 172.319 75.4928 171.471 75.4928V79.2474C173.247 79.3361 174.996 79.4248 177.071 79.5304C176.168 80.9368 175.119 80.4975 174.25 80.5609C173.36 80.6285 172.462 80.5736 171.442 80.5736V84.8983L171.446 84.911Z" fill="white"/>
<path d="M143.782 77.6005C142.821 78.0778 142.484 77.6976 142.066 77.0979C140.856 75.3494 139.195 74.9102 137.327 75.6408C134.928 76.5827 134.679 79.3448 135.172 82.052C135.535 84.0412 137.264 85.114 139.435 84.9197C140.73 84.8014 141.644 84.2144 142.193 82.9811C142.568 82.1449 142.644 82.1829 143.723 82.3941C143.272 84.5058 141.99 85.9164 140.093 86.1445C137.824 86.4148 135.653 86.0558 134.375 83.9103C132.9 81.4354 132.853 78.8211 134.434 76.3462C135.725 74.3189 137.74 73.9008 139.966 74.2176C141.931 74.4963 143.327 75.4635 143.786 77.6005H143.782Z" fill="white"/>
<path d="M210.743 34.1878C212.64 34.2132 214.243 35.7843 214.255 37.6299C214.268 39.5769 212.594 41.1522 210.579 41.0847C208.643 41.0213 207.142 39.4586 207.189 37.5539C207.235 35.6576 208.812 34.1625 210.743 34.1878Z" fill="white"/>
<path d="M161.98 86.005C160.542 82.0223 159.214 78.3395 157.819 74.4751C158.392 74.4117 158.814 74.3652 159.345 74.3061C160.488 77.5582 161.592 80.7046 162.857 84.2987C163.228 83.4414 163.456 82.981 163.625 82.5038C164.459 80.1218 165.29 77.7398 166.1 75.3493C166.382 74.5257 166.762 73.9598 167.997 74.5088C166.644 78.2381 165.294 81.9547 163.886 85.8403C163.304 85.891 162.718 85.9416 161.98 86.005Z" fill="white"/>
<path d="M191.866 74.2935V85.8614H190.454V74.5004C190.896 74.4371 191.314 74.3737 191.866 74.2935Z" fill="white"/>
<path d="M71.1587 74.3693C71.6604 74.3398 71.9935 74.3187 72.2676 74.3018C72.7483 74.8804 72.8706 81.8828 72.5164 85.819C72.1158 85.8401 71.69 85.8613 71.1587 85.8866V74.3693Z" fill="white"/>
</g>
<defs>
<clipPath id="clip0_573_486">
<rect width="291" height="120" fill="white" transform="translate(0.5 0.333008)"/>
</clipPath>
</defs>
</svg>
