<svg width="48" height="48" viewBox="0 0 48 48" fill="none" xmlns="http://www.w3.org/2000/svg">
<path d="M43.7812 5.71875C41.455 5.71875 39.5625 7.61128 39.5625 9.9375V11.5856C39.1223 11.4295 38.6492 11.3438 38.1562 11.3438C35.83 11.3438 33.9375 13.2363 33.9375 15.5625V16.0775C33.3294 15.3286 32.6343 14.6451 31.864 14.0459C30.9307 13.3199 29.9012 12.7304 28.8132 12.2889C30.3418 10.8997 31.125 9.03891 31.125 7.125C31.125 3.23578 27.8865 0 24 0C20.1108 0 16.875 3.2385 16.875 7.125C16.875 9.03881 17.6581 10.8996 19.1868 12.2889C18.0988 12.7303 17.0693 13.3199 16.136 14.0459C15.3657 14.6451 14.6706 15.3286 14.0625 16.0775V15.5625C14.0625 13.2363 12.17 11.3438 9.84375 11.3438C9.35081 11.3438 8.87766 11.4295 8.4375 11.5856V9.9375C8.4375 7.61128 6.54497 5.71875 4.21875 5.71875C1.89253 5.71875 0 7.61128 0 9.9375V25.2545C0 26.5285 0.3465 27.7794 1.002 28.872L7.83628 40.2625C8.22966 40.918 8.4375 41.6686 8.4375 42.433V46.5938C8.4375 47.3704 9.06713 48 9.84375 48C11.0864 48 36.9136 48 38.1562 48C38.9329 48 39.5625 47.3704 39.5625 46.5938V42.433C39.5625 41.6686 39.7703 40.918 40.1637 40.2625L46.998 28.872C47.6535 27.7794 48 26.5285 48 25.2545V9.9375C48 7.61128 46.1075 5.71875 43.7812 5.71875ZM36.75 15.5625C36.75 14.7871 37.3808 14.1562 38.1562 14.1562C38.9317 14.1562 39.5625 14.7871 39.5625 15.5625C39.5625 16.1588 39.5625 20.5918 39.5625 21.1871C39.5625 21.5627 39.4162 21.9158 39.1507 22.1814L39.1505 22.1815C38.9497 21.7601 38.6751 21.3655 38.3266 21.0171C37.8667 20.5571 37.326 20.226 36.75 20.0231V15.5625ZM24 2.8125C26.3377 2.8125 28.3125 4.78734 28.3125 7.125C28.3125 9.41184 26.3377 11.3438 24 11.3438C21.6623 11.3438 19.6875 9.41184 19.6875 7.125C19.6875 4.78734 21.6623 2.8125 24 2.8125ZM8.4375 15.5625C8.4375 14.7871 9.06834 14.1562 9.84375 14.1562C10.6192 14.1562 11.25 14.7871 11.25 15.5625V20.0208C10.6637 20.2276 10.1261 20.5643 9.67341 21.0172C9.32494 21.3656 9.05034 21.7602 8.84934 22.1814C8.58375 21.9158 8.4375 21.5627 8.4375 21.1871C8.4375 20.591 8.4375 16.1586 8.4375 15.5625ZM22.5937 45.1875H11.25V42.433C11.25 41.159 10.9035 39.9081 10.248 38.8155L3.41372 27.425C3.02034 26.7695 2.8125 26.0189 2.8125 25.2545V9.9375C2.8125 9.16209 3.44334 8.53125 4.21875 8.53125C4.99416 8.53125 5.625 9.16209 5.625 9.9375C5.625 10.4231 5.625 20.737 5.625 21.1871V21.1906C5.625 21.1917 5.62519 21.1927 5.62519 21.1939C5.62697 22.3182 6.06544 23.3751 6.86063 24.1702L14.4743 31.784C15.0234 32.3332 15.9139 32.3332 16.4631 31.784C17.0123 31.2349 17.0123 30.3443 16.4631 29.7952L11.662 24.9942C11.1139 24.446 11.1139 23.5541 11.662 23.0059C12.204 22.464 13.0901 22.4457 13.6565 23.012L21.358 30.6198C22.1549 31.4167 22.5937 32.476 22.5937 33.6029V45.1875ZM23.9997 29.3842C23.7997 29.1186 23.5804 28.8646 23.3408 28.625L15.6393 21.0172C15.3752 20.7531 15.0818 20.5293 14.7672 20.3468C16.2514 16.6956 19.9477 14.1562 24 14.1562C28.0522 14.1562 31.7484 16.6955 33.2328 20.3465C32.923 20.5255 32.6314 20.7467 32.367 21.0111L24.6532 28.6311C24.4158 28.8685 24.1983 29.1205 23.9997 29.3842ZM44.5863 27.425L37.752 38.8155C37.0965 39.9081 36.75 41.159 36.75 42.433V45.1875H25.4062V33.6029C25.4062 32.476 25.8451 31.4166 26.6358 30.6259L34.3495 23.0059C34.8978 22.4577 35.7896 22.4577 36.3379 23.0059C36.8917 23.5597 36.8831 24.4471 36.3396 24.9924L31.5368 29.7952C30.9877 30.3442 30.9877 31.2348 31.5368 31.7839C32.0859 32.3331 32.9764 32.3331 33.5256 31.7839L41.1393 24.1702C41.9343 23.3752 42.3727 22.3188 42.3747 21.1949C42.3747 21.1936 42.3749 21.1925 42.3749 21.1912V21.1871C42.3749 20.8794 42.3749 10.2283 42.3749 9.9375C42.3749 9.16209 43.0057 8.53125 43.7812 8.53125C44.5566 8.53125 45.1874 9.16209 45.1874 9.9375V25.2545H45.1875C45.1875 26.0189 44.9797 26.7695 44.5863 27.425Z" fill="currentColor"/>
</svg>
