<svg width="101" height="104" viewBox="0 0 101 104" fill="none" xmlns="http://www.w3.org/2000/svg">
<path d="M16.1955 94.2984C19.2347 97.396 22.7414 100.168 26.7657 101.863C30.3309 103.357 34.2968 103.75 37.9538 102.347C42.3622 100.652 45.4681 96.6696 47.5972 92.6118C49.1084 89.723 50.3024 86.6755 51.7134 83.7365C53.2246 80.5972 54.8778 77.4996 56.9651 74.6942C58.9606 72.0141 61.4237 69.6011 64.4628 68.1484C67.4268 66.7206 70.8083 66.4034 74.0227 66.9795C76.6611 67.447 79.191 68.4239 81.8627 68.666C84.2172 68.8747 86.5717 68.3988 88.7175 67.4387C89.4189 67.2466 90.1118 66.9795 90.7798 66.6204C93.2261 65.2845 95.088 63.0302 96.4657 60.6423C99.4714 55.424 100.682 49.2957 100.248 43.3259C99.2209 29.249 90.688 16.7334 79.1242 9.01027C68.8128 2.13045 55.9966 -1.28442 43.648 0.44389C37.4361 1.31222 31.3996 3.58323 26.2147 7.13168C21.1383 10.6133 16.6213 15.0301 12.789 19.8393C5.59189 28.8649 1.14173 39.9194 0.44039 51.4665C-0.219204 62.2371 2.17704 73.35 7.53729 82.7346C9.92519 86.9092 12.8224 90.8585 16.1955 94.2984Z" fill="#DBD3C8"/>
</svg>
