<svg xmlns="http://www.w3.org/2000/svg" fill="none" viewBox="0.67 0.38 48 44.81"><path d="M47.2603 36.7528H43.979V16.785L45.4018 13.8193L48.054 12.0056C48.4373 11.7435 48.6665 11.3092 48.6665 10.8448C48.6665 10.3805 48.4373 9.94612 48.054 9.684L45.4018 7.87031L43.979 4.90471V1.78406C43.979 1.00743 43.3494 0.377808 42.5728 0.377808H6.7685C5.99188 0.377808 5.36225 1.00743 5.36225 1.78406V36.7528H2.07275C1.29613 36.7528 0.666504 37.3824 0.666504 38.1591V43.7841C0.666504 44.5607 1.29613 45.1903 2.07275 45.1903H47.2603C48.0369 45.1903 48.6665 44.5607 48.6665 43.7841V38.1591C48.6665 37.3824 48.0369 36.7528 47.2603 36.7528ZM8.17475 21.3707H23.2603V36.7386H8.17475V21.3707ZM26.0728 21.3707H41.1665V36.7386H26.0728V21.3707ZM43.5032 11.7105C43.2994 11.8499 43.1359 12.0404 43.0291 12.2631L42.5997 13.1582L42.1702 12.2631C42.0634 12.0404 41.8999 11.8499 41.6961 11.7105L40.4304 10.8449L41.6961 9.97931C41.8999 9.8399 42.0634 9.6494 42.1702 9.42675L42.5997 8.53162L43.0291 9.42665C43.1359 9.64931 43.2994 9.83981 43.5032 9.97921L44.769 10.8448L43.5032 11.7105ZM41.1665 5.01693L39.7975 7.8704L37.1453 9.68409C36.762 9.94621 36.5328 10.3806 36.5328 10.8449C36.5328 11.3092 36.762 11.7436 37.1453 12.0057L39.7975 13.8194L41.1665 16.6729V18.5582H26.0728V3.19031H41.1665V5.01693ZM23.2603 3.19031V18.5582H8.17475V3.19031H23.2603ZM45.854 42.3778H3.479V39.5653H45.854V42.3778Z" fill="currentColor"></path><path d="M20.5438 27.9037L18.4895 26.0342L16.9187 23.5741C16.6604 23.1694 16.2135 22.9246 15.7334 22.9246C15.2533 22.9246 14.8065 23.1694 14.5482 23.5741L12.9774 26.0342L10.9231 27.9036C10.6303 28.1702 10.4634 28.5477 10.4634 28.9437C10.4634 29.3397 10.6303 29.7172 10.9231 29.9837L12.9774 31.8532L14.5482 34.3133C14.8064 34.7179 15.2533 34.9628 15.7334 34.9628C16.2135 34.9628 16.6603 34.7179 16.9187 34.3133L18.4894 31.8532L20.5437 29.9837C20.8365 29.7172 21.0034 29.3397 21.0034 28.9437C21.0035 28.5478 20.8366 28.1702 20.5438 27.9037ZM16.4583 29.899C16.3666 29.9825 16.2864 30.0778 16.2196 30.1822L15.7336 30.9435L15.2475 30.1822C15.1808 30.0777 15.1005 29.9824 15.0088 29.899L13.9591 28.9438L15.0088 27.9886C15.1005 27.905 15.1808 27.8099 15.2475 27.7053L15.7336 26.9441L16.2197 27.7053C16.2865 27.8099 16.3667 27.9051 16.4584 27.9886L17.508 28.9439L16.4583 29.899Z"fill="currentColor"></path></svg>