<svg xmlns="http://www.w3.org/2000/svg" fill="none" viewBox="0 0 24 25"><path fill="#ae9f91" d="M24 7.587c0-1.163-.946-2.11-2.11-2.11h-3.75V3.966c0-1.22-.992-2.214-2.213-2.214H8.073c-1.22 0-2.214.993-2.214 2.214v1.513H2.11A2.11 2.11 0 0 0 0 7.588v3.327c0 .62.202 1.394.938 2.152v7.739c0 1.163.946 2.11 2.109 2.11h17.906c1.163 0 2.11-.947 2.11-2.11v-7.739c.735-.758.937-1.531.937-2.152zM7.266 3.965c0-.445.362-.808.807-.808h7.854c.445 0 .807.363.807.808v1.513H7.266zm-5.86 3.622c0-.388.316-.703.703-.703h19.782c.387 0 .703.315.703.703v3.328c0 1.73-3.32 3.142-8.157 3.512v-.652a.703.703 0 0 0-.703-.703h-3.468a.703.703 0 0 0-.703.703v.652c-4.833-.37-8.157-1.786-8.157-3.512zm11.625 6.89v.915c0 .504-.41.914-.914.914h-.234a.915.915 0 0 1-.914-.914v-.914zm7.922 7.032H3.047a.704.704 0 0 1-.703-.703v-6.707c2.093 1.073 4.294 1.487 7.262 1.741a2.324 2.324 0 0 0 2.277 1.872h.234a2.324 2.324 0 0 0 2.277-1.872c2.452-.178 4.666-.628 6.282-1.282q.546-.22.98-.459v6.707a.704.704 0 0 1-.703.703"/></svg>