<svg xmlns="http://www.w3.org/2000/svg" fill="none" viewBox="0 0 24 25"><g fill="#ae9f91" clip-path="url(#a)"><path d="M21.79 3.346h-3.367L16.758 1.68a.703.703 0 0 0-.995 0l-.831.831a7 7 0 0 0-.723-.3V1.036a.703.703 0 0 0-.703-.703h-3.012a.703.703 0 0 0-.703.703v1.175a7 7 0 0 0-.723.3l-.831-.831a.703.703 0 0 0-.994 0L5.577 3.345H2.209A2.21 2.21 0 0 0 0 5.555v12.05c0 1.218.991 2.21 2.21 2.21h6.074v3.112H6.728a.703.703 0 0 0 0 1.406h10.544a.703.703 0 0 0 0-1.406h-1.556v-3.113h6.075c1.218 0 2.209-.99 2.209-2.21V5.555a2.21 2.21 0 0 0-2.21-2.208M7.308 5.01l-.703-.703L7.74 3.171l.703.703a.7.7 0 0 0 .855.108 5.3 5.3 0 0 1 1.371-.569c.31-.08.528-.36.528-.68v-.994h1.606v.994c0 .32.217.6.528.68.48.124.942.316 1.371.57a.7.7 0 0 0 .855-.109l.703-.703 1.136 1.136-.703.703a.7.7 0 0 0-.108.855 5.3 5.3 0 0 1 .569 1.372c.08.31.36.527.68.527h.994v1.607h-.993a.7.7 0 0 0-.681.527c-.124.48-.315.942-.57 1.372a.7.7 0 0 0 .109.854l.703.704-1.136 1.136-.703-.704a.7.7 0 0 0-.855-.108 5.3 5.3 0 0 1-1.371.57.7.7 0 0 0-.528.68v.994h-1.606v-.994c0-.32-.217-.6-.528-.68a5.3 5.3 0 0 1-1.371-.57.7.7 0 0 0-.855.108l-.703.704-1.136-1.136.703-.703a.7.7 0 0 0 .108-.856 5.3 5.3 0 0 1-.569-1.37.7.7 0 0 0-.68-.528h-.994V7.764h.993c.32 0 .601-.217.681-.527.124-.48.315-.942.57-1.372a.7.7 0 0 0-.109-.855m7.002 17.917H9.691v-3.113h4.618zm8.285-5.322c0 .443-.36.803-.803.803H2.209a.804.804 0 0 1-.803-.803V5.555c0-.443.36-.803.803-.803h2.856q.022.027.047.052l.832.832a7 7 0 0 0-.3.722H4.469a.703.703 0 0 0-.703.703v3.013c0 .388.314.703.703.703h1.175q.128.37.3.722l-.832.832a.703.703 0 0 0 0 .994l2.13 2.13c.275.275.72.275.995 0l.831-.831q.353.171.723.3v1.175c0 .388.314.703.703.703h3.012a.703.703 0 0 0 .703-.703v-1.175q.37-.129.723-.3l.831.831c.275.275.72.275.995 0l2.13-2.13a.703.703 0 0 0 0-.994l-.832-.832q.171-.353.3-.722h1.175a.703.703 0 0 0 .703-.703V7.06a.703.703 0 0 0-.703-.703h-1.175a7 7 0 0 0-.3-.722l.832-.832.047-.052h2.856c.442 0 .803.36.803.803z"/><path d="M12 12.283a3.72 3.72 0 0 0 3.716-3.716A3.72 3.72 0 0 0 12 4.852a3.72 3.72 0 0 0-3.716 3.715A3.72 3.72 0 0 0 12 12.283m0-6.025a2.31 2.31 0 0 1 2.31 2.31A2.31 2.31 0 0 1 12 10.876a2.31 2.31 0 0 1-2.31-2.31A2.31 2.31 0 0 1 12 6.257"/></g><defs><clipPath id="a"><path fill="#fff" d="M0 .333h24v24H0z"/></clipPath></defs></svg>