<svg xmlns="http://www.w3.org/2000/svg" fill="none" viewBox="0 0 33 32"><g fill="#fff" clip-path="url(#a)"><path d="m32.423 30.688-5.647-13.174a.94.94 0 0 0-.865-.57h-3.586c1.452-2.536 2.645-5.342 2.645-7.717C24.97-3 8.03-3.15 8.03 9.227c0 2.375 1.193 5.181 2.645 7.717H7.089a.94.94 0 0 0-.865.57L.577 30.688A.942.942 0 0 0 1.442 32h30.116a.942.942 0 0 0 .865-1.312m-7.132-11.862 2.786 6.5c-.087.046-9.156 4.755-9.221 4.792h-1.97c-.05-.056.373.37-5.76-5.763l3.407-1.744c.694.887 1.18 1.45 1.257 1.537a.94.94 0 0 0 1.42 0 52 52 0 0 0 3.966-5.322zM16.5 1.887c3.173 0 6.588 2.297 6.588 7.34 0 4.24-4.753 10.55-6.588 12.828-1.835-2.278-6.588-8.588-6.588-12.828 0-5.07 3.309-7.34 6.588-7.34M7.71 18.826c4.558 0 4.04 0 4.113-.002a50 50 0 0 0 1.558 2.262L4.874 25.44zm-3.997 9.322 5.652-2.892 4.863 4.862H2.869zm19.222 1.97 5.886-3.057 1.31 3.057z"/><path d="M19.323 8.475A2.827 2.827 0 0 0 16.5 5.65a2.827 2.827 0 0 0-2.823 2.824 2.826 2.826 0 0 0 2.823 2.823 2.826 2.826 0 0 0 2.823-2.823m-3.764 0a.942.942 0 0 1 1.882 0 .942.942 0 0 1-1.882 0"/></g><defs><clipPath id="a"><path fill="#fff" d="M.5 0h32v32H.5z"/></clipPath></defs></svg>