<svg xmlns="http://www.w3.org/2000/svg" fill="none" viewBox="0 0 33 32"><g clip-path="url(#a)"><path fill="#fff" d="M23.53 32c-5.61 0-11.601-2.061-16.285-6.745C2.569 20.579.5 14.592.5 8.97A8.966 8.966 0 0 1 9.47 0c.384 0 .729.233.871.59l4.017 10.041a.937.937 0 0 1-.522 1.219l-4.413 1.765c.313 5.076 4.387 9.15 9.463 9.462l1.764-4.413a.94.94 0 0 1 1.22-.522l10.04 4.017c.357.142.59.487.59.87A8.966 8.966 0 0 1 23.53 32M8.846 1.902c-3.59.31-6.472 3.321-6.472 7.069 0 5.65 2.2 10.963 6.196 14.958a21.02 21.02 0 0 0 14.958 6.196c3.746 0 6.758-2.88 7.07-6.472l-8.556-3.422-1.66 4.15a.94.94 0 0 1-.87.59c-6.609 0-11.984-5.375-11.984-11.982a.94.94 0 0 1 .59-.872l4.15-1.66z"/></g><defs><clipPath id="a"><path fill="#fff" d="M.5 0h32v32H.5z"/></clipPath></defs></svg>