<svg xmlns="http://www.w3.org/2000/svg" fill="none" viewBox="0 0 33 32"><g fill="#fff" clip-path="url(#a)"><path d="M16.23 18.085a.94.94 0 0 0 .54 0 9.64 9.64 0 0 0 4.998-3.503 9.64 9.64 0 0 0 1.92-5.795v-5.35a.94.94 0 0 0-.938-.937A3.09 3.09 0 0 1 19.97.782l-.13-.264A.94.94 0 0 0 19 0h-5c-.355 0-.68.2-.839.518l-.131.264A3.09 3.09 0 0 1 10.25 2.5a.94.94 0 0 0-.937.938v5.35a9.64 9.64 0 0 0 1.919 5.794 9.64 9.64 0 0 0 4.999 3.503M11.189 4.288a4.95 4.95 0 0 0 3.382-2.413h3.86a4.95 4.95 0 0 0 3.383 2.413v4.5a7.78 7.78 0 0 1-5.313 7.416 7.78 7.78 0 0 1-5.312-7.417z"/><path d="M15.616 11.768c.24 0 .48-.091.663-.275l3.536-3.535a.938.938 0 0 0-1.326-1.326l-2.873 2.873L14.511 8.4a.937.937 0 1 0-1.325 1.326l1.767 1.767a.94.94 0 0 0 .663.275m13.207 10.276A4.05 4.05 0 0 0 30 19.187a4.067 4.067 0 0 0-4.062-4.062 4.067 4.067 0 0 0-4.063 4.063c0 1.11.449 2.118 1.174 2.852a6.56 6.56 0 0 0-3.263 3.603 5 5 0 0 0-.686-.46 3.42 3.42 0 0 0 .837-2.245A3.44 3.44 0 0 0 16.5 19.5a3.44 3.44 0 0 0-3.437 3.438c0 .857.316 1.642.837 2.244q-.361.204-.686.46a6.56 6.56 0 0 0-3.263-3.602 4.05 4.05 0 0 0 1.174-2.852 4.067 4.067 0 0 0-4.062-4.063A4.067 4.067 0 0 0 3 19.188a4.05 4.05 0 0 0 1.177 2.856A6.57 6.57 0 0 0 .5 27.937v3.125c0 .518.42.938.938.938h30.125c.517 0 .937-.42.937-.937v-3.125a6.57 6.57 0 0 0-3.677-5.894m-5.073-2.857A2.19 2.19 0 0 1 25.938 17a2.19 2.19 0 0 1 2.187 2.188 2.19 2.19 0 0 1-2.187 2.187 2.19 2.19 0 0 1-2.188-2.187m-8.812 3.75a1.563 1.563 0 0 1 3.125.001 1.563 1.563 0 0 1-3.125 0m-10.063-3.75A2.19 2.19 0 0 1 7.063 17a2.19 2.19 0 0 1 2.187 2.188 2.19 2.19 0 0 1-2.187 2.187 2.19 2.19 0 0 1-2.188-2.187m-2.5 8.75a4.693 4.693 0 0 1 4.688-4.687 4.677 4.677 0 0 1 4.665 4.231 5.3 5.3 0 0 0-.54 2.331v.313H2.374zm17.563 2.188h-6.875v-.312a3.44 3.44 0 0 1 3.437-3.438 3.44 3.44 0 0 1 3.438 3.438zm10.687 0h-8.812v-.312a5.3 5.3 0 0 0-.54-2.332 4.677 4.677 0 0 1 4.665-4.231 4.693 4.693 0 0 1 4.687 4.688z"/></g><defs><clipPath id="a"><path fill="#fff" d="M.5 0h32v32H.5z"/></clipPath></defs></svg>