<svg xmlns="http://www.w3.org/2000/svg" fill="none" viewBox="0 0 24 25"><g fill="#ae9f91" clip-path="url(#a)"><path d="M21.844 1.364c-1.163 0-2.11.947-2.11 2.11v5.179a2.11 2.11 0 0 0-2.777.18l-4.081 4.082c-.347.346-.64.731-.876 1.145a5.4 5.4 0 0 0-.876-1.145L7.043 8.833a2.11 2.11 0 0 0-2.777-.18v-5.18c0-1.162-.947-2.109-2.11-2.109s-2.11.947-2.11 2.11v7.678a5.4 5.4 0 0 0 1.25 3.45l3.438 4.126v1.386H4.5a.703.703 0 0 0-.703.703v2.813c0 .388.315.703.703.703h15a.703.703 0 0 0 .703-.703v-2.813a.703.703 0 0 0-.703-.703h-.234v-1.386l3.438-4.126a5.4 5.4 0 0 0 1.25-3.45V3.474c0-1.163-.947-2.11-2.11-2.11M11.297 22.927H5.203V21.52h6.094zm0-2.813H6.14v-1.64a.7.7 0 0 0-.163-.45l-3.601-4.322a4 4 0 0 1-.924-2.55V3.474a.704.704 0 0 1 1.406 0V9.16c0 .939.366 1.822 1.03 2.486l2.993 2.992a.703.703 0 1 0 .994-.994l-2.823-2.823a.703.703 0 0 1 .995-.994l4.082 4.082a3.96 3.96 0 0 1 1.167 2.818zm7.5 2.813h-6.094V21.52h6.094zm3.75-11.775c0 .93-.328 1.836-.924 2.55l-3.6 4.321a.7.7 0 0 0-.164.45v1.641h-5.156v-3.387c0-1.065.415-2.065 1.167-2.818l4.082-4.082a.703.703 0 0 1 .995.994l-2.823 2.823a.703.703 0 1 0 .994.994l2.993-2.993a3.5 3.5 0 0 0 1.03-2.485V3.474a.704.704 0 0 1 1.406 0z"/><path d="M11.503 9.5c.274.275.72.275.994 0l3.996-3.996a3.034 3.034 0 0 0 0-4.285 3.034 3.034 0 0 0-4.285 0L12 1.427l-.208-.208a3.034 3.034 0 0 0-4.285 0 3.034 3.034 0 0 0 0 4.285zM8.5 2.214a1.626 1.626 0 0 1 2.297 0l.705.706c.274.274.72.274.994 0l.705-.706a1.626 1.626 0 0 1 2.297 0 1.626 1.626 0 0 1 0 2.297L12 8.01l-3.499-3.5a1.626 1.626 0 0 1 0-2.297"/></g><defs><clipPath id="a"><path fill="#fff" d="M0 .333h24v24H0z"/></clipPath></defs></svg>