<svg xmlns="http://www.w3.org/2000/svg" fill="none" viewBox="0 0 24 25"><g clip-path="url(#a)"><path fill="#ae9f91" d="M17.672 2.088a.703.703 0 0 0-.998 0l-2.077 2.093a.72.72 0 0 1-.514.215H9.787a.72.72 0 0 1-.515-.216L7.23 2.134a.703.703 0 0 0-.997.001L.157 8.256a.703.703 0 0 0 .002.992L1.9 10.995c.33.332.512.775.512 1.246 0 .61.171 1.193.49 1.695a2.16 2.16 0 0 0 .134 2.881 2.1 2.1 0 0 0 1.406.628 2.14 2.14 0 0 0 2.025 2.04c.025.515.231 1.022.62 1.413.612.617 1.49.773 2.232.506a2.133 2.133 0 0 0 3.527.808l.297-.3c.185-.186.33-.4.432-.627.83.733 2.11.717 2.92-.098.388-.392.595-.899.619-1.413a2.143 2.143 0 0 0 2.026-2.04 2.12 2.12 0 0 0 1.405-.628 2.16 2.16 0 0 0 .147-2.868c.495-.697.763-1.53.763-2.405a.8.8 0 0 1 .226-.55L23.75 9.2a.703.703 0 0 0 0-.99zM4.035 14.777l1.013-1.02a.72.72 0 0 1 1.027 0 .746.746 0 0 1 0 1.05l-1.013 1.02a.72.72 0 0 1-1.027 0 .747.747 0 0 1 0-1.05m2.026 2.04 2.025-2.04a.72.72 0 0 1 1.028 0c.287.29.287.76 0 1.05l-2.026 2.04a.72.72 0 0 1-1.027 0 .747.747 0 0 1 0-1.05m2.025 3.09a.747.747 0 0 1 0-1.05l1.013-1.02a.72.72 0 0 1 1.027 0 .75.75 0 0 1 .06.98c-.061.058.03-.034-1.072 1.09a.72.72 0 0 1-1.028 0m4.06 1.015-.297.299a.72.72 0 0 1-1.027 0 .75.75 0 0 1-.07-.968c.387-.39.368-.367.435-.441a.72.72 0 0 1 .96.06.75.75 0 0 1 0 1.05m7.402-4.807a.72.72 0 0 1-1.027 0l-1.31-1.319a.703.703 0 0 0-.998.99l1.31 1.32c.287.29.287.76 0 1.05a.72.72 0 0 1-1.028 0l-1.31-1.32a.703.703 0 0 0-.997.991l1.31 1.32a.75.75 0 0 1 0 1.05.72.72 0 0 1-1.028 0c-1.379-1.378-1.313-1.348-1.452-1.432a2.1 2.1 0 0 0-1.274-.511 2.14 2.14 0 0 0-1.3-1.87 2.16 2.16 0 0 0-.332-2.598 2.13 2.13 0 0 0-2.585-.34 2.127 2.127 0 0 0-3.478-.68l-.111.113a1.8 1.8 0 0 1-.118-.638c0-.845-.327-1.64-.922-2.238L1.648 8.75l5.086-5.123 1.54 1.545c.345.347.786.56 1.263.615l-3.142 3.77a.703.703 0 0 0 .09.99 3.5 3.5 0 0 0 2.569.801 3.5 3.5 0 0 0 2.383-1.251.855.855 0 0 1 1.03-.222 4.1 4.1 0 0 0 2.304.378l4.777 4.812c.288.29.288.76 0 1.05m1.136-5.823a2.17 2.17 0 0 0-.634 1.54c0 .492-.127.962-.365 1.375l-3.42-3.445a4.13 4.13 0 0 0 1.653-1.698.703.703 0 0 0-1.245-.653 2.73 2.73 0 0 1-1.866 1.414 2.7 2.7 0 0 1-1.728-.216 2.26 2.26 0 0 0-2.723.589c-.36.432-.868.699-1.43.75a2.1 2.1 0 0 1-.924-.122l3.255-3.907c.255-.077.52-.123.786-.123h2.04c.572 0 1.108-.218 1.512-.624l1.579-1.59 5.085 5.123z"/></g><defs><clipPath id="a"><path fill="#fff" d="M0 .333h24v24H0z"/></clipPath></defs></svg>