<svg xmlns="http://www.w3.org/2000/svg" fill="none" viewBox="0 0 12 13"><g clip-path="url(#a)"><path fill="#fff" d="M6 1.414c1.603 0 1.791.008 2.425.036.586.026.903.124 1.115.207.28.11.48.239.69.448s.34.41.448.69c.081.213.181.53.207 1.116.029.633.036.821.036 2.424s-.007 1.792-.036 2.425c-.026.586-.124.903-.207 1.115-.11.281-.238.481-.448.69-.21.21-.41.341-.69.448-.212.081-.53.181-1.115.208-.634.028-.822.035-2.425.035s-1.791-.007-2.425-.035c-.586-.027-.903-.124-1.114-.208a1.9 1.9 0 0 1-.691-.447c-.21-.21-.34-.41-.448-.691-.081-.212-.181-.529-.207-1.115-.029-.633-.036-.822-.036-2.425s.007-1.79.036-2.424c.026-.586.124-.903.207-1.115.11-.281.238-.481.448-.69.21-.21.41-.341.69-.449.212-.08.53-.18 1.115-.207.634-.03.824-.036 2.425-.036M6 .333c-1.63 0-1.834.007-2.475.036-.638.028-1.074.13-1.455.278-.396.153-.729.36-1.062.694S.469 2.01.314 2.403c-.147.381-.25.817-.278 1.458C.007 4.499 0 4.704 0 6.333s.007 1.834.036 2.475c.028.638.13 1.074.278 1.457.153.396.36.73.694 1.063s.669.538 1.062.693c.381.148.817.25 1.458.279.64.028.843.035 2.474.035s1.834-.007 2.475-.035c.639-.029 1.074-.131 1.458-.279.395-.153.729-.36 1.062-.693a3 3 0 0 0 .693-1.062c.148-.382.25-.817.279-1.458.029-.64.036-.843.036-2.475s-.007-1.834-.036-2.475c-.028-.638-.131-1.074-.279-1.458a2.9 2.9 0 0 0-.693-1.062A3 3 0 0 0 9.935.645C9.554.497 9.118.395 8.477.366 7.834.34 7.63.333 6 .333"/><path fill="#fff" d="M6 1.414c1.603 0 1.791.008 2.425.036.586.026.903.124 1.115.207.28.11.48.239.69.448s.34.41.448.69c.081.213.181.53.207 1.116.029.633.036.821.036 2.424s-.007 1.792-.036 2.425c-.026.586-.124.903-.207 1.115-.11.281-.238.481-.448.69-.21.21-.41.341-.69.448-.212.081-.53.181-1.115.208-.634.028-.822.035-2.425.035s-1.791-.007-2.425-.035c-.586-.027-.903-.124-1.114-.208a1.9 1.9 0 0 1-.691-.447c-.21-.21-.34-.41-.448-.691-.081-.212-.181-.529-.207-1.115-.029-.633-.036-.822-.036-2.425s.007-1.79.036-2.424c.026-.586.124-.903.207-1.115.11-.281.238-.481.448-.69.21-.21.41-.341.69-.449.212-.08.53-.18 1.115-.207.634-.03.824-.036 2.425-.036"/><path fill="#282b30" d="M6 3.253a3.083 3.083 0 1 0 .001 6.165A3.083 3.083 0 0 0 6 3.253m0 5.08a2 2 0 1 1 0-4 2 2 0 0 1 0 4m3.204-4.484a.72.72 0 1 0 0-1.439.72.72 0 0 0 0 1.439"/></g><defs><clipPath id="a"><path fill="#fff" d="M0 .333h12v12H0z"/></clipPath></defs></svg>