<svg xmlns="http://www.w3.org/2000/svg" fill="none" viewBox="0 0 24 25"><g fill="#ae9f91" clip-path="url(#a)"><path d="M19.031 15.802H4.97a3.52 3.52 0 0 0-3.516 3.515v4.313c0 .388.315.703.703.703h8.438a.703.703 0 0 0 .703-.703v-3.61h1.406v3.61c0 .388.315.703.703.703h8.438a.703.703 0 0 0 .703-.703v-4.313a3.52 3.52 0 0 0-3.516-3.515m-9.14 7.125H5.67v-3.61a.703.703 0 0 0-1.405 0v3.61H2.859v-3.61c0-1.163.947-2.109 2.11-2.109H7.78c1.163 0 2.11.946 2.11 2.11zm3.515-4.313h-2.18a3.5 3.5 0 0 0-.634-1.406h8.44c1.162 0 2.109.946 2.109 2.11v3.609h-1.407v-3.61a.703.703 0 0 0-1.406 0v3.61H14.11v-3.61a.703.703 0 0 0-.703-.703m-2.813-6.328a3.52 3.52 0 0 0-3.516-3.515 3.52 3.52 0 0 0-3.516 3.515 3.52 3.52 0 0 0 3.516 3.516 3.52 3.52 0 0 0 3.516-3.516m-3.516 2.11a2.11 2.11 0 0 1-2.11-2.11c0-1.163.947-2.11 2.11-2.11s2.11.947 2.11 2.11-.947 2.11-2.11 2.11m13.36-2.11a3.52 3.52 0 0 0-3.516-3.515 3.52 3.52 0 0 0-3.516 3.515 3.52 3.52 0 0 0 3.516 3.516 3.52 3.52 0 0 0 3.515-3.516m-3.516 2.11a2.11 2.11 0 0 1-2.11-2.11c0-1.163.947-2.11 2.11-2.11s2.11.947 2.11 2.11-.947 2.11-2.11 2.11M6.375 7.364h3.928l1.2 1.2a.7.7 0 0 0 .994 0l1.2-1.2h3.928a3.52 3.52 0 0 0 3.516-3.515A3.52 3.52 0 0 0 17.625.333H6.375a3.52 3.52 0 0 0-3.516 3.516 3.52 3.52 0 0 0 3.516 3.515m0-5.625h11.25c1.163 0 2.11.947 2.11 2.11s-.947 2.109-2.11 2.109h-4.219a.7.7 0 0 0-.497.206L12 7.073l-.91-.91a.7.7 0 0 0-.496-.205H6.375a2.11 2.11 0 0 1-2.11-2.11c0-1.162.947-2.109 2.11-2.109"/><path d="M7.781 4.552a.703.703 0 1 0 0-1.406.703.703 0 0 0 0 1.406m4.219 0a.703.703 0 1 0 0-1.406.703.703 0 0 0 0 1.406m4.219 0a.703.703 0 1 0 0-1.406.703.703 0 0 0 0 1.406"/></g><defs><clipPath id="a"><path fill="#fff" d="M0 .333h24v24H0z"/></clipPath></defs></svg>