<svg xmlns="http://www.w3.org/2000/svg" fill="none" viewBox="0 0 48 48"><g fill="#ae9f91" clip-path="url(#a)"><path d="M46.594 38.572h-1.956V1.406C44.638.63 44.008 0 43.232 0H4.768c-.776 0-1.406.63-1.406 1.406v37.166H1.406c-.776 0-1.406.63-1.406 1.406v.053C0 44.425 3.575 48 7.969 48H40.03c4.395 0 7.97-3.575 7.97-7.969v-.053c0-.776-.63-1.406-1.406-1.406M6.174 2.812h35.651v35.76H39.01V7.132c0-.778-.63-1.407-1.406-1.407H10.397c-.776 0-1.406.63-1.406 1.406v31.441H6.175zm5.63 35.76V24.961h10.79v13.611zM36.196 8.537v13.611h-10.79V8.538zM22.594 22.148h-10.79V18.45l5.094-5.097a1.406 1.406 0 1 0-1.989-1.988l-3.106 3.107V8.537h10.79zm2.812 2.813h10.79v13.611h-10.79zm14.625 20.227H7.97a5.166 5.166 0 0 1-4.976-3.803h42.014a5.166 5.166 0 0 1-4.976 3.803"/><path d="M16.56 19.384c.274.274.634.411.994.411s.72-.137.994-.412l1.203-1.203a1.406 1.406 0 1 0-1.99-1.988l-1.202 1.203a1.407 1.407 0 0 0 0 1.989"/></g><defs><clipPath id="a"><path fill="#fff" d="M0 0h48v48H0z"/></clipPath></defs></svg>