<svg xmlns="http://www.w3.org/2000/svg" fill="none" viewBox="0 0 48 48"><g fill="#ae9f91" clip-path="url(#a)"><path d="M33.661 20.495a1.4 1.4 0 0 0-1.224-.714h-7.03v-7.03a1.406 1.406 0 0 0-2.613-.724l-8.437 14.062a1.406 1.406 0 0 0 1.206 2.13h7.03v7.031a1.406 1.406 0 0 0 2.613.724l8.437-14.063c.26-.434.268-.975.018-1.416m-8.255 9.678v-3.36c0-.777-.63-1.407-1.406-1.407h-5.954l4.548-7.579v3.36c0 .777.63 1.407 1.406 1.407h5.954z"/><path d="M43.112 38.363C46.268 34.175 48 29.097 48 24c0-5.747-2.09-11.245-5.914-15.638l1.302-1.1a1.406 1.406 0 0 0-.908-2.48h-4.26C34.009 1.651 29.102 0 24 0 18.7 0 13.52 1.826 9.27 5.167L8.03 4.124a1.406 1.406 0 0 0-2.31 1.018l-.15 3.632C1.973 13.114 0 18.502 0 24c0 4.771 1.447 9.377 4.198 13.402l-1.046.867a1.406 1.406 0 0 0 .659 2.469l3.783.649C12.106 45.654 17.914 48 24 48c5.83 0 11.408-2.153 15.834-6.087l1.324.943a1.406 1.406 0 0 0 2.217-1.26zM8.405 8.274c.972.619 1.773-.213 1.782-.217l.002-.002C14.09 4.673 18.987 2.813 24 2.813c3.048 0 6.02.672 8.78 1.968h-.343a1.406 1.406 0 0 0-1.371 1.717l.161.71A18.2 18.2 0 0 0 24 5.718a18.1 18.1 0 0 0-11.22 3.857 1.407 1.407 0 0 0-.125 2.108l-4.427.868zm-1.16 30.2a1.41 1.41 0 0 0-.019-1.682C4.34 33.012 2.813 28.588 2.813 24c0-3.445.883-6.843 2.536-9.9l-.005.115a1.407 1.407 0 0 0 1.675 1.438l.805-.157A18.3 18.3 0 0 0 5.72 24a18.1 18.1 0 0 0 3.667 10.972 1.406 1.406 0 0 0 1.794.39l.234 3.827zm4.146-7.255-.68.694A15.3 15.3 0 0 1 8.53 24c0-3.374 1.062-6.559 3.076-9.245l4.643-.91a1.406 1.406 0 0 0 .582-2.499l-.795-.606A15.3 15.3 0 0 1 24 8.531c2.852 0 5.619.78 8.039 2.258l1.029 4.539a1.406 1.406 0 0 0 2.355.693l1.106-1.083a15.44 15.44 0 0 1 .73 17.018l-5.312 1.976a1.406 1.406 0 0 0-.29 2.488l.794.53A15.47 15.47 0 0 1 24 39.468a15.42 15.42 0 0 1-9.975-3.657l-.226-3.695a1.406 1.406 0 0 0-2.408-.898m27.342 7.877C34.71 43.024 29.477 45.188 24 45.188a20.75 20.75 0 0 1-10.679-2.964 1.405 1.405 0 0 0 1.008-1.435l-.081-1.332A18.2 18.2 0 0 0 24 42.28c4.312 0 8.502-1.535 11.796-4.324a1.407 1.407 0 0 0-.128-2.244l-.158-.105 4.422-1.644.397 4.872a1.41 1.41 0 0 0-1.596.26m4.003-5.348-.152-1.864a1.404 1.404 0 0 0-1.536-1.284 18.25 18.25 0 0 0-3.34-18.684 1.407 1.407 0 0 0-2.038-.074l-.416.408-1.056-4.666h4.606c-.27.526-.19 1.193.248 1.638 3.956 4.03 6.136 9.278 6.136 14.778 0 3.416-.84 6.727-2.452 9.748"/></g><defs><clipPath id="a"><path fill="#fff" d="M0 0h48v48H0z"/></clipPath></defs></svg>