<svg xmlns="http://www.w3.org/2000/svg" fill="none" viewBox="0 0 48 48"><g fill="#ae9f91" clip-path="url(#a)"><path d="M24 19.125a6.76 6.76 0 0 0 6.75-6.75A6.76 6.76 0 0 0 24 5.625a6.76 6.76 0 0 0-6.75 6.75 6.76 6.76 0 0 0 6.75 6.75m0-10.687a3.94 3.94 0 0 1 3.938 3.937A3.94 3.94 0 0 1 24 16.313a3.94 3.94 0 0 1-3.937-3.938A3.94 3.94 0 0 1 24 8.438m0-5.625A1.406 1.406 0 1 0 24 0a1.406 1.406 0 0 0 0 2.813M13.031 13.781a1.406 1.406 0 1 0 0-2.812 1.406 1.406 0 0 0 0 2.812m21.938 0a1.406 1.406 0 1 0 0-2.812 1.406 1.406 0 0 0 0 2.812M24 24.75a1.406 1.406 0 1 0 0-2.812 1.406 1.406 0 0 0 0 2.812m-7.756-3.213a1.406 1.406 0 1 0 0-2.812 1.406 1.406 0 0 0 0 2.812M31.756 6.025a1.406 1.406 0 1 0 0-2.812 1.406 1.406 0 0 0 0 2.812m-15.512 0a1.406 1.406 0 1 0 0-2.812 1.406 1.406 0 0 0 0 2.812m15.512 15.512a1.406 1.406 0 1 0 0-2.812 1.406 1.406 0 0 0 0 2.812M1.406 33h28.219v1.406c0 .777.63 1.407 1.406 1.407h8.813c.776 0 1.406-.63 1.406-1.407V33h5.344a1.406 1.406 0 0 0 0-2.812H41.25V28.78c0-.776-.63-1.406-1.406-1.406H31.03c-.776 0-1.406.63-1.406 1.406v1.407H1.406a1.406 1.406 0 0 0 0 2.812m31.032-2.812h6V33h-6zm14.156 12.188H29.813v-1.406c0-.777-.63-1.407-1.407-1.407h-8.812c-.777 0-1.407.63-1.407 1.407v1.406H1.407a1.406 1.406 0 0 0 0 2.813h16.78v1.406c0 .776.63 1.406 1.407 1.406h8.812c.777 0 1.407-.63 1.407-1.406v-1.407h16.78a1.406 1.406 0 0 0 0-2.812M27 45.188h-6v-2.813h6z"/></g><defs><clipPath id="a"><path fill="#fff" d="M0 0h48v48H0z"/></clipPath></defs></svg>