<svg xmlns="http://www.w3.org/2000/svg" fill="none" viewBox="0 0 100 104"><path fill="#f7f7f7" d="M15.862 94.298c3.04 3.098 6.546 5.87 10.57 7.565 3.565 1.494 7.531 1.887 11.188.484 4.409-1.695 7.515-5.677 9.644-9.735 1.51-2.889 2.705-5.936 4.116-8.875 1.511-3.14 3.164-6.237 5.252-9.043 1.995-2.68 4.458-5.093 7.497-6.546 2.964-1.427 6.346-1.745 9.56-1.168 2.639.467 5.169 1.444 7.84 1.686 2.355.209 4.71-.267 6.855-1.227a9.8 9.8 0 0 0 2.062-.819c2.447-1.336 4.308-3.59 5.686-5.978 3.006-5.218 4.217-11.346 3.782-17.316-1.027-14.077-9.56-26.593-21.123-34.316C68.479 2.13 55.663-1.284 43.315.444c-6.212.868-12.249 3.14-17.434 6.688-5.076 3.481-9.593 7.898-13.425 12.707C5.258 28.865.808 39.92.106 51.467c-.659 10.77 1.738 21.883 7.098 31.268 2.388 4.174 5.285 8.124 8.658 11.563"/></svg>