<svg xmlns="http://www.w3.org/2000/svg" fill="none" viewBox="0 0 48 48"><g clip-path="url(#a)"><path fill="#ae9f91" d="M24 31.031c.777 0 1.406-.63 1.406-1.406v-2.812a1.406 1.406 0 0 0-2.812 0v2.812c0 .777.63 1.406 1.406 1.406m0 5.625c4.652 0 8.438-3.785 8.438-8.437v-7.032c0-.776-.63-1.406-1.407-1.406h-1.406V16.97A5.63 5.63 0 0 0 24 11.344a5.63 5.63 0 0 0-5.625 5.625v2.812h-1.406c-.777 0-1.407.63-1.407 1.407v7.03c0 4.653 3.786 8.438 8.438 8.438M21.188 16.97A2.816 2.816 0 0 1 24 14.156a2.816 2.816 0 0 1 2.813 2.813v2.812h-5.625zm-2.813 5.625h11.25v5.625A5.63 5.63 0 0 1 24 33.844a5.63 5.63 0 0 1-5.625-5.625zM46.594 0H1.406C.63 0 0 .63 0 1.406v45.188C0 47.37.63 48 1.406 48h45.188C47.37 48 48 47.37 48 46.594V1.406C48 .63 47.37 0 46.594 0M14.063 2.813h19.874v7.124c0 5.054 2.978 9.425 7.27 11.452a9.84 9.84 0 0 0-4.457 8.236v9.844h-25.5v-9.844a9.84 9.84 0 0 0-4.457-8.236c4.292-2.027 7.27-6.398 7.27-11.451zm-11.25 0h2.812v7.124a1.406 1.406 0 0 0 2.813 0V2.814h2.812v7.124c0 4.951-3.673 9.059-8.437 9.743zm0 19.922c3.205.654 5.624 3.494 5.624 6.89v9.844H2.814zm42.375 22.453H2.813V42.28h42.375zm0-5.72h-5.626v-9.843c0-3.395 2.42-6.236 5.626-6.89zm0-19.788c-4.765-.684-8.438-4.792-8.438-9.742V2.811h2.813v7.126a1.406 1.406 0 0 0 2.812 0V2.811h2.813z"/></g><defs><clipPath id="a"><path fill="#fff" d="M0 0h48v48H0z"/></clipPath></defs></svg>